<?xml version="1.0" encoding="UTF-8" standalone="no"?>
<!DOCTYPE svg PUBLIC "-//W3C//DTD SVG 1.1//EN"
 "http://www.w3.org/Graphics/SVG/1.1/DTD/svg11.dtd">
<!-- Generated by graphviz version 12.0.0 (0)
 -->
<!-- Title: G Pages: 1 -->
<svg width="295pt" height="313pt"
 viewBox="0.00 0.00 294.90 313.25" xmlns="http://www.w3.org/2000/svg" xmlns:xlink="http://www.w3.org/1999/xlink">
<g id="graph0" class="graph" transform="scale(1 1) rotate(0) translate(4 309.25)">
<title>G</title>
<polygon fill="white" stroke="none" points="-4,4 -4,-309.25 290.9,-309.25 290.9,4 -4,4"/>
<text text-anchor="middle" x="143.45" y="-5.75" font-family="Times,serif" font-size="10.00">^ split feature fixed, * split threshold fixed</text>
<!-- y -->
<g id="node1" class="node">
<title>y</title>
<polygon fill="none" stroke="black" points="177.9,-305.25 123.9,-305.25 123.9,-269.25 177.9,-269.25 177.9,-305.25"/>
<text text-anchor="middle" x="150.9" y="-282.2" font-family="Times,serif" font-size="14.00">y</text>
</g>
<!-- 177604080 -->
<g id="node2" class="node">
<title>177604080</title>
<ellipse fill="none" stroke="black" cx="150.9" cy="-198.75" rx="56.98" ry="18"/>
<text text-anchor="middle" x="150.9" y="-193.7" font-family="Times,serif" font-size="14.00">x0 &gt;= 0.76?</text>
</g>
<!-- y&#45;&gt;177604080 -->
<g id="edge1" class="edge">
<title>y&#45;&gt;177604080</title>
<path fill="none" stroke="black" d="M150.9,-269.16C150.9,-257.51 150.9,-241.8 150.9,-228.27"/>
<polygon fill="black" stroke="black" points="154.4,-228.61 150.9,-218.61 147.4,-228.61 154.4,-228.61"/>
<text text-anchor="middle" x="162.9" y="-237.95" font-family="Times,serif" font-size="14.00">0.76</text>
</g>
<!-- 10fd43150 -->
<g id="node3" class="node">
<title>10fd43150</title>
<ellipse fill="none" stroke="black" cx="100.9" cy="-125.75" rx="56.98" ry="18"/>
<text text-anchor="middle" x="100.9" y="-120.7" font-family="Times,serif" font-size="14.00">x0 &gt;= 0.82?</text>
</g>
<!-- 177604080&#45;&gt;10fd43150 -->
<g id="edge2" class="edge">
<title>177604080&#45;&gt;10fd43150</title>
<path fill="none" stroke="black" d="M139.05,-180.92C133.14,-172.52 125.85,-162.17 119.23,-152.78"/>
<polygon fill="black" stroke="black" points="122.16,-150.85 113.54,-144.69 116.43,-154.88 122.16,-150.85"/>
<text text-anchor="middle" x="134.18" y="-167.62" font-family="Times,serif" font-size="14.00">Y</text>
</g>
<!-- 17359a090 -->
<g id="node4" class="node">
<title>17359a090</title>
<ellipse fill="none" stroke="black" cx="202.9" cy="-125.75" rx="27" ry="18"/>
<text text-anchor="middle" x="202.9" y="-120.7" font-family="Times,serif" font-size="14.00">Add</text>
</g>
<!-- 177604080&#45;&gt;17359a090 -->
<g id="edge3" class="edge">
<title>177604080&#45;&gt;17359a090</title>
<path fill="none" stroke="black" d="M163.23,-180.92C169.62,-172.19 177.56,-161.35 184.66,-151.66"/>
<polygon fill="black" stroke="black" points="187.4,-153.84 190.49,-143.7 181.75,-149.7 187.4,-153.84"/>
<text text-anchor="middle" x="179.38" y="-145.68" font-family="Times,serif" font-size="14.00">1.36</text>
<text text-anchor="middle" x="158.35" y="-167.62" font-family="Times,serif" font-size="14.00">N</text>
</g>
<!-- 109926ea0 -->
<g id="node5" class="node">
<title>109926ea0</title>
<ellipse fill="none" stroke="black" cx="31.9" cy="-37.25" rx="31.9" ry="18"/>
<text text-anchor="middle" x="31.9" y="-32.2" font-family="Times,serif" font-size="14.00">29.83</text>
</g>
<!-- 10fd43150&#45;&gt;109926ea0 -->
<g id="edge4" class="edge">
<title>10fd43150&#45;&gt;109926ea0</title>
<path fill="none" stroke="black" d="M87.6,-108.07C77.38,-95.27 63.12,-77.38 51.58,-62.92"/>
<polygon fill="black" stroke="black" points="54.38,-60.82 45.41,-55.19 48.91,-65.19 54.38,-60.82"/>
<text text-anchor="middle" x="82.72" y="-94.77" font-family="Times,serif" font-size="14.00">Y</text>
</g>
<!-- x0 -->
<g id="node6" class="node">
<title>x0</title>
<ellipse fill="none" stroke="black" cx="108.9" cy="-37.25" rx="27" ry="18"/>
<text text-anchor="middle" x="108.9" y="-32.2" font-family="Times,serif" font-size="14.00">x0</text>
</g>
<!-- 10fd43150&#45;&gt;x0 -->
<g id="edge5" class="edge">
<title>10fd43150&#45;&gt;x0</title>
<path fill="none" stroke="black" d="M102.48,-107.66C103.56,-96.01 105.01,-80.3 106.27,-66.77"/>
<polygon fill="black" stroke="black" points="109.72,-67.39 107.16,-57.11 102.75,-66.74 109.72,-67.39"/>
<text text-anchor="middle" x="91.92" y="-58.8" font-family="Times,serif" font-size="14.00">48.74</text>
<text text-anchor="middle" x="97.61" y="-94.36" font-family="Times,serif" font-size="14.00">N</text>
</g>
<!-- x1 -->
<g id="node7" class="node">
<title>x1</title>
<ellipse fill="none" stroke="black" cx="187.9" cy="-37.25" rx="27" ry="18"/>
<text text-anchor="middle" x="187.9" y="-32.2" font-family="Times,serif" font-size="14.00">x1</text>
</g>
<!-- 17359a090&#45;&gt;x1 -->
<g id="edge6" class="edge">
<title>17359a090&#45;&gt;x1</title>
<path fill="none" stroke="black" d="M199.94,-107.66C197.92,-96.01 195.19,-80.3 192.85,-66.77"/>
<polygon fill="black" stroke="black" points="196.33,-66.35 191.17,-57.09 189.43,-67.54 196.33,-66.35"/>
<text text-anchor="middle" x="207.9" y="-76.45" font-family="Times,serif" font-size="14.00">0.01</text>
</g>
<!-- x6 -->
<g id="node8" class="node">
<title>x6</title>
<ellipse fill="none" stroke="black" cx="259.9" cy="-37.25" rx="27" ry="18"/>
<text text-anchor="middle" x="259.9" y="-32.2" font-family="Times,serif" font-size="14.00">x6</text>
</g>
<!-- 17359a090&#45;&gt;x6 -->
<g id="edge7" class="edge">
<title>17359a090&#45;&gt;x6</title>
<path fill="none" stroke="black" d="M213.36,-108.88C221.66,-96.28 233.44,-78.41 243.07,-63.8"/>
<polygon fill="black" stroke="black" points="245.91,-65.85 248.49,-55.57 240.06,-62 245.91,-65.85"/>
<text text-anchor="middle" x="247.9" y="-76.45" font-family="Times,serif" font-size="14.00">8.16</text>
</g>
</g>
</svg>