<?xml version="1.0" encoding="UTF-8" standalone="no"?>
<!DOCTYPE svg PUBLIC "-//W3C//DTD SVG 1.1//EN"
 "http://www.w3.org/Graphics/SVG/1.1/DTD/svg11.dtd">
<!-- Generated by graphviz version 12.0.0 (0)
 -->
<!-- Title: G Pages: 1 -->
<svg width="791pt" height="620pt"
 viewBox="0.00 0.00 790.84 620.00" xmlns="http://www.w3.org/2000/svg" xmlns:xlink="http://www.w3.org/1999/xlink">
<g id="graph0" class="graph" transform="scale(1 1) rotate(0) translate(4 616)">
<title>G</title>
<polygon fill="white" stroke="none" points="-4,4 -4,-616 786.84,-616 786.84,4 -4,4"/>
<!-- 146bf4320 -->
<g id="node1" class="node">
<title>146bf4320</title>
<ellipse fill="lightcoral" stroke="black" cx="348.34" cy="-594" rx="41.12" ry="18"/>
<text text-anchor="middle" x="348.34" y="-588.95" font-family="Times,serif" font-size="14.00">Logistic</text>
</g>
<!-- 15176af20 -->
<g id="node2" class="node">
<title>15176af20</title>
<ellipse fill="lightcoral" stroke="black" cx="348.34" cy="-522" rx="27" ry="18"/>
<text text-anchor="middle" x="348.34" y="-516.95" font-family="Times,serif" font-size="14.00">Add</text>
</g>
<!-- 146bf4320&#45;&gt;15176af20 -->
<g id="edge1" class="edge">
<title>146bf4320&#45;&gt;15176af20</title>
<path fill="none" stroke="black" d="M348.34,-575.7C348.34,-568.41 348.34,-559.73 348.34,-551.54"/>
<polygon fill="black" stroke="black" points="351.84,-551.62 348.34,-541.62 344.84,-551.62 351.84,-551.62"/>
</g>
<!-- 146b21330 -->
<g id="node3" class="node">
<title>146b21330</title>
<ellipse fill="none" stroke="black" cx="287.34" cy="-450" rx="76.94" ry="18"/>
<text text-anchor="middle" x="287.34" y="-444.95" font-family="Times,serif" font-size="14.00">AIDS&gt;15890.50?</text>
</g>
<!-- 15176af20&#45;&gt;146b21330 -->
<g id="edge2" class="edge">
<title>15176af20&#45;&gt;146b21330</title>
<path fill="none" stroke="black" d="M335.1,-505.81C327.7,-497.31 318.27,-486.49 309.75,-476.72"/>
<polygon fill="black" stroke="black" points="312.46,-474.51 303.25,-469.27 307.19,-479.11 312.46,-474.51"/>
</g>
<!-- 15176af20Offset -->
<g id="node4" class="node">
<title>15176af20Offset</title>
<ellipse fill="lightcoral" stroke="black" cx="409.34" cy="-450" rx="27.3" ry="18"/>
<text text-anchor="middle" x="409.34" y="-444.95" font-family="Times,serif" font-size="14.00">0.35</text>
</g>
<!-- 15176af20&#45;&gt;15176af20Offset -->
<g id="edge3" class="edge">
<title>15176af20&#45;&gt;15176af20Offset</title>
<path fill="none" stroke="black" d="M361.57,-505.81C369.49,-496.73 379.71,-485 388.67,-474.72"/>
<polygon fill="black" stroke="black" points="391.2,-477.14 395.13,-467.3 385.92,-472.54 391.2,-477.14"/>
</g>
<!-- 1469faf60 -->
<g id="node5" class="node">
<title>1469faf60</title>
<ellipse fill="none" stroke="black" cx="220.34" cy="-378" rx="31.9" ry="18"/>
<text text-anchor="middle" x="220.34" y="-372.95" font-family="Times,serif" font-size="14.00">15.16</text>
</g>
<!-- 146b21330&#45;&gt;1469faf60 -->
<g id="edge4" class="edge">
<title>146b21330&#45;&gt;1469faf60</title>
<path fill="none" stroke="black" d="M271.12,-432.05C262.61,-423.17 252.06,-412.14 242.78,-402.45"/>
<polygon fill="black" stroke="black" points="245.52,-400.25 236.08,-395.45 240.47,-405.09 245.52,-400.25"/>
<text text-anchor="middle" x="266.24" y="-418.75" font-family="Times,serif" font-size="14.00">Y</text>
</g>
<!-- 1469c37c0 -->
<g id="node6" class="node">
<title>1469c37c0</title>
<ellipse fill="none" stroke="black" cx="354.34" cy="-378" rx="84.11" ry="18"/>
<text text-anchor="middle" x="354.34" y="-372.95" font-family="Times,serif" font-size="14.00">Total&gt;1572255.50?</text>
</g>
<!-- 146b21330&#45;&gt;1469c37c0 -->
<g id="edge5" class="edge">
<title>146b21330&#45;&gt;1469c37c0</title>
<path fill="none" stroke="black" d="M303.55,-432.05C311.62,-423.63 321.52,-413.28 330.44,-403.97"/>
<polygon fill="black" stroke="black" points="332.83,-406.53 337.22,-396.88 327.78,-401.69 332.83,-406.53"/>
<text text-anchor="middle" x="298.68" y="-418.75" font-family="Times,serif" font-size="14.00">N</text>
</g>
<!-- 14693df50 -->
<g id="node7" class="node">
<title>14693df50</title>
<ellipse fill="none" stroke="black" cx="275.34" cy="-306" rx="72.34" ry="18"/>
<text text-anchor="middle" x="275.34" y="-300.95" font-family="Times,serif" font-size="14.00">AIDS&gt;2320.50?</text>
</g>
<!-- 1469c37c0&#45;&gt;14693df50 -->
<g id="edge6" class="edge">
<title>1469c37c0&#45;&gt;14693df50</title>
<path fill="none" stroke="black" d="M335.21,-360.05C325.51,-351.46 313.55,-340.86 302.87,-331.4"/>
<polygon fill="black" stroke="black" points="305.22,-328.81 295.42,-324.79 300.58,-334.04 305.22,-328.81"/>
<text text-anchor="middle" x="330.34" y="-346.75" font-family="Times,serif" font-size="14.00">Y</text>
</g>
<!-- 318c0b8f0 -->
<g id="node8" class="node">
<title>318c0b8f0</title>
<ellipse fill="none" stroke="black" cx="433.34" cy="-306" rx="67.73" ry="18"/>
<text text-anchor="middle" x="433.34" y="-300.95" font-family="Times,serif" font-size="14.00">AIDS&gt;123.00?</text>
</g>
<!-- 1469c37c0&#45;&gt;318c0b8f0 -->
<g id="edge7" class="edge">
<title>1469c37c0&#45;&gt;318c0b8f0</title>
<path fill="none" stroke="black" d="M373.46,-360.05C383.33,-351.31 395.54,-340.49 406.36,-330.9"/>
<polygon fill="black" stroke="black" points="408.36,-333.8 413.53,-324.55 403.72,-328.56 408.36,-333.8"/>
<text text-anchor="middle" x="368.58" y="-346.75" font-family="Times,serif" font-size="14.00">N</text>
</g>
<!-- 14699b840 -->
<g id="node9" class="node">
<title>14699b840</title>
<ellipse fill="none" stroke="black" cx="197.34" cy="-234" rx="52.38" ry="18"/>
<text text-anchor="middle" x="197.34" y="-228.95" font-family="Times,serif" font-size="14.00">Age&gt;0.00?</text>
</g>
<!-- 14693df50&#45;&gt;14699b840 -->
<g id="edge8" class="edge">
<title>14693df50&#45;&gt;14699b840</title>
<path fill="none" stroke="black" d="M256.85,-288.41C246.97,-279.54 234.63,-268.47 223.75,-258.71"/>
<polygon fill="black" stroke="black" points="226.33,-256.31 216.55,-252.24 221.65,-261.52 226.33,-256.31"/>
<text text-anchor="middle" x="251.98" y="-275.11" font-family="Times,serif" font-size="14.00">Y</text>
</g>
<!-- Total -->
<g id="node10" class="node">
<title>Total</title>
<ellipse fill="none" stroke="black" cx="595.34" cy="-18" rx="30.37" ry="18"/>
<text text-anchor="middle" x="595.34" y="-12.95" font-family="Times,serif" font-size="14.00">Total</text>
</g>
<!-- 14693df50&#45;&gt;Total -->
<g id="edge9" class="edge">
<title>14693df50&#45;&gt;Total</title>
<path fill="none" stroke="black" d="M272.19,-287.73C265.36,-244.13 254.37,-129.01 316.34,-72 350.38,-40.68 484.41,-26.8 553.56,-21.62"/>
<polygon fill="black" stroke="black" points="553.65,-25.12 563.37,-20.91 553.15,-18.14 553.65,-25.12"/>
<text text-anchor="middle" x="267.32" y="-274.43" font-family="Times,serif" font-size="14.00">N</text>
</g>
<!-- 318c09e20 -->
<g id="node17" class="node">
<title>318c09e20</title>
<ellipse fill="none" stroke="black" cx="431.34" cy="-234" rx="72.34" ry="18"/>
<text text-anchor="middle" x="431.34" y="-228.95" font-family="Times,serif" font-size="14.00">AIDS&gt;1653.50?</text>
</g>
<!-- 318c0b8f0&#45;&gt;318c09e20 -->
<g id="edge16" class="edge">
<title>318c0b8f0&#45;&gt;318c09e20</title>
<path fill="none" stroke="black" d="M432.84,-287.7C432.63,-280.41 432.38,-271.73 432.15,-263.54"/>
<polygon fill="black" stroke="black" points="435.65,-263.51 431.87,-253.62 428.65,-263.71 435.65,-263.51"/>
<text text-anchor="middle" x="427.97" y="-274.4" font-family="Times,serif" font-size="14.00">Y</text>
</g>
<!-- 318c09300 -->
<g id="node18" class="node">
<title>318c09300</title>
<ellipse fill="none" stroke="black" cx="584.34" cy="-234" rx="63.12" ry="18"/>
<text text-anchor="middle" x="584.34" y="-228.95" font-family="Times,serif" font-size="14.00">AIDS&gt;51.50?</text>
</g>
<!-- 318c0b8f0&#45;&gt;318c09300 -->
<g id="edge17" class="edge">
<title>318c0b8f0&#45;&gt;318c09300</title>
<path fill="none" stroke="black" d="M466.1,-289.81C488.31,-279.51 517.89,-265.8 541.9,-254.67"/>
<polygon fill="black" stroke="black" points="543.18,-257.94 550.78,-250.56 540.24,-251.59 543.18,-257.94"/>
<text text-anchor="middle" x="461.23" y="-276.51" font-family="Times,serif" font-size="14.00">N</text>
</g>
<!-- 14691dae0 -->
<g id="node11" class="node">
<title>14691dae0</title>
<ellipse fill="none" stroke="black" cx="95.34" cy="-162" rx="31.9" ry="18"/>
<text text-anchor="middle" x="95.34" y="-156.95" font-family="Times,serif" font-size="14.00">13.24</text>
</g>
<!-- 14699b840&#45;&gt;14691dae0 -->
<g id="edge10" class="edge">
<title>14699b840&#45;&gt;14691dae0</title>
<path fill="none" stroke="black" d="M174.7,-217.46C159.92,-207.32 140.49,-193.99 124.55,-183.05"/>
<polygon fill="black" stroke="black" points="126.63,-180.23 116.4,-177.46 122.67,-186 126.63,-180.23"/>
<text text-anchor="middle" x="172.26" y="-204.16" font-family="Times,serif" font-size="14.00">Y</text>
</g>
<!-- 14691b040 -->
<g id="node12" class="node">
<title>14691b040</title>
<ellipse fill="none" stroke="black" cx="197.34" cy="-162" rx="52.38" ry="18"/>
<text text-anchor="middle" x="197.34" y="-156.95" font-family="Times,serif" font-size="14.00">Age&gt;4.00?</text>
</g>
<!-- 14699b840&#45;&gt;14691b040 -->
<g id="edge11" class="edge">
<title>14699b840&#45;&gt;14691b040</title>
<path fill="none" stroke="black" d="M197.34,-215.7C197.34,-208.41 197.34,-199.73 197.34,-191.54"/>
<polygon fill="black" stroke="black" points="200.84,-191.62 197.34,-181.62 193.84,-191.62 200.84,-191.62"/>
<text text-anchor="middle" x="192.46" y="-202.4" font-family="Times,serif" font-size="14.00">N</text>
</g>
<!-- 157b8f8b0 -->
<g id="node13" class="node">
<title>157b8f8b0</title>
<ellipse fill="none" stroke="black" cx="72.34" cy="-90" rx="72.34" ry="18"/>
<text text-anchor="middle" x="72.34" y="-84.95" font-family="Times,serif" font-size="14.00">AIDS&gt;3604.00?</text>
</g>
<!-- 14691b040&#45;&gt;157b8f8b0 -->
<g id="edge12" class="edge">
<title>14691b040&#45;&gt;157b8f8b0</title>
<path fill="none" stroke="black" d="M170.83,-146.15C153.25,-136.31 129.91,-123.24 110.37,-112.3"/>
<polygon fill="black" stroke="black" points="112.3,-109.37 101.86,-107.54 108.88,-115.48 112.3,-109.37"/>
<text text-anchor="middle" x="173.26" y="-132.85" font-family="Times,serif" font-size="14.00">Y</text>
</g>
<!-- 16c030a30 -->
<g id="node14" class="node">
<title>16c030a30</title>
<ellipse fill="none" stroke="black" cx="203.34" cy="-90" rx="41.12" ry="18"/>
<text text-anchor="middle" x="203.34" y="-84.95" font-family="Times,serif" font-size="14.00">3604.00</text>
</g>
<!-- 14691b040&#45;&gt;16c030a30 -->
<g id="edge13" class="edge">
<title>14691b040&#45;&gt;16c030a30</title>
<path fill="none" stroke="black" d="M198.82,-143.7C199.44,-136.41 200.19,-127.73 200.89,-119.54"/>
<polygon fill="black" stroke="black" points="204.37,-119.87 201.74,-109.61 197.4,-119.28 204.37,-119.87"/>
<text text-anchor="middle" x="193.94" y="-130.4" font-family="Times,serif" font-size="14.00">N</text>
</g>
<!-- 157b8dee0 -->
<g id="node15" class="node">
<title>157b8dee0</title>
<ellipse fill="none" stroke="black" cx="32.34" cy="-18" rx="31.9" ry="18"/>
<text text-anchor="middle" x="32.34" y="-12.95" font-family="Times,serif" font-size="14.00">14.72</text>
</g>
<!-- 157b8f8b0&#45;&gt;157b8dee0 -->
<g id="edge14" class="edge">
<title>157b8f8b0&#45;&gt;157b8dee0</title>
<path fill="none" stroke="black" d="M62.45,-71.7C57.93,-63.78 52.47,-54.23 47.44,-45.44"/>
<polygon fill="black" stroke="black" points="50.59,-43.88 42.58,-36.94 44.51,-47.36 50.59,-43.88"/>
<text text-anchor="middle" x="57.57" y="-58.4" font-family="Times,serif" font-size="14.00">Y</text>
</g>
<!-- 16c03c6b0 -->
<g id="node16" class="node">
<title>16c03c6b0</title>
<ellipse fill="none" stroke="black" cx="112.34" cy="-18" rx="30.37" ry="18"/>
<text text-anchor="middle" x="112.34" y="-12.95" font-family="Times,serif" font-size="14.00">&#45;7.84</text>
</g>
<!-- 157b8f8b0&#45;&gt;16c03c6b0 -->
<g id="edge15" class="edge">
<title>157b8f8b0&#45;&gt;16c03c6b0</title>
<path fill="none" stroke="black" d="M82.22,-71.7C86.81,-63.67 92.37,-53.95 97.45,-45.05"/>
<polygon fill="black" stroke="black" points="100.44,-46.88 102.36,-36.46 94.36,-43.4 100.44,-46.88"/>
<text text-anchor="middle" x="77.35" y="-58.4" font-family="Times,serif" font-size="14.00">N</text>
</g>
<!-- 318c04dd0 -->
<g id="node19" class="node">
<title>318c04dd0</title>
<ellipse fill="none" stroke="black" cx="377.34" cy="-162" rx="72.34" ry="18"/>
<text text-anchor="middle" x="377.34" y="-156.95" font-family="Times,serif" font-size="14.00">AIDS&gt;6597.50?</text>
</g>
<!-- 318c09e20&#45;&gt;318c04dd0 -->
<g id="edge18" class="edge">
<title>318c09e20&#45;&gt;318c04dd0</title>
<path fill="none" stroke="black" d="M418.26,-216.05C411.96,-207.89 404.27,-197.91 397.26,-188.82"/>
<polygon fill="black" stroke="black" points="400.09,-186.77 391.21,-180.99 394.55,-191.04 400.09,-186.77"/>
<text text-anchor="middle" x="413.39" y="-202.75" font-family="Times,serif" font-size="14.00">Y</text>
</g>
<!-- 318c141c0 -->
<g id="node20" class="node">
<title>318c141c0</title>
<ellipse fill="none" stroke="black" cx="495.34" cy="-162" rx="27.3" ry="18"/>
<text text-anchor="middle" x="495.34" y="-156.95" font-family="Times,serif" font-size="14.00">9.78</text>
</g>
<!-- 318c09e20&#45;&gt;318c141c0 -->
<g id="edge19" class="edge">
<title>318c09e20&#45;&gt;318c141c0</title>
<path fill="none" stroke="black" d="M446.83,-216.05C454.99,-207.13 465.11,-196.06 474,-186.33"/>
<polygon fill="black" stroke="black" points="476.54,-188.75 480.7,-179.01 471.37,-184.02 476.54,-188.75"/>
<text text-anchor="middle" x="441.95" y="-202.75" font-family="Times,serif" font-size="14.00">N</text>
</g>
<!-- 318c172f0 -->
<g id="node23" class="node">
<title>318c172f0</title>
<ellipse fill="none" stroke="black" cx="581.34" cy="-162" rx="41.12" ry="18"/>
<text text-anchor="middle" x="581.34" y="-156.95" font-family="Times,serif" font-size="14.00">2320.50</text>
</g>
<!-- 318c09300&#45;&gt;318c172f0 -->
<g id="edge22" class="edge">
<title>318c09300&#45;&gt;318c172f0</title>
<path fill="none" stroke="black" d="M583.59,-215.7C583.28,-208.41 582.91,-199.73 582.56,-191.54"/>
<polygon fill="black" stroke="black" points="586.06,-191.46 582.13,-181.62 579.06,-191.76 586.06,-191.46"/>
<text text-anchor="middle" x="578.72" y="-202.4" font-family="Times,serif" font-size="14.00">Y</text>
</g>
<!-- 318c0d250 -->
<g id="node24" class="node">
<title>318c0d250</title>
<ellipse fill="none" stroke="black" cx="703.34" cy="-162" rx="63.12" ry="18"/>
<text text-anchor="middle" x="703.34" y="-156.95" font-family="Times,serif" font-size="14.00">AIDS&gt;20.00?</text>
</g>
<!-- 318c09300&#45;&gt;318c0d250 -->
<g id="edge23" class="edge">
<title>318c09300&#45;&gt;318c0d250</title>
<path fill="none" stroke="black" d="M611.04,-217.29C627.5,-207.61 648.83,-195.06 666.84,-184.47"/>
<polygon fill="black" stroke="black" points="668.57,-187.51 675.41,-179.42 665.02,-181.48 668.57,-187.51"/>
<text text-anchor="middle" x="606.17" y="-203.99" font-family="Times,serif" font-size="14.00">N</text>
</g>
<!-- 318c066d0 -->
<g id="node21" class="node">
<title>318c066d0</title>
<ellipse fill="none" stroke="black" cx="357.34" cy="-90" rx="31.9" ry="18"/>
<text text-anchor="middle" x="357.34" y="-84.95" font-family="Times,serif" font-size="14.00">15.89</text>
</g>
<!-- 318c04dd0&#45;&gt;318c066d0 -->
<g id="edge20" class="edge">
<title>318c04dd0&#45;&gt;318c066d0</title>
<path fill="none" stroke="black" d="M372.39,-143.7C370.26,-136.24 367.71,-127.32 365.33,-118.97"/>
<polygon fill="black" stroke="black" points="368.75,-118.21 362.64,-109.56 362.02,-120.14 368.75,-118.21"/>
<text text-anchor="middle" x="367.52" y="-130.4" font-family="Times,serif" font-size="14.00">Y</text>
</g>
<!-- 318c04c70 -->
<g id="node22" class="node">
<title>318c04c70</title>
<ellipse fill="none" stroke="black" cx="437.34" cy="-90" rx="30.37" ry="18"/>
<text text-anchor="middle" x="437.34" y="-84.95" font-family="Times,serif" font-size="14.00">&#45;7.42</text>
</g>
<!-- 318c04dd0&#45;&gt;318c04c70 -->
<g id="edge21" class="edge">
<title>318c04dd0&#45;&gt;318c04c70</title>
<path fill="none" stroke="black" d="M391.86,-144.05C399.32,-135.35 408.55,-124.59 416.73,-115.03"/>
<polygon fill="black" stroke="black" points="419.34,-117.38 423.19,-107.51 414.02,-112.82 419.34,-117.38"/>
<text text-anchor="middle" x="386.98" y="-130.75" font-family="Times,serif" font-size="14.00">N</text>
</g>
<!-- 318c0d250&#45;&gt;Total -->
<g id="edge25" class="edge">
<title>318c0d250&#45;&gt;Total</title>
<path fill="none" stroke="black" d="M665.77,-147.08C647.59,-138.49 627.01,-125.68 614.34,-108 601.8,-90.51 597.22,-66.45 595.69,-47.75"/>
<polygon fill="black" stroke="black" points="599.19,-47.67 595.15,-37.87 592.2,-48.05 599.19,-47.67"/>
<text text-anchor="middle" x="663.33" y="-133.78" font-family="Times,serif" font-size="14.00">N</text>
</g>
<!-- 318c0a7c0 -->
<g id="node25" class="node">
<title>318c0a7c0</title>
<ellipse fill="none" stroke="black" cx="703.34" cy="-90" rx="79.5" ry="18"/>
<text text-anchor="middle" x="703.34" y="-84.95" font-family="Times,serif" font-size="14.00">Total&gt;168995.50?</text>
</g>
<!-- 318c0d250&#45;&gt;318c0a7c0 -->
<g id="edge24" class="edge">
<title>318c0d250&#45;&gt;318c0a7c0</title>
<path fill="none" stroke="black" d="M703.34,-143.7C703.34,-136.41 703.34,-127.73 703.34,-119.54"/>
<polygon fill="black" stroke="black" points="706.84,-119.62 703.34,-109.62 699.84,-119.62 706.84,-119.62"/>
<text text-anchor="middle" x="698.46" y="-130.4" font-family="Times,serif" font-size="14.00">Y</text>
</g>
<!-- 318c0a7c0&#45;&gt;Total -->
<g id="edge27" class="edge">
<title>318c0a7c0&#45;&gt;Total</title>
<path fill="none" stroke="black" d="M678.01,-72.59C661.96,-62.18 641.15,-48.69 624.42,-37.85"/>
<polygon fill="black" stroke="black" points="626.67,-35.14 616.38,-32.64 622.87,-41.01 626.67,-35.14"/>
<text text-anchor="middle" x="673.14" y="-59.29" font-family="Times,serif" font-size="14.00">N</text>
</g>
<!-- 318c0a2f0 -->
<g id="node26" class="node">
<title>318c0a2f0</title>
<ellipse fill="none" stroke="black" cx="703.34" cy="-18" rx="31.9" ry="18"/>
<text text-anchor="middle" x="703.34" y="-12.95" font-family="Times,serif" font-size="14.00">14.60</text>
</g>
<!-- 318c0a7c0&#45;&gt;318c0a2f0 -->
<g id="edge26" class="edge">
<title>318c0a7c0&#45;&gt;318c0a2f0</title>
<path fill="none" stroke="black" d="M703.34,-71.7C703.34,-64.41 703.34,-55.73 703.34,-47.54"/>
<polygon fill="black" stroke="black" points="706.84,-47.62 703.34,-37.62 699.84,-47.62 706.84,-47.62"/>
<text text-anchor="middle" x="698.46" y="-58.4" font-family="Times,serif" font-size="14.00">Y</text>
</g>
</g>
</svg>