<?xml version="1.0" encoding="UTF-8" standalone="no"?>
<!DOCTYPE svg PUBLIC "-//W3C//DTD SVG 1.1//EN"
 "http://www.w3.org/Graphics/SVG/1.1/DTD/svg11.dtd">
<!-- Generated by graphviz version 12.0.0 (0)
 -->
<!-- Title: G Pages: 1 -->
<svg width="880pt" height="386pt"
 viewBox="0.00 0.00 880.27 386.00" xmlns="http://www.w3.org/2000/svg" xmlns:xlink="http://www.w3.org/1999/xlink">
<g id="graph0" class="graph" transform="scale(1 1) rotate(0) translate(4 382)">
<title>G</title>
<polygon fill="white" stroke="none" points="-4,4 -4,-382 876.27,-382 876.27,4 -4,4"/>
<!-- 15081d5e0 -->
<g id="node1" class="node">
<title>15081d5e0</title>
<ellipse fill="none" stroke="black" cx="27" cy="-112" rx="27" ry="18"/>
<text text-anchor="middle" x="27" y="-106.95" font-family="Times,serif" font-size="14.00">Add</text>
</g>
<!-- 1510298a0 -->
<g id="node2" class="node">
<title>1510298a0</title>
<ellipse fill="none" stroke="black" cx="137.23" cy="-139" rx="31.9" ry="18"/>
<text text-anchor="middle" x="137.23" y="-133.95" font-family="Times,serif" font-size="14.00">12.42</text>
</g>
<!-- 15081d5e0&#45;&gt;1510298a0 -->
<g id="edge1" class="edge">
<title>15081d5e0&#45;&gt;1510298a0</title>
<path fill="none" stroke="black" d="M52.83,-118.19C65.86,-121.44 82.13,-125.5 96.84,-129.17"/>
<polygon fill="black" stroke="black" points="95.68,-132.49 106.22,-131.51 97.37,-125.7 95.68,-132.49"/>
</g>
<!-- 1508d3250 -->
<g id="node3" class="node">
<title>1508d3250</title>
<ellipse fill="none" stroke="black" cx="137.23" cy="-85" rx="46.23" ry="18"/>
<text text-anchor="middle" x="137.23" y="-79.95" font-family="Times,serif" font-size="14.00">x0&gt;0.75?</text>
</g>
<!-- 15081d5e0&#45;&gt;1508d3250 -->
<g id="edge2" class="edge">
<title>15081d5e0&#45;&gt;1508d3250</title>
<path fill="none" stroke="black" d="M52.83,-105.81C62.86,-103.3 74.8,-100.32 86.48,-97.41"/>
<polygon fill="black" stroke="black" points="87.19,-100.84 96.05,-95.03 85.5,-94.05 87.19,-100.84"/>
</g>
<!-- 146de38e0 -->
<g id="node4" class="node">
<title>146de38e0</title>
<ellipse fill="none" stroke="black" cx="247.47" cy="-149" rx="27" ry="18"/>
<text text-anchor="middle" x="247.47" y="-143.95" font-family="Times,serif" font-size="14.00">Mul</text>
</g>
<!-- 1508d3250&#45;&gt;146de38e0 -->
<g id="edge3" class="edge">
<title>1508d3250&#45;&gt;146de38e0</title>
<path fill="none" stroke="black" d="M163.88,-100.17C179.72,-109.53 200.11,-121.59 216.67,-131.38"/>
<polygon fill="black" stroke="black" points="214.72,-134.29 225.11,-136.37 218.28,-128.27 214.72,-134.29"/>
<text text-anchor="middle" x="159.01" y="-103.37" font-family="Times,serif" font-size="14.00">Y</text>
</g>
<!-- 1507536d0 -->
<g id="node5" class="node">
<title>1507536d0</title>
<ellipse fill="none" stroke="black" cx="361.47" cy="-53" rx="27" ry="18"/>
<text text-anchor="middle" x="361.47" y="-47.95" font-family="Times,serif" font-size="14.00">Add</text>
</g>
<!-- 1508d3250&#45;&gt;1507536d0 -->
<g id="edge4" class="edge">
<title>1508d3250&#45;&gt;1507536d0</title>
<path fill="none" stroke="black" d="M181.08,-78.83C222.44,-72.88 284.38,-63.96 323.59,-58.31"/>
<polygon fill="black" stroke="black" points="323.85,-61.81 333.24,-56.92 322.85,-54.88 323.85,-61.81"/>
<text text-anchor="middle" x="185.96" y="-65.53" font-family="Times,serif" font-size="14.00">N</text>
</g>
<!-- 146ded660 -->
<g id="node6" class="node">
<title>146ded660</title>
<ellipse fill="none" stroke="black" cx="361.47" cy="-218" rx="27" ry="18"/>
<text text-anchor="middle" x="361.47" y="-212.95" font-family="Times,serif" font-size="14.00">Add</text>
</g>
<!-- 146de38e0&#45;&gt;146ded660 -->
<g id="edge5" class="edge">
<title>146de38e0&#45;&gt;146ded660</title>
<path fill="none" stroke="black" d="M267.98,-161.02C285.45,-171.79 311.33,-187.73 331.28,-200.02"/>
<polygon fill="black" stroke="black" points="329.17,-202.83 339.52,-205.09 332.84,-196.87 329.17,-202.83"/>
</g>
<!-- 150766fa0 -->
<g id="node7" class="node">
<title>150766fa0</title>
<ellipse fill="none" stroke="black" cx="361.47" cy="-149" rx="27" ry="18"/>
<text text-anchor="middle" x="361.47" y="-143.95" font-family="Times,serif" font-size="14.00">Add</text>
</g>
<!-- 146de38e0&#45;&gt;150766fa0 -->
<g id="edge6" class="edge">
<title>146de38e0&#45;&gt;150766fa0</title>
<path fill="none" stroke="black" d="M274.73,-149C288.95,-149 306.77,-149 322.48,-149"/>
<polygon fill="black" stroke="black" points="322.47,-152.5 332.47,-149 322.47,-145.5 322.47,-152.5"/>
<text text-anchor="middle" x="304.47" y="-152.2" font-family="Times,serif" font-size="14.00">0.82</text>
</g>
<!-- x6 -->
<g id="node14" class="node">
<title>x6</title>
<ellipse fill="none" stroke="black" cx="845.27" cy="-211" rx="27" ry="18"/>
<text text-anchor="middle" x="845.27" y="-205.95" font-family="Times,serif" font-size="14.00">x6</text>
</g>
<!-- 1507536d0&#45;&gt;x6 -->
<g id="edge21" class="edge">
<title>1507536d0&#45;&gt;x6</title>
<path fill="none" stroke="black" d="M379.51,-39.07C400.51,-23.37 437.9,0 474.47,0 474.47,0 474.47,0 727.77,0 809.62,0 834.4,-123.16 841.54,-181.29"/>
<polygon fill="black" stroke="black" points="838.06,-181.59 842.65,-191.14 845.01,-180.81 838.06,-181.59"/>
<text text-anchor="middle" x="594.37" y="-3.2" font-family="Times,serif" font-size="14.00">10.58</text>
</g>
<!-- 150771ef0 -->
<g id="node19" class="node">
<title>150771ef0</title>
<ellipse fill="none" stroke="black" cx="475.47" cy="-53" rx="27" ry="18"/>
<text text-anchor="middle" x="475.47" y="-47.95" font-family="Times,serif" font-size="14.00">Exp</text>
</g>
<!-- 1507536d0&#45;&gt;150771ef0 -->
<g id="edge20" class="edge">
<title>1507536d0&#45;&gt;150771ef0</title>
<path fill="none" stroke="black" d="M388.73,-53C402.95,-53 420.77,-53 436.48,-53"/>
<polygon fill="black" stroke="black" points="436.47,-56.5 446.47,-53 436.47,-49.5 436.47,-56.5"/>
<text text-anchor="middle" x="418.47" y="-56.2" font-family="Times,serif" font-size="14.00">0.76</text>
</g>
<!-- 146d919c0 -->
<g id="node8" class="node">
<title>146d919c0</title>
<ellipse fill="none" stroke="black" cx="475.47" cy="-280" rx="27" ry="18"/>
<text text-anchor="middle" x="475.47" y="-274.95" font-family="Times,serif" font-size="14.00">Cos</text>
</g>
<!-- 146ded660&#45;&gt;146d919c0 -->
<g id="edge7" class="edge">
<title>146ded660&#45;&gt;146d919c0</title>
<path fill="none" stroke="black" d="M383.01,-229.37C400.14,-238.85 424.79,-252.5 444.18,-263.23"/>
<polygon fill="black" stroke="black" points="442.29,-266.19 452.73,-267.97 445.68,-260.06 442.29,-266.19"/>
<text text-anchor="middle" x="418.47" y="-257.2" font-family="Times,serif" font-size="14.00">9.11</text>
</g>
<!-- 1507a7200 -->
<g id="node9" class="node">
<title>1507a7200</title>
<ellipse fill="none" stroke="black" cx="475.47" cy="-218" rx="27" ry="18"/>
<text text-anchor="middle" x="475.47" y="-212.95" font-family="Times,serif" font-size="14.00">Add</text>
</g>
<!-- 146ded660&#45;&gt;1507a7200 -->
<g id="edge8" class="edge">
<title>146ded660&#45;&gt;1507a7200</title>
<path fill="none" stroke="black" d="M388.73,-218C402.95,-218 420.77,-218 436.48,-218"/>
<polygon fill="black" stroke="black" points="436.47,-221.5 446.47,-218 436.47,-214.5 436.47,-221.5"/>
</g>
<!-- 150766fa0&#45;&gt;x6 -->
<g id="edge17" class="edge">
<title>150766fa0&#45;&gt;x6</title>
<path fill="none" stroke="black" d="M388.18,-153.33C410.83,-156.77 444.74,-161 474.47,-161 474.47,-161 474.47,-161 727.77,-161 760.22,-161 793.93,-177.58 816.69,-191.65"/>
<polygon fill="black" stroke="black" points="814.76,-194.57 825.06,-197.04 818.55,-188.68 814.76,-194.57"/>
<text text-anchor="middle" x="594.37" y="-164.2" font-family="Times,serif" font-size="14.00">&#45;0.49</text>
</g>
<!-- 15073dc40 -->
<g id="node16" class="node">
<title>15073dc40</title>
<ellipse fill="none" stroke="black" cx="475.47" cy="-111" rx="27" ry="18"/>
<text text-anchor="middle" x="475.47" y="-105.95" font-family="Times,serif" font-size="14.00">Exp</text>
</g>
<!-- 150766fa0&#45;&gt;15073dc40 -->
<g id="edge16" class="edge">
<title>150766fa0&#45;&gt;15073dc40</title>
<path fill="none" stroke="black" d="M384.65,-139.07C391.57,-136.13 399.28,-133.03 406.47,-130.5 416.85,-126.84 428.29,-123.36 438.78,-120.37"/>
<polygon fill="black" stroke="black" points="439.54,-123.8 448.24,-117.75 437.66,-117.05 439.54,-123.8"/>
<text text-anchor="middle" x="418.47" y="-133.2" font-family="Times,serif" font-size="14.00">1.46</text>
</g>
<!-- 146d40a70 -->
<g id="node10" class="node">
<title>146d40a70</title>
<ellipse fill="none" stroke="black" cx="594.37" cy="-306" rx="27" ry="18"/>
<text text-anchor="middle" x="594.37" y="-300.95" font-family="Times,serif" font-size="14.00">Add</text>
</g>
<!-- 146d919c0&#45;&gt;146d40a70 -->
<g id="edge9" class="edge">
<title>146d919c0&#45;&gt;146d40a70</title>
<path fill="none" stroke="black" d="M501.55,-285.58C517.8,-289.19 539.24,-293.96 557.31,-297.98"/>
<polygon fill="black" stroke="black" points="556.33,-301.35 566.85,-300.1 557.85,-294.52 556.33,-301.35"/>
</g>
<!-- 1507a7200&#45;&gt;x6 -->
<g id="edge14" class="edge">
<title>1507a7200&#45;&gt;x6</title>
<path fill="none" stroke="black" d="M499.85,-226.07C516.96,-231.52 540.85,-238.22 562.47,-241 650.89,-252.39 755.33,-232.62 808.81,-220.1"/>
<polygon fill="black" stroke="black" points="809.35,-223.57 818.26,-217.83 807.72,-216.76 809.35,-223.57"/>
<text text-anchor="middle" x="663.02" y="-246.2" font-family="Times,serif" font-size="14.00">24.26</text>
</g>
<!-- 1507093c0 -->
<g id="node15" class="node">
<title>1507093c0</title>
<ellipse fill="none" stroke="black" cx="594.37" cy="-214" rx="31.9" ry="18"/>
<text text-anchor="middle" x="594.37" y="-208.95" font-family="Times,serif" font-size="14.00">13.51</text>
</g>
<!-- 1507a7200&#45;&gt;1507093c0 -->
<g id="edge15" class="edge">
<title>1507a7200&#45;&gt;1507093c0</title>
<path fill="none" stroke="black" d="M502.7,-217.1C516.89,-216.62 534.77,-216 550.89,-215.45"/>
<polygon fill="black" stroke="black" points="550.86,-218.96 560.73,-215.12 550.62,-211.96 550.86,-218.96"/>
</g>
<!-- x1 -->
<g id="node11" class="node">
<title>x1</title>
<ellipse fill="none" stroke="black" cx="726.77" cy="-360" rx="27" ry="18"/>
<text text-anchor="middle" x="726.77" y="-354.95" font-family="Times,serif" font-size="14.00">x1</text>
</g>
<!-- 146d40a70&#45;&gt;x1 -->
<g id="edge10" class="edge">
<title>146d40a70&#45;&gt;x1</title>
<path fill="none" stroke="black" d="M617.79,-315.28C638.41,-323.82 669.25,-336.59 692.7,-346.3"/>
<polygon fill="black" stroke="black" points="691.23,-349.49 701.81,-350.08 693.91,-343.02 691.23,-349.49"/>
<text text-anchor="middle" x="663.02" y="-343.2" font-family="Times,serif" font-size="14.00">0.87</text>
</g>
<!-- 1507cd020 -->
<g id="node12" class="node">
<title>1507cd020</title>
<ellipse fill="none" stroke="black" cx="726.77" cy="-306" rx="27" ry="18"/>
<text text-anchor="middle" x="726.77" y="-300.95" font-family="Times,serif" font-size="14.00">Add</text>
</g>
<!-- 146d40a70&#45;&gt;1507cd020 -->
<g id="edge11" class="edge">
<title>146d40a70&#45;&gt;1507cd020</title>
<path fill="none" stroke="black" d="M621.76,-306C640.85,-306 666.92,-306 688.18,-306"/>
<polygon fill="black" stroke="black" points="687.91,-309.5 697.91,-306 687.91,-302.5 687.91,-309.5"/>
</g>
<!-- x3 -->
<g id="node13" class="node">
<title>x3</title>
<ellipse fill="none" stroke="black" cx="845.27" cy="-333" rx="27" ry="18"/>
<text text-anchor="middle" x="845.27" y="-327.95" font-family="Times,serif" font-size="14.00">x3</text>
</g>
<!-- 1507cd020&#45;&gt;x3 -->
<g id="edge12" class="edge">
<title>1507cd020&#45;&gt;x3</title>
<path fill="none" stroke="black" d="M752.76,-311.79C768.97,-315.55 790.33,-320.5 808.34,-324.67"/>
<polygon fill="black" stroke="black" points="807.31,-328.03 817.85,-326.88 808.9,-321.21 807.31,-328.03"/>
<text text-anchor="middle" x="786.02" y="-325.2" font-family="Times,serif" font-size="14.00">&#45;0.60</text>
</g>
<!-- 1507cd020&#45;&gt;x6 -->
<g id="edge13" class="edge">
<title>1507cd020&#45;&gt;x6</title>
<path fill="none" stroke="black" d="M751.33,-298.02C766.4,-292.14 785.77,-283.07 800.27,-271 811.49,-261.67 821.37,-248.9 828.91,-237.53"/>
<polygon fill="black" stroke="black" points="831.72,-239.64 834.1,-229.31 825.8,-235.9 831.72,-239.64"/>
<text text-anchor="middle" x="786.02" y="-291.2" font-family="Times,serif" font-size="14.00">0.17</text>
</g>
<!-- 1507d5ba0 -->
<g id="node17" class="node">
<title>1507d5ba0</title>
<ellipse fill="none" stroke="black" cx="594.37" cy="-107" rx="27" ry="18"/>
<text text-anchor="middle" x="594.37" y="-101.95" font-family="Times,serif" font-size="14.00">Sin</text>
</g>
<!-- 15073dc40&#45;&gt;1507d5ba0 -->
<g id="edge18" class="edge">
<title>15073dc40&#45;&gt;1507d5ba0</title>
<path fill="none" stroke="black" d="M502.7,-110.1C518.34,-109.57 538.46,-108.88 555.78,-108.29"/>
<polygon fill="black" stroke="black" points="555.83,-111.79 565.71,-107.95 555.6,-104.79 555.83,-111.79"/>
<text text-anchor="middle" x="532.47" y="-112.2" font-family="Times,serif" font-size="14.00">0.11</text>
</g>
<!-- x0 -->
<g id="node18" class="node">
<title>x0</title>
<ellipse fill="none" stroke="black" cx="726.77" cy="-76" rx="27" ry="18"/>
<text text-anchor="middle" x="726.77" y="-70.95" font-family="Times,serif" font-size="14.00">x0</text>
</g>
<!-- 1507d5ba0&#45;&gt;x0 -->
<g id="edge19" class="edge">
<title>1507d5ba0&#45;&gt;x0</title>
<path fill="none" stroke="black" d="M620.2,-101.1C639.96,-96.4 667.88,-89.76 690.04,-84.49"/>
<polygon fill="black" stroke="black" points="690.64,-87.95 699.56,-82.23 689.02,-81.14 690.64,-87.95"/>
<text text-anchor="middle" x="663.02" y="-98.2" font-family="Times,serif" font-size="14.00">219.51</text>
</g>
<!-- 150175c60 -->
<g id="node20" class="node">
<title>150175c60</title>
<ellipse fill="none" stroke="black" cx="594.37" cy="-53" rx="27" ry="18"/>
<text text-anchor="middle" x="594.37" y="-47.95" font-family="Times,serif" font-size="14.00">Sin</text>
</g>
<!-- 150771ef0&#45;&gt;150175c60 -->
<g id="edge22" class="edge">
<title>150771ef0&#45;&gt;150175c60</title>
<path fill="none" stroke="black" d="M502.7,-53C518.34,-53 538.46,-53 555.78,-53"/>
<polygon fill="black" stroke="black" points="555.71,-56.5 565.71,-53 555.71,-49.5 555.71,-56.5"/>
<text text-anchor="middle" x="532.47" y="-56.2" font-family="Times,serif" font-size="14.00">1.94</text>
</g>
<!-- 150175c60&#45;&gt;x0 -->
<g id="edge23" class="edge">
<title>150175c60&#45;&gt;x0</title>
<path fill="none" stroke="black" d="M621.21,-55.6C638.45,-57.54 661.58,-60.53 681.77,-64.5 684.72,-65.08 687.77,-65.74 690.81,-66.45"/>
<polygon fill="black" stroke="black" points="689.67,-69.77 700.22,-68.77 691.35,-62.97 689.67,-69.77"/>
<text text-anchor="middle" x="663.02" y="-68.2" font-family="Times,serif" font-size="14.00">218.45</text>
</g>
</g>
</svg>