<?xml version="1.0" encoding="UTF-8" standalone="no"?>
<!DOCTYPE svg PUBLIC "-//W3C//DTD SVG 1.1//EN"
 "http://www.w3.org/Graphics/SVG/1.1/DTD/svg11.dtd">
<!-- Generated by graphviz version 9.0.0 (20231125.0833)
 -->
<!-- Title: G Pages: 1 -->
<svg width="401pt" height="352pt"
 viewBox="0.00 0.00 401.10 352.25" xmlns="http://www.w3.org/2000/svg" xmlns:xlink="http://www.w3.org/1999/xlink">
<g id="graph0" class="graph" transform="scale(1 1) rotate(0) translate(4 348.25)">
<title>G</title>
<polygon fill="white" stroke="none" points="-4,4 -4,-348.25 397.1,-348.25 397.1,4 -4,4"/>
<!-- 7f1a920935a0 -->
<g id="node1" class="node">
<title>7f1a920935a0</title>
<ellipse fill="none" stroke="black" cx="183" cy="-326.25" rx="30.69" ry="18"/>
<text text-anchor="middle" x="183" y="-321.57" font-family="Times,serif" font-size="14.00">Add</text>
</g>
<!-- 7f1a881acaf0 -->
<g id="node2" class="node">
<title>7f1a881acaf0</title>
<ellipse fill="none" stroke="black" cx="130" cy="-253.25" rx="59.1" ry="18"/>
<text text-anchor="middle" x="130" y="-248.57" font-family="Times,serif" font-size="14.00">x0&gt;0.75?</text>
</g>
<!-- 7f1a920935a0&#45;&gt;7f1a881acaf0 -->
<g id="edge1" class="edge">
<title>7f1a920935a0&#45;&gt;7f1a881acaf0</title>
<path fill="none" stroke="black" d="M171.24,-309.49C164.81,-300.89 156.69,-290.01 149.36,-280.19"/>
<polygon fill="black" stroke="black" points="152.35,-278.34 143.56,-272.42 146.74,-282.52 152.35,-278.34"/>
</g>
<!-- 7f1a907dc940 -->
<g id="node3" class="node">
<title>7f1a907dc940</title>
<ellipse fill="none" stroke="black" cx="238" cy="-253.25" rx="30.69" ry="18"/>
<text text-anchor="middle" x="238" y="-248.57" font-family="Times,serif" font-size="14.00">Add</text>
</g>
<!-- 7f1a920935a0&#45;&gt;7f1a907dc940 -->
<g id="edge2" class="edge">
<title>7f1a920935a0&#45;&gt;7f1a907dc940</title>
<path fill="none" stroke="black" d="M195.21,-309.49C202.18,-300.48 211.09,-288.99 218.97,-278.82"/>
<polygon fill="black" stroke="black" points="221.54,-281.21 224.9,-271.16 216.01,-276.92 221.54,-281.21"/>
</g>
<!-- 7f1a9bbb93a0 -->
<g id="node4" class="node">
<title>7f1a9bbb93a0</title>
<ellipse fill="none" stroke="black" cx="83" cy="-180.25" rx="59.1" ry="18"/>
<text text-anchor="middle" x="83" y="-175.57" font-family="Times,serif" font-size="14.00">x0&gt;0.81?</text>
</g>
<!-- 7f1a881acaf0&#45;&gt;7f1a9bbb93a0 -->
<g id="edge3" class="edge">
<title>7f1a881acaf0&#45;&gt;7f1a9bbb93a0</title>
<path fill="none" stroke="black" d="M118.86,-235.42C113.3,-227.02 106.45,-216.67 100.23,-207.28"/>
<polygon fill="black" stroke="black" points="103.33,-205.62 94.89,-199.22 97.5,-209.49 103.33,-205.62"/>
<text text-anchor="middle" x="114.36" y="-222.12" font-family="Times,serif" font-size="14.00">Y</text>
</g>
<!-- x1 -->
<g id="node5" class="node">
<title>x1</title>
<ellipse fill="none" stroke="black" cx="186" cy="-18" rx="27" ry="18"/>
<text text-anchor="middle" x="186" y="-13.32" font-family="Times,serif" font-size="14.00">x1</text>
</g>
<!-- 7f1a881acaf0&#45;&gt;x1 -->
<g id="edge4" class="edge">
<title>7f1a881acaf0&#45;&gt;x1</title>
<path fill="none" stroke="black" d="M137.61,-235.01C142,-224.54 147.36,-210.81 151,-198.25 166.17,-145.85 176.76,-82.92 182.07,-47.28"/>
<polygon fill="black" stroke="black" points="185.48,-48.19 183.45,-37.79 178.55,-47.19 185.48,-48.19"/>
<text text-anchor="middle" x="167.92" y="-40.25" font-family="Times,serif" font-size="14.00">0.02</text>
<text text-anchor="middle" x="131.61" y="-221.71" font-family="Times,serif" font-size="14.00">N</text>
</g>
<!-- x6 -->
<g id="node8" class="node">
<title>x6</title>
<ellipse fill="none" stroke="black" cx="243" cy="-107.25" rx="27" ry="18"/>
<text text-anchor="middle" x="243" y="-102.58" font-family="Times,serif" font-size="14.00">x6</text>
</g>
<!-- 7f1a907dc940&#45;&gt;x6 -->
<g id="edge7" class="edge">
<title>7f1a907dc940&#45;&gt;x6</title>
<path fill="none" stroke="black" d="M232.66,-235.3C227.65,-217.19 221.49,-187.65 225.5,-162.25 226.9,-153.42 229.5,-144.06 232.28,-135.66"/>
<polygon fill="black" stroke="black" points="235.53,-136.96 235.58,-126.37 228.94,-134.62 235.53,-136.96"/>
<text text-anchor="middle" x="246.25" y="-175.57" font-family="Times,serif" font-size="14.00">19.40</text>
</g>
<!-- 7f1a91547740 -->
<g id="node9" class="node">
<title>7f1a91547740</title>
<ellipse fill="none" stroke="black" cx="334" cy="-180.25" rx="59.1" ry="18"/>
<text text-anchor="middle" x="334" y="-175.57" font-family="Times,serif" font-size="14.00">x0&gt;0.75?</text>
</g>
<!-- 7f1a907dc940&#45;&gt;7f1a91547740 -->
<g id="edge8" class="edge">
<title>7f1a907dc940&#45;&gt;7f1a91547740</title>
<path fill="none" stroke="black" d="M256.51,-238.56C269.68,-228.82 287.7,-215.49 303.04,-204.14"/>
<polygon fill="black" stroke="black" points="305.01,-207.04 310.97,-198.28 300.85,-201.42 305.01,-207.04"/>
</g>
<!-- x4 -->
<g id="node6" class="node">
<title>x4</title>
<ellipse fill="none" stroke="black" cx="27" cy="-107.25" rx="27" ry="18"/>
<text text-anchor="middle" x="27" y="-102.58" font-family="Times,serif" font-size="14.00">x4</text>
</g>
<!-- 7f1a9bbb93a0&#45;&gt;x4 -->
<g id="edge5" class="edge">
<title>7f1a9bbb93a0&#45;&gt;x4</title>
<path fill="none" stroke="black" d="M69.73,-162.42C62.67,-153.47 53.86,-142.31 46.08,-132.45"/>
<polygon fill="black" stroke="black" points="48.91,-130.38 39.97,-124.69 43.41,-134.71 48.91,-130.38"/>
<text text-anchor="middle" x="54.78" y="-127.45" font-family="Times,serif" font-size="14.00">3.72</text>
<text text-anchor="middle" x="65.23" y="-149.12" font-family="Times,serif" font-size="14.00">Y</text>
</g>
<!-- x3 -->
<g id="node7" class="node">
<title>x3</title>
<ellipse fill="none" stroke="black" cx="99" cy="-107.25" rx="27" ry="18"/>
<text text-anchor="middle" x="99" y="-102.58" font-family="Times,serif" font-size="14.00">x3</text>
</g>
<!-- 7f1a9bbb93a0&#45;&gt;x3 -->
<g id="edge6" class="edge">
<title>7f1a9bbb93a0&#45;&gt;x3</title>
<path fill="none" stroke="black" d="M86.87,-162.06C88.6,-154.39 90.69,-145.14 92.64,-136.49"/>
<polygon fill="black" stroke="black" points="96.05,-137.28 94.83,-126.76 89.22,-135.74 96.05,-137.28"/>
<text text-anchor="middle" x="110.91" y="-129.23" font-family="Times,serif" font-size="14.00">0.24</text>
<text text-anchor="middle" x="80.87" y="-148.76" font-family="Times,serif" font-size="14.00">N</text>
</g>
<!-- 7f1a91547740&#45;&gt;x6 -->
<g id="edge10" class="edge">
<title>7f1a91547740&#45;&gt;x6</title>
<path fill="none" stroke="black" d="M313.35,-163.14C300.19,-152.87 283.02,-139.48 268.94,-128.49"/>
<polygon fill="black" stroke="black" points="271.44,-126 261.4,-122.61 267.13,-131.52 271.44,-126"/>
<text text-anchor="middle" x="278.21" y="-125.63" font-family="Times,serif" font-size="14.00">&#45;8.93</text>
<text text-anchor="middle" x="307.35" y="-149.84" font-family="Times,serif" font-size="14.00">N</text>
</g>
<!-- 7f1a9ab08b20 -->
<g id="node10" class="node">
<title>7f1a9ab08b20</title>
<ellipse fill="none" stroke="black" cx="325" cy="-107.25" rx="27.53" ry="18"/>
<text text-anchor="middle" x="325" y="-102.58" font-family="Times,serif" font-size="14.00">Sin</text>
</g>
<!-- 7f1a91547740&#45;&gt;7f1a9ab08b20 -->
<g id="edge9" class="edge">
<title>7f1a91547740&#45;&gt;7f1a9ab08b20</title>
<path fill="none" stroke="black" d="M331.82,-162.06C330.85,-154.39 329.68,-145.14 328.58,-136.49"/>
<polygon fill="black" stroke="black" points="332.08,-136.26 327.35,-126.78 325.13,-137.14 332.08,-136.26"/>
<text text-anchor="middle" x="342.91" y="-129.23" font-family="Times,serif" font-size="14.00">3.27</text>
<text text-anchor="middle" x="327.32" y="-148.76" font-family="Times,serif" font-size="14.00">Y</text>
</g>
<!-- 7f1a9ab08b20&#45;&gt;x1 -->
<g id="edge11" class="edge">
<title>7f1a9ab08b20&#45;&gt;x1</title>
<path fill="none" stroke="black" d="M305.67,-94.12C282.12,-79.34 242.12,-54.23 214.91,-37.14"/>
<polygon fill="black" stroke="black" points="216.78,-34.19 206.45,-31.83 213.05,-40.11 216.78,-34.19"/>
<text text-anchor="middle" x="282.75" y="-57.95" font-family="Times,serif" font-size="14.00">0.08</text>
</g>
</g>
</svg>