<?xml version="1.0" encoding="UTF-8" standalone="no"?>
<!DOCTYPE svg PUBLIC "-//W3C//DTD SVG 1.1//EN"
 "http://www.w3.org/Graphics/SVG/1.1/DTD/svg11.dtd">
<!-- Generated by graphviz version 9.0.0 (20231125.0833)
 -->
<!-- Title: G Pages: 1 -->
<svg width="492pt" height="658pt"
 viewBox="0.00 0.00 491.73 657.50" xmlns="http://www.w3.org/2000/svg" xmlns:xlink="http://www.w3.org/1999/xlink">
<g id="graph0" class="graph" transform="scale(1 1) rotate(0) translate(4 653.5)">
<title>G</title>
<polygon fill="white" stroke="none" points="-4,4 -4,-653.5 487.73,-653.5 487.73,4 -4,4"/>
<!-- y -->
<g id="node1" class="node">
<title>y</title>
<polygon fill="none" stroke="black" points="172.1,-649.5 118.1,-649.5 118.1,-613.5 172.1,-613.5 172.1,-649.5"/>
<text text-anchor="middle" x="145.1" y="-626.83" font-family="Times,serif" font-size="14.00">y</text>
</g>
<!-- 7f4ba85bddd0 -->
<g id="node2" class="node">
<title>7f4ba85bddd0</title>
<ellipse fill="none" stroke="black" cx="145.1" cy="-542.25" rx="59.1" ry="18"/>
<text text-anchor="middle" x="145.1" y="-537.58" font-family="Times,serif" font-size="14.00">x0&gt;0.75?</text>
</g>
<!-- y&#45;&gt;7f4ba85bddd0 -->
<g id="edge1" class="edge">
<title>y&#45;&gt;7f4ba85bddd0</title>
<path fill="none" stroke="black" d="M145.1,-613.26C145.1,-601.43 145.1,-585.45 145.1,-571.75"/>
<polygon fill="black" stroke="black" points="148.6,-571.97 145.1,-561.97 141.6,-571.97 148.6,-571.97"/>
<text text-anchor="middle" x="160.85" y="-582.2" font-family="Times,serif" font-size="14.00">0.75</text>
</g>
<!-- 7f4ba877d6a0 -->
<g id="node3" class="node">
<title>7f4ba877d6a0</title>
<ellipse fill="none" stroke="black" cx="106.1" cy="-469.25" rx="30.69" ry="18"/>
<text text-anchor="middle" x="106.1" y="-464.57" font-family="Times,serif" font-size="14.00">Sub</text>
</g>
<!-- 7f4ba85bddd0&#45;&gt;7f4ba877d6a0 -->
<g id="edge2" class="edge">
<title>7f4ba85bddd0&#45;&gt;7f4ba877d6a0</title>
<path fill="none" stroke="black" d="M135.66,-524.06C131.14,-515.83 125.62,-505.79 120.59,-496.63"/>
<polygon fill="black" stroke="black" points="123.8,-495.2 115.91,-488.12 117.66,-498.57 123.8,-495.2"/>
<text text-anchor="middle" x="92.69" y="-490.74" font-family="Times,serif" font-size="14.00">&#45;81.71</text>
<text text-anchor="middle" x="131.16" y="-510.76" font-family="Times,serif" font-size="14.00">Y</text>
</g>
<!-- 7f4ba8277090 -->
<g id="node4" class="node">
<title>7f4ba8277090</title>
<ellipse fill="none" stroke="black" cx="185.1" cy="-469.25" rx="30.69" ry="18"/>
<text text-anchor="middle" x="185.1" y="-464.57" font-family="Times,serif" font-size="14.00">Add</text>
</g>
<!-- 7f4ba85bddd0&#45;&gt;7f4ba8277090 -->
<g id="edge3" class="edge">
<title>7f4ba85bddd0&#45;&gt;7f4ba8277090</title>
<path fill="none" stroke="black" d="M154.78,-524.06C159.42,-515.83 165.07,-505.79 170.24,-496.63"/>
<polygon fill="black" stroke="black" points="173.18,-498.54 175.04,-488.11 167.08,-495.1 173.18,-498.54"/>
<text text-anchor="middle" x="148.78" y="-510.76" font-family="Times,serif" font-size="14.00">N</text>
</g>
<!-- 7f4ba8e31b40 -->
<g id="node5" class="node">
<title>7f4ba8e31b40</title>
<ellipse fill="none" stroke="black" cx="59.1" cy="-380" rx="59.1" ry="18"/>
<text text-anchor="middle" x="59.1" y="-375.32" font-family="Times,serif" font-size="14.00">x0&gt;0.81?</text>
</g>
<!-- 7f4ba877d6a0&#45;&gt;7f4ba8e31b40 -->
<g id="edge4" class="edge">
<title>7f4ba877d6a0&#45;&gt;7f4ba8e31b40</title>
<path fill="none" stroke="black" d="M97.26,-451.84C90.63,-439.53 81.4,-422.39 73.68,-408.06"/>
<polygon fill="black" stroke="black" points="76.92,-406.71 69.1,-399.57 70.76,-410.03 76.92,-406.71"/>
</g>
<!-- x6 -->
<g id="node6" class="node">
<title>x6</title>
<ellipse fill="none" stroke="black" cx="163.1" cy="-380" rx="27" ry="18"/>
<text text-anchor="middle" x="163.1" y="-375.32" font-family="Times,serif" font-size="14.00">x6</text>
</g>
<!-- 7f4ba877d6a0&#45;&gt;x6 -->
<g id="edge5" class="edge">
<title>7f4ba877d6a0&#45;&gt;x6</title>
<path fill="none" stroke="black" d="M115.39,-452.02C121.49,-441.59 129.75,-427.82 137.6,-416 139.83,-412.64 142.24,-409.15 144.67,-405.74"/>
<polygon fill="black" stroke="black" points="147.46,-407.85 150.49,-397.7 141.79,-403.75 147.46,-407.85"/>
<text text-anchor="middle" x="153.85" y="-419.95" font-family="Times,serif" font-size="14.00">0.23</text>
</g>
<!-- 7f4ba8277090&#45;&gt;x6 -->
<g id="edge13" class="edge">
<title>7f4ba8277090&#45;&gt;x6</title>
<path fill="none" stroke="black" d="M180.75,-451.01C177.74,-439.06 173.66,-422.88 170.18,-409.08"/>
<polygon fill="black" stroke="black" points="173.65,-408.51 167.81,-399.67 166.86,-410.22 173.65,-408.51"/>
<text text-anchor="middle" x="196.35" y="-419.95" font-family="Times,serif" font-size="14.00">10.57</text>
</g>
<!-- 7f4ba8dc88b0 -->
<g id="node12" class="node">
<title>7f4ba8dc88b0</title>
<ellipse fill="none" stroke="black" cx="267.1" cy="-380" rx="59.1" ry="18"/>
<text text-anchor="middle" x="267.1" y="-375.32" font-family="Times,serif" font-size="14.00">x0&gt;0.70?</text>
</g>
<!-- 7f4ba8277090&#45;&gt;7f4ba8dc88b0 -->
<g id="edge12" class="edge">
<title>7f4ba8277090&#45;&gt;7f4ba8dc88b0</title>
<path fill="none" stroke="black" d="M200.26,-453.43C206.49,-447.26 213.71,-439.98 220.1,-433.25 228.33,-424.58 237.14,-414.89 244.89,-406.24"/>
<polygon fill="black" stroke="black" points="247.46,-408.6 251.5,-398.81 242.23,-403.95 247.46,-408.6"/>
</g>
<!-- 7f4ba890d750 -->
<g id="node7" class="node">
<title>7f4ba890d750</title>
<ellipse fill="none" stroke="black" cx="102.1" cy="-307" rx="30.69" ry="18"/>
<text text-anchor="middle" x="102.1" y="-302.32" font-family="Times,serif" font-size="14.00">Sub</text>
</g>
<!-- 7f4ba8e31b40&#45;&gt;7f4ba890d750 -->
<g id="edge6" class="edge">
<title>7f4ba8e31b40&#45;&gt;7f4ba890d750</title>
<path fill="none" stroke="black" d="M69.51,-361.81C74.62,-353.37 80.88,-343.03 86.55,-333.68"/>
<polygon fill="black" stroke="black" points="89.41,-335.72 91.59,-325.35 83.42,-332.09 89.41,-335.72"/>
<text text-anchor="middle" x="76.63" y="-328.01" font-family="Times,serif" font-size="14.00">0.37</text>
<text text-anchor="middle" x="65.01" y="-348.51" font-family="Times,serif" font-size="14.00">Y</text>
</g>
<!-- 7f4ba8e46930 -->
<g id="node8" class="node">
<title>7f4ba8e46930</title>
<ellipse fill="none" stroke="black" cx="34.1" cy="-253" rx="29.64" ry="18"/>
<text text-anchor="middle" x="34.1" y="-248.32" font-family="Times,serif" font-size="14.00">Cos</text>
</g>
<!-- 7f4ba8e31b40&#45;&gt;7f4ba8e46930 -->
<g id="edge7" class="edge">
<title>7f4ba8e31b40&#45;&gt;7f4ba8e46930</title>
<path fill="none" stroke="black" d="M55.62,-361.62C51.52,-341.1 44.63,-306.67 39.76,-282.29"/>
<polygon fill="black" stroke="black" points="43.24,-281.84 37.84,-272.72 36.37,-283.21 43.24,-281.84"/>
<text text-anchor="middle" x="21.8" y="-275.18" font-family="Times,serif" font-size="14.00">0.44</text>
<text text-anchor="middle" x="49.62" y="-348.32" font-family="Times,serif" font-size="14.00">N</text>
</g>
<!-- 7f4ba8a26b80 -->
<g id="node9" class="node">
<title>7f4ba8a26b80</title>
<ellipse fill="none" stroke="black" cx="177.1" cy="-199" rx="29.64" ry="18"/>
<text text-anchor="middle" x="177.1" y="-194.32" font-family="Times,serif" font-size="14.00">Cos</text>
</g>
<!-- 7f4ba890d750&#45;&gt;7f4ba8a26b80 -->
<g id="edge8" class="edge">
<title>7f4ba890d750&#45;&gt;7f4ba8a26b80</title>
<path fill="none" stroke="black" d="M120.66,-292.36C127.96,-286.37 136.03,-278.9 142.1,-271 152.27,-257.76 160.67,-241.09 166.69,-227.23"/>
<polygon fill="black" stroke="black" points="169.82,-228.82 170.42,-218.24 163.36,-226.14 169.82,-228.82"/>
<text text-anchor="middle" x="178.85" y="-248.32" font-family="Times,serif" font-size="14.00">1.73</text>
</g>
<!-- x4 -->
<g id="node10" class="node">
<title>x4</title>
<ellipse fill="none" stroke="black" cx="102.1" cy="-199" rx="27" ry="18"/>
<text text-anchor="middle" x="102.1" y="-194.32" font-family="Times,serif" font-size="14.00">x4</text>
</g>
<!-- 7f4ba890d750&#45;&gt;x4 -->
<g id="edge9" class="edge">
<title>7f4ba890d750&#45;&gt;x4</title>
<path fill="none" stroke="black" d="M102.1,-288.97C102.1,-272.76 102.1,-248.06 102.1,-228.79"/>
<polygon fill="black" stroke="black" points="105.6,-228.85 102.1,-218.85 98.6,-228.85 105.6,-228.85"/>
<text text-anchor="middle" x="120.1" y="-248.32" font-family="Times,serif" font-size="14.00">&#45;0.10</text>
</g>
<!-- x3 -->
<g id="node11" class="node">
<title>x3</title>
<ellipse fill="none" stroke="black" cx="120.1" cy="-91" rx="27" ry="18"/>
<text text-anchor="middle" x="120.1" y="-86.33" font-family="Times,serif" font-size="14.00">x3</text>
</g>
<!-- 7f4ba8e46930&#45;&gt;x3 -->
<g id="edge11" class="edge">
<title>7f4ba8e46930&#45;&gt;x3</title>
<path fill="none" stroke="black" d="M30.74,-234.67C28.67,-219.85 27.59,-198.24 34.6,-181 46.3,-152.21 72.19,-127.48 92.43,-111.44"/>
<polygon fill="black" stroke="black" points="94.51,-114.26 100.34,-105.42 90.26,-108.69 94.51,-114.26"/>
<text text-anchor="middle" x="50.85" y="-194.32" font-family="Times,serif" font-size="14.00">1.00</text>
</g>
<!-- 7f4ba8a26b80&#45;&gt;x3 -->
<g id="edge10" class="edge">
<title>7f4ba8a26b80&#45;&gt;x3</title>
<path fill="none" stroke="black" d="M168.19,-181.44C159.12,-164.56 144.9,-138.12 134.27,-118.36"/>
<polygon fill="black" stroke="black" points="137.48,-116.93 129.66,-109.78 131.31,-120.24 137.48,-116.93"/>
<text text-anchor="middle" x="172.85" y="-140.32" font-family="Times,serif" font-size="14.00">1.00</text>
</g>
<!-- 7f4ba80a4ab0 -->
<g id="node13" class="node">
<title>7f4ba80a4ab0</title>
<ellipse fill="none" stroke="black" cx="221.1" cy="-307" rx="39.63" ry="18"/>
<text text-anchor="middle" x="221.1" y="-302.32" font-family="Times,serif" font-size="14.00">12.45</text>
</g>
<!-- 7f4ba8dc88b0&#45;&gt;7f4ba80a4ab0 -->
<g id="edge14" class="edge">
<title>7f4ba8dc88b0&#45;&gt;7f4ba80a4ab0</title>
<path fill="none" stroke="black" d="M256.2,-362.17C250.81,-353.86 244.19,-343.64 238.16,-334.33"/>
<polygon fill="black" stroke="black" points="241.12,-332.46 232.75,-325.98 235.25,-336.27 241.12,-332.46"/>
<text text-anchor="middle" x="251.7" y="-348.87" font-family="Times,serif" font-size="14.00">Y</text>
</g>
<!-- 7f4ba80ad250 -->
<g id="node14" class="node">
<title>7f4ba80ad250</title>
<ellipse fill="none" stroke="black" cx="309.1" cy="-307" rx="30.69" ry="18"/>
<text text-anchor="middle" x="309.1" y="-302.32" font-family="Times,serif" font-size="14.00">Add</text>
</g>
<!-- 7f4ba8dc88b0&#45;&gt;7f4ba80ad250 -->
<g id="edge15" class="edge">
<title>7f4ba8dc88b0&#45;&gt;7f4ba80ad250</title>
<path fill="none" stroke="black" d="M277.27,-361.81C282.14,-353.58 288.07,-343.54 293.5,-334.38"/>
<polygon fill="black" stroke="black" points="296.47,-336.23 298.54,-325.84 290.44,-332.67 296.47,-336.23"/>
<text text-anchor="middle" x="271.27" y="-348.51" font-family="Times,serif" font-size="14.00">N</text>
</g>
<!-- 7f4ba8d365b0 -->
<g id="node15" class="node">
<title>7f4ba8d365b0</title>
<ellipse fill="none" stroke="black" cx="256.1" cy="-145" rx="27.53" ry="18"/>
<text text-anchor="middle" x="256.1" y="-140.32" font-family="Times,serif" font-size="14.00">Sin</text>
</g>
<!-- 7f4ba80ad250&#45;&gt;7f4ba8d365b0 -->
<g id="edge16" class="edge">
<title>7f4ba80ad250&#45;&gt;7f4ba8d365b0</title>
<path fill="none" stroke="black" d="M292.57,-291.39C286.98,-285.58 281.24,-278.5 277.6,-271 262.75,-240.38 257.99,-201.18 256.56,-174.92"/>
<polygon fill="black" stroke="black" points="260.06,-174.86 256.16,-165.01 253.06,-175.14 260.06,-174.86"/>
<text text-anchor="middle" x="298.35" y="-248.32" font-family="Times,serif" font-size="14.00">31.19</text>
</g>
<!-- 7f4ba86c3030 -->
<g id="node16" class="node">
<title>7f4ba86c3030</title>
<ellipse fill="none" stroke="black" cx="344.1" cy="-199" rx="59.1" ry="18"/>
<text text-anchor="middle" x="344.1" y="-194.32" font-family="Times,serif" font-size="14.00">x0&gt;0.63?</text>
</g>
<!-- 7f4ba80ad250&#45;&gt;7f4ba86c3030 -->
<g id="edge17" class="edge">
<title>7f4ba80ad250&#45;&gt;7f4ba86c3030</title>
<path fill="none" stroke="black" d="M314.72,-288.97C320.13,-272.61 328.39,-247.59 334.77,-228.24"/>
<polygon fill="black" stroke="black" points="338.09,-229.37 337.9,-218.78 331.44,-227.18 338.09,-229.37"/>
</g>
<!-- x0 -->
<g id="node17" class="node">
<title>x0</title>
<ellipse fill="none" stroke="black" cx="359.1" cy="-18" rx="27" ry="18"/>
<text text-anchor="middle" x="359.1" y="-13.32" font-family="Times,serif" font-size="14.00">x0</text>
</g>
<!-- 7f4ba8d365b0&#45;&gt;x0 -->
<g id="edge18" class="edge">
<title>7f4ba8d365b0&#45;&gt;x0</title>
<path fill="none" stroke="black" d="M253.74,-126.77C252.54,-111.41 253.13,-88.96 263.6,-73 267.64,-66.85 301.58,-48.46 327.87,-34.84"/>
<polygon fill="black" stroke="black" points="329.2,-38.08 336.49,-30.4 326,-31.86 329.2,-38.08"/>
<text text-anchor="middle" x="284.35" y="-86.33" font-family="Times,serif" font-size="14.00">16.22</text>
</g>
<!-- 7f4ba83a4fd0 -->
<g id="node18" class="node">
<title>7f4ba83a4fd0</title>
<ellipse fill="none" stroke="black" cx="344.1" cy="-91" rx="30.69" ry="18"/>
<text text-anchor="middle" x="344.1" y="-86.33" font-family="Times,serif" font-size="14.00">Add</text>
</g>
<!-- 7f4ba86c3030&#45;&gt;7f4ba83a4fd0 -->
<g id="edge19" class="edge">
<title>7f4ba86c3030&#45;&gt;7f4ba83a4fd0</title>
<path fill="none" stroke="black" d="M344.1,-180.97C344.1,-164.76 344.1,-140.06 344.1,-120.79"/>
<polygon fill="black" stroke="black" points="347.6,-120.85 344.1,-110.85 340.6,-120.85 347.6,-120.85"/>
<text text-anchor="middle" x="339.6" y="-167.67" font-family="Times,serif" font-size="14.00">Y</text>
</g>
<!-- 7f4ba820bb40 -->
<g id="node19" class="node">
<title>7f4ba820bb40</title>
<ellipse fill="none" stroke="black" cx="423.1" cy="-91" rx="30.69" ry="18"/>
<text text-anchor="middle" x="423.1" y="-86.33" font-family="Times,serif" font-size="14.00">Add</text>
</g>
<!-- 7f4ba86c3030&#45;&gt;7f4ba820bb40 -->
<g id="edge20" class="edge">
<title>7f4ba86c3030&#45;&gt;7f4ba820bb40</title>
<path fill="none" stroke="black" d="M356.79,-180.97C369.69,-163.67 389.8,-136.69 404.49,-116.97"/>
<polygon fill="black" stroke="black" points="407.14,-119.27 410.31,-109.16 401.53,-115.09 407.14,-119.27"/>
<text text-anchor="middle" x="350.79" y="-167.67" font-family="Times,serif" font-size="14.00">N</text>
</g>
<!-- 7f4ba83a4fd0&#45;&gt;x0 -->
<g id="edge21" class="edge">
<title>7f4ba83a4fd0&#45;&gt;x0</title>
<path fill="none" stroke="black" d="M347.73,-72.81C349.35,-65.14 351.31,-55.89 353.13,-47.24"/>
<polygon fill="black" stroke="black" points="356.55,-48.02 355.19,-37.51 349.7,-46.57 356.55,-48.02"/>
</g>
<!-- 7f4ba89ff840 -->
<g id="node20" class="node">
<title>7f4ba89ff840</title>
<ellipse fill="none" stroke="black" cx="274.1" cy="-18" rx="39.63" ry="18"/>
<text text-anchor="middle" x="274.1" y="-13.32" font-family="Times,serif" font-size="14.00">42.65</text>
</g>
<!-- 7f4ba83a4fd0&#45;&gt;7f4ba89ff840 -->
<g id="edge22" class="edge">
<title>7f4ba83a4fd0&#45;&gt;7f4ba89ff840</title>
<path fill="none" stroke="black" d="M329.25,-74.94C320.01,-65.56 307.91,-53.3 297.41,-42.64"/>
<polygon fill="black" stroke="black" points="299.98,-40.27 290.47,-35.6 295,-45.18 299.98,-40.27"/>
</g>
<!-- 7f4ba820bb40&#45;&gt;x0 -->
<g id="edge23" class="edge">
<title>7f4ba820bb40&#45;&gt;x0</title>
<path fill="none" stroke="black" d="M409.21,-74.59C400.71,-65.16 389.67,-52.91 380.11,-42.31"/>
<polygon fill="black" stroke="black" points="382.83,-40.1 373.53,-35.01 377.63,-44.78 382.83,-40.1"/>
</g>
<!-- 7f4ba8a70410 -->
<g id="node21" class="node">
<title>7f4ba8a70410</title>
<ellipse fill="none" stroke="black" cx="444.1" cy="-18" rx="39.63" ry="18"/>
<text text-anchor="middle" x="444.1" y="-13.32" font-family="Times,serif" font-size="14.00">30.64</text>
</g>
<!-- 7f4ba820bb40&#45;&gt;7f4ba8a70410 -->
<g id="edge24" class="edge">
<title>7f4ba820bb40&#45;&gt;7f4ba8a70410</title>
<path fill="none" stroke="black" d="M428.18,-72.81C430.48,-65.05 433.25,-55.68 435.83,-46.95"/>
<polygon fill="black" stroke="black" points="439.15,-48.06 438.63,-37.48 432.44,-46.08 439.15,-48.06"/>
</g>
</g>
</svg>