<?xml version="1.0" encoding="UTF-8" standalone="no"?>
<!DOCTYPE svg PUBLIC "-//W3C//DTD SVG 1.1//EN"
 "http://www.w3.org/Graphics/SVG/1.1/DTD/svg11.dtd">
<!-- Generated by graphviz version 12.0.0 (0)
 -->
<!-- Title: G Pages: 1 -->
<svg width="525pt" height="513pt"
 viewBox="0.00 0.00 525.41 513.00" xmlns="http://www.w3.org/2000/svg" xmlns:xlink="http://www.w3.org/1999/xlink">
<g id="graph0" class="graph" transform="scale(1 1) rotate(0) translate(4 509)">
<title>G</title>
<polygon fill="white" stroke="none" points="-4,4 -4,-509 521.41,-509 521.41,4 -4,4"/>
<!-- 16e061010 -->
<g id="node1" class="node">
<title>16e061010</title>
<ellipse fill="none" stroke="black" cx="410.51" cy="-487" rx="27" ry="18"/>
<text text-anchor="middle" x="410.51" y="-481.95" font-family="Times,serif" font-size="14.00">Sub</text>
</g>
<!-- 16e054590 -->
<g id="node2" class="node">
<title>16e054590</title>
<ellipse fill="none" stroke="black" cx="366.51" cy="-414" rx="51.86" ry="18"/>
<text text-anchor="middle" x="366.51" y="-408.95" font-family="Times,serif" font-size="14.00">x0&gt;=0.76?</text>
</g>
<!-- 16e061010&#45;&gt;16e054590 -->
<g id="edge1" class="edge">
<title>16e061010&#45;&gt;16e054590</title>
<path fill="none" stroke="black" d="M400.52,-469.89C395.39,-461.6 388.98,-451.27 383.13,-441.81"/>
<polygon fill="black" stroke="black" points="386.11,-439.98 377.86,-433.32 380.16,-443.67 386.11,-439.98"/>
</g>
<!-- x6 -->
<g id="node3" class="node">
<title>x6</title>
<ellipse fill="none" stroke="black" cx="453.51" cy="-237" rx="27" ry="18"/>
<text text-anchor="middle" x="453.51" y="-231.95" font-family="Times,serif" font-size="14.00">x6</text>
</g>
<!-- 16e061010&#45;&gt;x6 -->
<g id="edge2" class="edge">
<title>16e061010&#45;&gt;x6</title>
<path fill="none" stroke="black" d="M416.63,-469.18C420.26,-458.62 424.69,-444.66 427.51,-432 440.44,-373.94 447.84,-304.57 451.23,-266.51"/>
<polygon fill="black" stroke="black" points="454.7,-267.07 452.06,-256.81 447.72,-266.47 454.7,-267.07"/>
<text text-anchor="middle" x="457.13" y="-364.7" font-family="Times,serif" font-size="14.00">&#45;20.76</text>
</g>
<!-- 16e05e1f0 -->
<g id="node4" class="node">
<title>16e05e1f0</title>
<ellipse fill="none" stroke="black" cx="254.51" cy="-325.5" rx="27" ry="18"/>
<text text-anchor="middle" x="254.51" y="-320.45" font-family="Times,serif" font-size="14.00">Sub</text>
</g>
<!-- 16e054590&#45;&gt;16e05e1f0 -->
<g id="edge3" class="edge">
<title>16e054590&#45;&gt;16e05e1f0</title>
<path fill="none" stroke="black" d="M345.97,-397.13C327.54,-382.9 300.41,-361.95 280.48,-346.56"/>
<polygon fill="black" stroke="black" points="282.87,-343.98 272.82,-340.64 278.6,-349.52 282.87,-343.98"/>
<text text-anchor="middle" x="283.62" y="-342.92" font-family="Times,serif" font-size="14.00">0.20</text>
<text text-anchor="middle" x="348.4" y="-383.83" font-family="Times,serif" font-size="14.00">Y</text>
</g>
<!-- 17e7468c0 -->
<g id="node5" class="node">
<title>17e7468c0</title>
<ellipse fill="none" stroke="black" cx="366.51" cy="-325.5" rx="27" ry="18"/>
<text text-anchor="middle" x="366.51" y="-320.45" font-family="Times,serif" font-size="14.00">Sub</text>
</g>
<!-- 16e054590&#45;&gt;17e7468c0 -->
<g id="edge4" class="edge">
<title>16e054590&#45;&gt;17e7468c0</title>
<path fill="none" stroke="black" d="M366.51,-395.91C366.51,-384.26 366.51,-368.55 366.51,-355.02"/>
<polygon fill="black" stroke="black" points="370.01,-355.36 366.51,-345.36 363.01,-355.36 370.01,-355.36"/>
<text text-anchor="middle" x="361.63" y="-382.61" font-family="Times,serif" font-size="14.00">N</text>
</g>
<!-- 16e062090 -->
<g id="node6" class="node">
<title>16e062090</title>
<ellipse fill="none" stroke="black" cx="152.51" cy="-237" rx="51.86" ry="18"/>
<text text-anchor="middle" x="152.51" y="-231.95" font-family="Times,serif" font-size="14.00">x0&gt;=0.82?</text>
</g>
<!-- 16e05e1f0&#45;&gt;16e062090 -->
<g id="edge5" class="edge">
<title>16e05e1f0&#45;&gt;16e062090</title>
<path fill="none" stroke="black" d="M238.57,-310.98C222.97,-297.75 198.89,-277.33 180.16,-261.45"/>
<polygon fill="black" stroke="black" points="182.5,-258.84 172.61,-255.05 177.97,-264.18 182.5,-258.84"/>
</g>
<!-- 17e746810 -->
<g id="node7" class="node">
<title>17e746810</title>
<ellipse fill="none" stroke="black" cx="254.51" cy="-237" rx="31.9" ry="18"/>
<text text-anchor="middle" x="254.51" y="-231.95" font-family="Times,serif" font-size="14.00">33.31</text>
</g>
<!-- 16e05e1f0&#45;&gt;17e746810 -->
<g id="edge6" class="edge">
<title>16e05e1f0&#45;&gt;17e746810</title>
<path fill="none" stroke="black" d="M254.51,-307.41C254.51,-295.76 254.51,-280.05 254.51,-266.52"/>
<polygon fill="black" stroke="black" points="258.01,-266.86 254.51,-256.86 251.01,-266.86 258.01,-266.86"/>
</g>
<!-- 17e7468c0&#45;&gt;x6 -->
<g id="edge16" class="edge">
<title>17e7468c0&#45;&gt;x6</title>
<path fill="none" stroke="black" d="M379.28,-309.13C388.24,-298.63 400.68,-284.57 412.51,-273 417.4,-268.22 422.83,-263.32 428.1,-258.76"/>
<polygon fill="black" stroke="black" points="430.18,-261.59 435.55,-252.45 425.65,-256.25 430.18,-261.59"/>
<text text-anchor="middle" x="424.51" y="-276.2" font-family="Times,serif" font-size="14.00">9.24</text>
</g>
<!-- 16e0851e0 -->
<g id="node15" class="node">
<title>16e0851e0</title>
<ellipse fill="none" stroke="black" cx="356.51" cy="-237" rx="51.86" ry="18"/>
<text text-anchor="middle" x="356.51" y="-231.95" font-family="Times,serif" font-size="14.00">x0&gt;=0.64?</text>
</g>
<!-- 17e7468c0&#45;&gt;16e0851e0 -->
<g id="edge15" class="edge">
<title>17e7468c0&#45;&gt;16e0851e0</title>
<path fill="none" stroke="black" d="M364.53,-307.41C363.19,-295.76 361.37,-280.05 359.81,-266.52"/>
<polygon fill="black" stroke="black" points="363.31,-266.39 358.69,-256.85 356.36,-267.19 363.31,-266.39"/>
</g>
<!-- 16e0f2c80 -->
<g id="node8" class="node">
<title>16e0f2c80</title>
<ellipse fill="none" stroke="black" cx="215.51" cy="-164" rx="51.86" ry="18"/>
<text text-anchor="middle" x="215.51" y="-158.95" font-family="Times,serif" font-size="14.00">x6&gt;=0.25?</text>
</g>
<!-- 16e062090&#45;&gt;16e0f2c80 -->
<g id="edge7" class="edge">
<title>16e062090&#45;&gt;16e0f2c80</title>
<path fill="none" stroke="black" d="M167.12,-219.53C174.91,-210.75 184.66,-199.76 193.37,-189.96"/>
<polygon fill="black" stroke="black" points="195.95,-192.31 199.97,-182.51 190.72,-187.67 195.95,-192.31"/>
<text text-anchor="middle" x="162.25" y="-206.23" font-family="Times,serif" font-size="14.00">Y</text>
</g>
<!-- 17e72cec0 -->
<g id="node9" class="node">
<title>17e72cec0</title>
<ellipse fill="none" stroke="black" cx="118.51" cy="-164" rx="27" ry="18"/>
<text text-anchor="middle" x="118.51" y="-158.95" font-family="Times,serif" font-size="14.00">Add</text>
</g>
<!-- 16e062090&#45;&gt;17e72cec0 -->
<g id="edge8" class="edge">
<title>16e062090&#45;&gt;17e72cec0</title>
<path fill="none" stroke="black" d="M144.28,-218.81C140.38,-210.67 135.63,-200.76 131.28,-191.67"/>
<polygon fill="black" stroke="black" points="134.56,-190.41 127.08,-182.91 128.25,-193.44 134.56,-190.41"/>
<text text-anchor="middle" x="138.43" y="-184.74" font-family="Times,serif" font-size="14.00">0.82</text>
<text text-anchor="middle" x="139.4" y="-205.51" font-family="Times,serif" font-size="14.00">N</text>
</g>
<!-- 16e075300 -->
<g id="node10" class="node">
<title>16e075300</title>
<ellipse fill="none" stroke="black" cx="215.51" cy="-91" rx="51.86" ry="18"/>
<text text-anchor="middle" x="215.51" y="-85.95" font-family="Times,serif" font-size="14.00">x0&gt;=0.86?</text>
</g>
<!-- 16e0f2c80&#45;&gt;16e075300 -->
<g id="edge9" class="edge">
<title>16e0f2c80&#45;&gt;16e075300</title>
<path fill="none" stroke="black" d="M215.51,-145.81C215.51,-138.23 215.51,-129.1 215.51,-120.54"/>
<polygon fill="black" stroke="black" points="219.01,-120.54 215.51,-110.54 212.01,-120.54 219.01,-120.54"/>
<text text-anchor="middle" x="210.63" y="-132.51" font-family="Times,serif" font-size="14.00">Y</text>
</g>
<!-- x2 -->
<g id="node11" class="node">
<title>x2</title>
<ellipse fill="none" stroke="black" cx="296.51" cy="-18" rx="27" ry="18"/>
<text text-anchor="middle" x="296.51" y="-12.95" font-family="Times,serif" font-size="14.00">x2</text>
</g>
<!-- 16e0f2c80&#45;&gt;x2 -->
<g id="edge10" class="edge">
<title>16e0f2c80&#45;&gt;x2</title>
<path fill="none" stroke="black" d="M239.12,-147.7C252.07,-138.1 267.32,-124.6 276.51,-109 287.51,-90.33 292.47,-66.25 294.7,-47.69"/>
<polygon fill="black" stroke="black" points="298.16,-48.21 295.66,-37.91 291.2,-47.52 298.16,-48.21"/>
<text text-anchor="middle" x="283.81" y="-39.61" font-family="Times,serif" font-size="14.00">0.53</text>
<text text-anchor="middle" x="241.55" y="-134.4" font-family="Times,serif" font-size="14.00">N</text>
</g>
<!-- x3 -->
<g id="node13" class="node">
<title>x3</title>
<ellipse fill="none" stroke="black" cx="118.51" cy="-91" rx="27" ry="18"/>
<text text-anchor="middle" x="118.51" y="-85.95" font-family="Times,serif" font-size="14.00">x3</text>
</g>
<!-- 17e72cec0&#45;&gt;x3 -->
<g id="edge13" class="edge">
<title>17e72cec0&#45;&gt;x3</title>
<path fill="none" stroke="black" d="M118.51,-145.81C118.51,-138.23 118.51,-129.1 118.51,-120.54"/>
<polygon fill="black" stroke="black" points="122.01,-120.54 118.51,-110.54 115.01,-120.54 122.01,-120.54"/>
</g>
<!-- 16e0d6100 -->
<g id="node14" class="node">
<title>16e0d6100</title>
<ellipse fill="none" stroke="black" cx="36.51" cy="-91" rx="36.51" ry="18"/>
<text text-anchor="middle" x="36.51" y="-85.95" font-family="Times,serif" font-size="14.00">109.98</text>
</g>
<!-- 17e72cec0&#45;&gt;16e0d6100 -->
<g id="edge14" class="edge">
<title>17e72cec0&#45;&gt;16e0d6100</title>
<path fill="none" stroke="black" d="M102.7,-149.31C91.35,-139.49 75.81,-126.03 62.64,-114.62"/>
<polygon fill="black" stroke="black" points="64.97,-112.01 55.12,-108.11 60.39,-117.3 64.97,-112.01"/>
</g>
<!-- 16e075300&#45;&gt;x2 -->
<g id="edge11" class="edge">
<title>16e075300&#45;&gt;x2</title>
<path fill="none" stroke="black" d="M233.89,-73.89C245.23,-63.95 259.91,-51.08 272.21,-40.3"/>
<polygon fill="black" stroke="black" points="274.31,-43.11 279.52,-33.89 269.7,-37.85 274.31,-43.11"/>
<text text-anchor="middle" x="268.66" y="-36.09" font-family="Times,serif" font-size="14.00">0.55</text>
<text text-anchor="middle" x="229.01" y="-60.59" font-family="Times,serif" font-size="14.00">Y</text>
</g>
<!-- 17e738580 -->
<g id="node12" class="node">
<title>17e738580</title>
<ellipse fill="none" stroke="black" cx="214.51" cy="-18" rx="36.51" ry="18"/>
<text text-anchor="middle" x="214.51" y="-12.95" font-family="Times,serif" font-size="14.00">146.57</text>
</g>
<!-- 16e075300&#45;&gt;17e738580 -->
<g id="edge12" class="edge">
<title>16e075300&#45;&gt;17e738580</title>
<path fill="none" stroke="black" d="M215.27,-72.81C215.16,-65.23 215.03,-56.1 214.91,-47.54"/>
<polygon fill="black" stroke="black" points="218.41,-47.49 214.77,-37.54 211.41,-47.59 218.41,-47.49"/>
<text text-anchor="middle" x="210.39" y="-59.51" font-family="Times,serif" font-size="14.00">N</text>
</g>
<!-- 16e0851e0&#45;&gt;x2 -->
<g id="edge18" class="edge">
<title>16e0851e0&#45;&gt;x2</title>
<path fill="none" stroke="black" d="M352.09,-218.62C343.77,-186.16 325.05,-114.16 307.51,-54 306.84,-51.71 306.13,-49.33 305.41,-46.96"/>
<polygon fill="black" stroke="black" points="308.78,-46.01 302.47,-37.49 302.09,-48.08 308.78,-46.01"/>
<text text-anchor="middle" x="314.02" y="-39.25" font-family="Times,serif" font-size="14.00">0.03</text>
<text text-anchor="middle" x="347.21" y="-205.32" font-family="Times,serif" font-size="14.00">N</text>
</g>
<!-- 16e085290 -->
<g id="node16" class="node">
<title>16e085290</title>
<ellipse fill="none" stroke="black" cx="413.51" cy="-164" rx="51.86" ry="18"/>
<text text-anchor="middle" x="413.51" y="-158.95" font-family="Times,serif" font-size="14.00">x0&gt;=0.66?</text>
</g>
<!-- 16e0851e0&#45;&gt;16e085290 -->
<g id="edge17" class="edge">
<title>16e0851e0&#45;&gt;16e085290</title>
<path fill="none" stroke="black" d="M370.02,-219.17C376.9,-210.6 385.42,-199.99 393.09,-190.44"/>
<polygon fill="black" stroke="black" points="395.62,-192.87 399.15,-182.89 390.16,-188.49 395.62,-192.87"/>
<text text-anchor="middle" x="365.14" y="-205.87" font-family="Times,serif" font-size="14.00">Y</text>
</g>
<!-- 16e02e940 -->
<g id="node17" class="node">
<title>16e02e940</title>
<ellipse fill="none" stroke="black" cx="403.51" cy="-91" rx="31.9" ry="18"/>
<text text-anchor="middle" x="403.51" y="-85.95" font-family="Times,serif" font-size="14.00">12.61</text>
</g>
<!-- 16e085290&#45;&gt;16e02e940 -->
<g id="edge19" class="edge">
<title>16e085290&#45;&gt;16e02e940</title>
<path fill="none" stroke="black" d="M411.09,-145.81C410.01,-138.14 408.7,-128.89 407.49,-120.24"/>
<polygon fill="black" stroke="black" points="410.98,-119.94 406.12,-110.53 404.05,-120.92 410.98,-119.94"/>
<text text-anchor="middle" x="406.21" y="-132.51" font-family="Times,serif" font-size="14.00">Y</text>
</g>
<!-- 16e02e9f0 -->
<g id="node18" class="node">
<title>16e02e9f0</title>
<ellipse fill="none" stroke="black" cx="485.51" cy="-91" rx="31.9" ry="18"/>
<text text-anchor="middle" x="485.51" y="-85.95" font-family="Times,serif" font-size="14.00">17.75</text>
</g>
<!-- 16e085290&#45;&gt;16e02e9f0 -->
<g id="edge20" class="edge">
<title>16e085290&#45;&gt;16e02e9f0</title>
<path fill="none" stroke="black" d="M430.21,-146.53C439.78,-137.09 451.94,-125.11 462.41,-114.78"/>
<polygon fill="black" stroke="black" points="464.63,-117.5 469.29,-107.99 459.72,-112.52 464.63,-117.5"/>
<text text-anchor="middle" x="425.33" y="-133.23" font-family="Times,serif" font-size="14.00">N</text>
</g>
</g>
</svg>