<?xml version="1.0" encoding="UTF-8" standalone="no"?>
<!DOCTYPE svg PUBLIC "-//W3C//DTD SVG 1.1//EN"
 "http://www.w3.org/Graphics/SVG/1.1/DTD/svg11.dtd">
<!-- Generated by graphviz version 12.0.0 (0)
 -->
<!-- Title: G Pages: 1 -->
<svg width="511pt" height="225pt"
 viewBox="0.00 0.00 510.73 225.25" xmlns="http://www.w3.org/2000/svg" xmlns:xlink="http://www.w3.org/1999/xlink">
<g id="graph0" class="graph" transform="scale(1 1) rotate(0) translate(4 221.25)">
<title>G</title>
<polygon fill="white" stroke="none" points="-4,4 -4,-221.25 506.73,-221.25 506.73,4 -4,4"/>
<text text-anchor="middle" x="251.37" y="-5.75" font-family="Times,serif" font-size="10.00">^ split feature fixed, * split threshold fixed</text>
<!-- y -->
<g id="node1" class="node">
<title>y</title>
<polygon fill="none" stroke="black" points="54,-135.25 0,-135.25 0,-99.25 54,-99.25 54,-135.25"/>
<text text-anchor="middle" x="27" y="-112.2" font-family="Times,serif" font-size="14.00">y</text>
</g>
<!-- 177604080 -->
<g id="node2" class="node">
<title>177604080</title>
<ellipse fill="none" stroke="black" cx="170.98" cy="-117.25" rx="56.98" ry="18"/>
<text text-anchor="middle" x="170.98" y="-112.2" font-family="Times,serif" font-size="14.00">x0 &gt;= 0.76?</text>
</g>
<!-- y&#45;&gt;177604080 -->
<g id="edge1" class="edge">
<title>y&#45;&gt;177604080</title>
<path fill="none" stroke="black" d="M54.37,-117.25C68.06,-117.25 85.46,-117.25 102.58,-117.25"/>
<polygon fill="black" stroke="black" points="102.24,-120.75 112.24,-117.25 102.24,-113.75 102.24,-120.75"/>
<text text-anchor="middle" x="84" y="-120.45" font-family="Times,serif" font-size="14.00">0.76</text>
</g>
<!-- 10fd43150 -->
<g id="node3" class="node">
<title>10fd43150</title>
<ellipse fill="none" stroke="black" cx="321.94" cy="-145.25" rx="56.98" ry="18"/>
<text text-anchor="middle" x="321.94" y="-140.2" font-family="Times,serif" font-size="14.00">x0 &gt;= 0.82?</text>
</g>
<!-- 177604080&#45;&gt;10fd43150 -->
<g id="edge2" class="edge">
<title>177604080&#45;&gt;10fd43150</title>
<path fill="none" stroke="black" d="M220.76,-126.42C233.62,-128.84 247.64,-131.47 261.02,-133.99"/>
<polygon fill="black" stroke="black" points="260.1,-137.37 270.57,-135.78 261.39,-130.49 260.1,-137.37"/>
<text text-anchor="middle" x="225.63" y="-129.62" font-family="Times,serif" font-size="14.00">Y</text>
</g>
<!-- 17359a090 -->
<g id="node4" class="node">
<title>17359a090</title>
<ellipse fill="none" stroke="black" cx="321.94" cy="-91.25" rx="27" ry="18"/>
<text text-anchor="middle" x="321.94" y="-86.2" font-family="Times,serif" font-size="14.00">Add</text>
</g>
<!-- 177604080&#45;&gt;17359a090 -->
<g id="edge3" class="edge">
<title>177604080&#45;&gt;17359a090</title>
<path fill="none" stroke="black" d="M221.58,-108.59C242.05,-105.02 265.35,-100.95 284.24,-97.66"/>
<polygon fill="black" stroke="black" points="284.62,-101.14 293.87,-95.98 283.42,-94.25 284.62,-101.14"/>
<text text-anchor="middle" x="283.36" y="-82.41" font-family="Times,serif" font-size="14.00">1.36</text>
<text text-anchor="middle" x="226.46" y="-95.29" font-family="Times,serif" font-size="14.00">N</text>
</g>
<!-- 109926ea0 -->
<g id="node5" class="node">
<title>109926ea0</title>
<ellipse fill="none" stroke="black" cx="470.83" cy="-199.25" rx="31.9" ry="18"/>
<text text-anchor="middle" x="470.83" y="-194.2" font-family="Times,serif" font-size="14.00">29.83</text>
</g>
<!-- 10fd43150&#45;&gt;109926ea0 -->
<g id="edge4" class="edge">
<title>10fd43150&#45;&gt;109926ea0</title>
<path fill="none" stroke="black" d="M360.01,-158.88C382.26,-167.06 410.46,-177.42 432.72,-185.61"/>
<polygon fill="black" stroke="black" points="431.42,-188.86 442.01,-189.02 433.83,-182.29 431.42,-188.86"/>
<text text-anchor="middle" x="355.13" y="-162.08" font-family="Times,serif" font-size="14.00">Y</text>
</g>
<!-- x0 -->
<g id="node6" class="node">
<title>x0</title>
<ellipse fill="none" stroke="black" cx="470.83" cy="-145.25" rx="27" ry="18"/>
<text text-anchor="middle" x="470.83" y="-140.2" font-family="Times,serif" font-size="14.00">x0</text>
</g>
<!-- 10fd43150&#45;&gt;x0 -->
<g id="edge5" class="edge">
<title>10fd43150&#45;&gt;x0</title>
<path fill="none" stroke="black" d="M379.31,-145.25C397.15,-145.25 416.41,-145.25 432.56,-145.25"/>
<polygon fill="black" stroke="black" points="432.19,-148.75 442.19,-145.25 432.19,-141.75 432.19,-148.75"/>
<text text-anchor="middle" x="428.33" y="-131.95" font-family="Times,serif" font-size="14.00">48.74</text>
<text text-anchor="middle" x="384.19" y="-131.95" font-family="Times,serif" font-size="14.00">N</text>
</g>
<!-- x1 -->
<g id="node7" class="node">
<title>x1</title>
<ellipse fill="none" stroke="black" cx="470.83" cy="-91.25" rx="27" ry="18"/>
<text text-anchor="middle" x="470.83" y="-86.2" font-family="Times,serif" font-size="14.00">x1</text>
</g>
<!-- 17359a090&#45;&gt;x1 -->
<g id="edge6" class="edge">
<title>17359a090&#45;&gt;x1</title>
<path fill="none" stroke="black" d="M349.2,-91.25C372.39,-91.25 406.45,-91.25 432.47,-91.25"/>
<polygon fill="black" stroke="black" points="432.28,-94.75 442.28,-91.25 432.28,-87.75 432.28,-94.75"/>
<text text-anchor="middle" x="408.93" y="-94.45" font-family="Times,serif" font-size="14.00">0.01</text>
</g>
<!-- x6 -->
<g id="node8" class="node">
<title>x6</title>
<ellipse fill="none" stroke="black" cx="470.83" cy="-37.25" rx="27" ry="18"/>
<text text-anchor="middle" x="470.83" y="-32.2" font-family="Times,serif" font-size="14.00">x6</text>
</g>
<!-- 17359a090&#45;&gt;x6 -->
<g id="edge7" class="edge">
<title>17359a090&#45;&gt;x6</title>
<path fill="none" stroke="black" d="M346.22,-82.69C370.39,-73.81 408.45,-59.81 435.96,-49.7"/>
<polygon fill="black" stroke="black" points="437.06,-53.02 445.24,-46.29 434.65,-46.45 437.06,-53.02"/>
<text text-anchor="middle" x="408.93" y="-65.45" font-family="Times,serif" font-size="14.00">8.16</text>
</g>
</g>
</svg>