<?xml version="1.0" encoding="UTF-8" standalone="no"?>
<!DOCTYPE svg PUBLIC "-//W3C//DTD SVG 1.1//EN"
 "http://www.w3.org/Graphics/SVG/1.1/DTD/svg11.dtd">
<!-- Generated by graphviz version 7.1.0 (20230122.1345)
 -->
<!-- Title: G Pages: 1 -->
<svg width="812pt" height="210pt"
 viewBox="0.00 0.00 812.46 210.00" xmlns="http://www.w3.org/2000/svg" xmlns:xlink="http://www.w3.org/1999/xlink">
<g id="graph0" class="graph" transform="scale(1 1) rotate(0) translate(4 206)">
<title>G</title>
<polygon fill="white" stroke="none" points="-4,4 -4,-206 808.46,-206 808.46,4 -4,4"/>
<!-- 5625d27dfb10 -->
<g id="node1" class="node">
<title>5625d27dfb10</title>
<ellipse fill="none" stroke="black" cx="775.87" cy="-163" rx="28.7" ry="18"/>
<text text-anchor="middle" x="775.87" y="-159.3" font-family="Times,serif" font-size="14.00">Add</text>
</g>
<!-- x6 -->
<g id="node2" class="node">
<title>x6</title>
<ellipse fill="none" stroke="black" cx="337.34" cy="-184" rx="27" ry="18"/>
<text text-anchor="middle" x="337.34" y="-180.3" font-family="Times,serif" font-size="14.00">x6</text>
</g>
<!-- 5625d27dfb10&#45;&gt;x6 -->
<g id="edge1" class="edge">
<title>5625d27dfb10&#45;&gt;x6</title>
<path fill="none" stroke="black" d="M746.9,-164.35C671.14,-167.99 461.94,-178.05 375.97,-182.19"/>
<polygon fill="black" stroke="black" points="376.02,-178.68 366.2,-182.66 376.35,-185.68 376.02,-178.68"/>
<text text-anchor="middle" x="561.28" y="-177.8" font-family="Times,serif" font-size="14.00">10.57</text>
</g>
<!-- 5625d1de0610 -->
<g id="node3" class="node">
<title>5625d1de0610</title>
<ellipse fill="none" stroke="black" cx="655.02" cy="-133" rx="55.49" ry="18"/>
<text text-anchor="middle" x="655.02" y="-129.3" font-family="Times,serif" font-size="14.00">x0&gt;0.75?</text>
</g>
<!-- 5625d27dfb10&#45;&gt;5625d1de0610 -->
<g id="edge2" class="edge">
<title>5625d27dfb10&#45;&gt;5625d1de0610</title>
<path fill="none" stroke="black" d="M748.79,-156.42C737.58,-153.59 724.03,-150.17 710.79,-146.82"/>
<polygon fill="black" stroke="black" points="711.81,-143.47 701.26,-144.42 710.1,-150.26 711.81,-143.47"/>
</g>
<!-- 5625d3c02820 -->
<g id="node4" class="node">
<title>5625d3c02820</title>
<ellipse fill="none" stroke="black" cx="494.18" cy="-133" rx="28.7" ry="18"/>
<text text-anchor="middle" x="494.18" y="-129.3" font-family="Times,serif" font-size="14.00">Add</text>
</g>
<!-- 5625d1de0610&#45;&gt;5625d3c02820 -->
<g id="edge3" class="edge">
<title>5625d1de0610&#45;&gt;5625d3c02820</title>
<path fill="none" stroke="black" d="M599.36,-133C578,-133 554,-133 534.41,-133"/>
<polygon fill="black" stroke="black" points="534.67,-129.5 524.67,-133 534.67,-136.5 534.67,-129.5"/>
<text text-anchor="middle" x="594.36" y="-121.8" font-family="Times,serif" font-size="14.00">Y</text>
</g>
<!-- 5625d1ddc200 -->
<g id="node5" class="node">
<title>5625d1ddc200</title>
<ellipse fill="none" stroke="black" cx="494.18" cy="-72" rx="28.7" ry="18"/>
<text text-anchor="middle" x="494.18" y="-68.3" font-family="Times,serif" font-size="14.00">Add</text>
</g>
<!-- 5625d1de0610&#45;&gt;5625d1ddc200 -->
<g id="edge4" class="edge">
<title>5625d1de0610&#45;&gt;5625d1ddc200</title>
<path fill="none" stroke="black" d="M617.98,-119.16C591.55,-109.01 555.87,-95.31 529.79,-85.29"/>
<polygon fill="black" stroke="black" points="531.25,-82.1 520.66,-81.79 528.74,-88.64 531.25,-82.1"/>
<text text-anchor="middle" x="624.48" y="-107.96" font-family="Times,serif" font-size="14.00">N</text>
</g>
<!-- 5625d3c02820&#45;&gt;x6 -->
<g id="edge5" class="edge">
<title>5625d3c02820&#45;&gt;x6</title>
<path fill="none" stroke="black" d="M467.36,-139.97C450.99,-144.51 429.43,-150.75 410.58,-157 397.84,-161.23 383.99,-166.29 371.86,-170.88"/>
<polygon fill="black" stroke="black" points="370.79,-167.54 362.7,-174.38 373.29,-174.08 370.79,-167.54"/>
<text text-anchor="middle" x="429.08" y="-160.8" font-family="Times,serif" font-size="14.00">8.50</text>
</g>
<!-- 5625d27cb4a0 -->
<g id="node6" class="node">
<title>5625d27cb4a0</title>
<ellipse fill="none" stroke="black" cx="337.34" cy="-126" rx="55.49" ry="18"/>
<text text-anchor="middle" x="337.34" y="-122.3" font-family="Times,serif" font-size="14.00">x0&gt;0.81?</text>
</g>
<!-- 5625d3c02820&#45;&gt;5625d27cb4a0 -->
<g id="edge6" class="edge">
<title>5625d3c02820&#45;&gt;5625d27cb4a0</title>
<path fill="none" stroke="black" d="M465.14,-131.73C448.08,-130.96 425.52,-129.94 404.16,-128.98"/>
<polygon fill="black" stroke="black" points="404.47,-125.49 394.32,-128.53 404.15,-132.48 404.47,-125.49"/>
</g>
<!-- 5625d1d1bc10 -->
<g id="node11" class="node">
<title>5625d1d1bc10</title>
<ellipse fill="none" stroke="black" cx="337.34" cy="-72" rx="28.7" ry="18"/>
<text text-anchor="middle" x="337.34" y="-68.3" font-family="Times,serif" font-size="14.00">Add</text>
</g>
<!-- 5625d1ddc200&#45;&gt;5625d1d1bc10 -->
<g id="edge11" class="edge">
<title>5625d1ddc200&#45;&gt;5625d1d1bc10</title>
<path fill="none" stroke="black" d="M465.14,-72C440.77,-72 405.2,-72 377.93,-72"/>
<polygon fill="black" stroke="black" points="377.95,-68.5 367.95,-72 377.95,-75.5 377.95,-68.5"/>
</g>
<!-- x1 -->
<g id="node12" class="node">
<title>x1</title>
<ellipse fill="none" stroke="black" cx="337.34" cy="-18" rx="27" ry="18"/>
<text text-anchor="middle" x="337.34" y="-14.3" font-family="Times,serif" font-size="14.00">x1</text>
</g>
<!-- 5625d1ddc200&#45;&gt;x1 -->
<g id="edge12" class="edge">
<title>5625d1ddc200&#45;&gt;x1</title>
<path fill="none" stroke="black" d="M470.13,-61.95C462.96,-58.94 454.99,-55.72 447.58,-53 423.03,-43.97 394.9,-34.99 373.34,-28.39"/>
<polygon fill="black" stroke="black" points="374.44,-25.06 363.85,-25.51 372.41,-31.76 374.44,-25.06"/>
<text text-anchor="middle" x="429.08" y="-56.8" font-family="Times,serif" font-size="14.00">&#45;0.09</text>
</g>
<!-- 5625d1c92dc0 -->
<g id="node7" class="node">
<title>5625d1c92dc0</title>
<ellipse fill="none" stroke="black" cx="177.05" cy="-178" rx="37.09" ry="18"/>
<text text-anchor="middle" x="177.05" y="-174.3" font-family="Times,serif" font-size="14.00">26.02</text>
</g>
<!-- 5625d27cb4a0&#45;&gt;5625d1c92dc0 -->
<g id="edge7" class="edge">
<title>5625d27cb4a0&#45;&gt;5625d1c92dc0</title>
<path fill="none" stroke="black" d="M297.21,-138.85C273.58,-146.62 243.49,-156.5 219.46,-164.4"/>
<polygon fill="black" stroke="black" points="218.39,-161.06 209.98,-167.51 220.58,-167.71 218.39,-161.06"/>
<text text-anchor="middle" x="302.21" y="-142.65" font-family="Times,serif" font-size="14.00">Y</text>
</g>
<!-- 5625d2515750 -->
<g id="node8" class="node">
<title>5625d2515750</title>
<ellipse fill="none" stroke="black" cx="177.05" cy="-124" rx="28.7" ry="18"/>
<text text-anchor="middle" x="177.05" y="-120.3" font-family="Times,serif" font-size="14.00">Add</text>
</g>
<!-- 5625d27cb4a0&#45;&gt;5625d2515750 -->
<g id="edge8" class="edge">
<title>5625d27cb4a0&#45;&gt;5625d2515750</title>
<path fill="none" stroke="black" d="M281.42,-125.31C260.42,-125.04 236.9,-124.74 217.61,-124.5"/>
<polygon fill="black" stroke="black" points="217.76,-121 207.71,-124.37 217.67,-128 217.76,-121"/>
<text text-anchor="middle" x="274.92" y="-114.11" font-family="Times,serif" font-size="14.00">N</text>
</g>
<!-- x4 -->
<g id="node9" class="node">
<title>x4</title>
<ellipse fill="none" stroke="black" cx="27" cy="-81" rx="27" ry="18"/>
<text text-anchor="middle" x="27" y="-77.3" font-family="Times,serif" font-size="14.00">x4</text>
</g>
<!-- 5625d2515750&#45;&gt;x4 -->
<g id="edge9" class="edge">
<title>5625d2515750&#45;&gt;x4</title>
<path fill="none" stroke="black" d="M150.6,-116.61C126.44,-109.59 89.91,-98.98 63.01,-91.17"/>
<polygon fill="black" stroke="black" points="64.17,-87.86 53.59,-88.43 62.22,-94.58 64.17,-87.86"/>
<text text-anchor="middle" x="97" y="-110.8" font-family="Times,serif" font-size="14.00">&#45;9.31</text>
</g>
<!-- x0 -->
<g id="node10" class="node">
<title>x0</title>
<ellipse fill="none" stroke="black" cx="27" cy="-144" rx="27" ry="18"/>
<text text-anchor="middle" x="27" y="-140.3" font-family="Times,serif" font-size="14.00">x0</text>
</g>
<!-- 5625d2515750&#45;&gt;x0 -->
<g id="edge10" class="edge">
<title>5625d2515750&#45;&gt;x0</title>
<path fill="none" stroke="black" d="M148.55,-127.71C125.05,-130.89 91.04,-135.48 65.13,-138.98"/>
<polygon fill="black" stroke="black" points="64.81,-135.5 55.36,-140.3 65.74,-142.43 64.81,-135.5"/>
<text text-anchor="middle" x="97" y="-140.8" font-family="Times,serif" font-size="14.00">127.74</text>
</g>
<!-- 5625d1d1bc10&#45;&gt;x4 -->
<g id="edge13" class="edge">
<title>5625d1d1bc10&#45;&gt;x4</title>
<path fill="none" stroke="black" d="M308.43,-72.81C252.86,-74.44 128.35,-78.07 65.63,-79.9"/>
<polygon fill="black" stroke="black" points="65.71,-76.4 55.82,-80.19 65.92,-83.39 65.71,-76.4"/>
<text text-anchor="middle" x="177.05" y="-80.8" font-family="Times,serif" font-size="14.00">13.60</text>
</g>
<!-- x2 -->
<g id="node13" class="node">
<title>x2</title>
<ellipse fill="none" stroke="black" cx="177.05" cy="-19" rx="27" ry="18"/>
<text text-anchor="middle" x="177.05" y="-15.3" font-family="Times,serif" font-size="14.00">x2</text>
</g>
<!-- 5625d1d1bc10&#45;&gt;x2 -->
<g id="edge14" class="edge">
<title>5625d1d1bc10&#45;&gt;x2</title>
<path fill="none" stroke="black" d="M312.78,-62.27C298.75,-56.63 280.53,-49.56 264.09,-44 247.61,-38.42 229.11,-32.95 213.49,-28.55"/>
<polygon fill="black" stroke="black" points="214.73,-25.26 204.16,-25.96 212.86,-32.01 214.73,-25.26"/>
<text text-anchor="middle" x="248.09" y="-47.8" font-family="Times,serif" font-size="14.00">0.11</text>
</g>
</g>
</svg>