<?xml version="1.0" encoding="UTF-8" standalone="no"?>
<!DOCTYPE svg PUBLIC "-//W3C//DTD SVG 1.1//EN"
 "http://www.w3.org/Graphics/SVG/1.1/DTD/svg11.dtd">
<!-- Generated by graphviz version 12.0.0 (0)
 -->
<!-- Title: G Pages: 1 -->
<svg width="256pt" height="383pt"
 viewBox="0.00 0.00 256.00 382.50" xmlns="http://www.w3.org/2000/svg" xmlns:xlink="http://www.w3.org/1999/xlink">
<g id="graph0" class="graph" transform="scale(1 1) rotate(0) translate(4 378.5)">
<title>G</title>
<polygon fill="white" stroke="none" points="-4,4 -4,-378.5 252,-378.5 252,4 -4,4"/>
<!-- 141fd3450 -->
<g id="node1" class="node">
<title>141fd3450</title>
<ellipse fill="none" stroke="black" cx="75" cy="-356.5" rx="27" ry="18"/>
<text text-anchor="middle" x="75" y="-351.45" font-family="Times,serif" font-size="14.00">Add</text>
</g>
<!-- 141fd2090 -->
<g id="node2" class="node">
<title>141fd2090</title>
<ellipse fill="none" stroke="black" cx="27" cy="-268" rx="27" ry="18"/>
<text text-anchor="middle" x="27" y="-262.95" font-family="Times,serif" font-size="14.00">Exp</text>
</g>
<!-- 141fd3450&#45;&gt;141fd2090 -->
<g id="edge1" class="edge">
<title>141fd3450&#45;&gt;141fd2090</title>
<path fill="none" stroke="black" d="M65.97,-339.23C59.07,-326.79 49.41,-309.38 41.43,-295.01"/>
<polygon fill="black" stroke="black" points="44.63,-293.57 36.72,-286.52 38.51,-296.96 44.63,-293.57"/>
<text text-anchor="middle" x="70.38" y="-307.2" font-family="Times,serif" font-size="14.00">11.38</text>
</g>
<!-- 141fcbe00 -->
<g id="node3" class="node">
<title>141fcbe00</title>
<ellipse fill="none" stroke="black" cx="124" cy="-268" rx="51.86" ry="18"/>
<text text-anchor="middle" x="124" y="-262.95" font-family="Times,serif" font-size="14.00">x0&gt;=0.76?</text>
</g>
<!-- 141fd3450&#45;&gt;141fcbe00 -->
<g id="edge2" class="edge">
<title>141fd3450&#45;&gt;141fcbe00</title>
<path fill="none" stroke="black" d="M84.22,-339.23C91.13,-327.02 100.75,-310.04 108.8,-295.83"/>
<polygon fill="black" stroke="black" points="111.69,-297.83 113.58,-287.4 105.6,-294.38 111.69,-297.83"/>
</g>
<!-- x6 -->
<g id="node4" class="node">
<title>x6</title>
<ellipse fill="none" stroke="black" cx="27" cy="-195" rx="27" ry="18"/>
<text text-anchor="middle" x="27" y="-189.95" font-family="Times,serif" font-size="14.00">x6</text>
</g>
<!-- 141fd2090&#45;&gt;x6 -->
<g id="edge3" class="edge">
<title>141fd2090&#45;&gt;x6</title>
<path fill="none" stroke="black" d="M27,-249.81C27,-242.23 27,-233.1 27,-224.54"/>
<polygon fill="black" stroke="black" points="30.5,-224.54 27,-214.54 23.5,-224.54 30.5,-224.54"/>
</g>
<!-- 141fe2370 -->
<g id="node5" class="node">
<title>141fe2370</title>
<ellipse fill="none" stroke="black" cx="124" cy="-195" rx="51.86" ry="18"/>
<text text-anchor="middle" x="124" y="-189.95" font-family="Times,serif" font-size="14.00">x0&gt;=0.82?</text>
</g>
<!-- 141fcbe00&#45;&gt;141fe2370 -->
<g id="edge4" class="edge">
<title>141fcbe00&#45;&gt;141fe2370</title>
<path fill="none" stroke="black" d="M124,-249.81C124,-242.23 124,-233.1 124,-224.54"/>
<polygon fill="black" stroke="black" points="127.5,-224.54 124,-214.54 120.5,-224.54 127.5,-224.54"/>
<text text-anchor="middle" x="119.12" y="-236.51" font-family="Times,serif" font-size="14.00">Y</text>
</g>
<!-- 141ff19f0 -->
<g id="node6" class="node">
<title>141ff19f0</title>
<ellipse fill="none" stroke="black" cx="221" cy="-195" rx="27" ry="18"/>
<text text-anchor="middle" x="221" y="-189.95" font-family="Times,serif" font-size="14.00">Exp</text>
</g>
<!-- 141fcbe00&#45;&gt;141ff19f0 -->
<g id="edge5" class="edge">
<title>141fcbe00&#45;&gt;141ff19f0</title>
<path fill="none" stroke="black" d="M145.53,-251.24C159.95,-240.69 179.03,-226.72 194.4,-215.47"/>
<polygon fill="black" stroke="black" points="196.2,-218.49 202.2,-209.76 192.06,-212.84 196.2,-218.49"/>
<text text-anchor="middle" x="147.96" y="-237.94" font-family="Times,serif" font-size="14.00">N</text>
</g>
<!-- 141fe2420 -->
<g id="node7" class="node">
<title>141fe2420</title>
<ellipse fill="none" stroke="black" cx="59" cy="-106.5" rx="31.9" ry="18"/>
<text text-anchor="middle" x="59" y="-101.45" font-family="Times,serif" font-size="14.00">15.89</text>
</g>
<!-- 141fe2370&#45;&gt;141fe2420 -->
<g id="edge6" class="edge">
<title>141fe2370&#45;&gt;141fe2420</title>
<path fill="none" stroke="black" d="M111.47,-177.32C101.9,-164.6 88.58,-146.86 77.75,-132.45"/>
<polygon fill="black" stroke="black" points="80.77,-130.64 71.96,-124.75 75.17,-134.85 80.77,-130.64"/>
<text text-anchor="middle" x="106.59" y="-164.02" font-family="Times,serif" font-size="14.00">Y</text>
</g>
<!-- x3 -->
<g id="node8" class="node">
<title>x3</title>
<ellipse fill="none" stroke="black" cx="136" cy="-106.5" rx="27" ry="18"/>
<text text-anchor="middle" x="136" y="-101.45" font-family="Times,serif" font-size="14.00">x3</text>
</g>
<!-- 141fe2370&#45;&gt;x3 -->
<g id="edge7" class="edge">
<title>141fe2370&#45;&gt;x3</title>
<path fill="none" stroke="black" d="M126.37,-176.91C127.99,-165.26 130.17,-149.55 132.04,-136.02"/>
<polygon fill="black" stroke="black" points="135.48,-136.74 133.39,-126.35 128.54,-135.77 135.48,-136.74"/>
<text text-anchor="middle" x="121.59" y="-128.05" font-family="Times,serif" font-size="14.00">0.18</text>
<text text-anchor="middle" x="121.5" y="-163.61" font-family="Times,serif" font-size="14.00">N</text>
</g>
<!-- 141fd89e0 -->
<g id="node9" class="node">
<title>141fd89e0</title>
<ellipse fill="none" stroke="black" cx="221" cy="-106.5" rx="27" ry="18"/>
<text text-anchor="middle" x="221" y="-101.45" font-family="Times,serif" font-size="14.00">Sin</text>
</g>
<!-- 141ff19f0&#45;&gt;141fd89e0 -->
<g id="edge8" class="edge">
<title>141ff19f0&#45;&gt;141fd89e0</title>
<path fill="none" stroke="black" d="M221,-176.91C221,-165.26 221,-149.55 221,-136.02"/>
<polygon fill="black" stroke="black" points="224.5,-136.36 221,-126.36 217.5,-136.36 224.5,-136.36"/>
<text text-anchor="middle" x="233" y="-145.7" font-family="Times,serif" font-size="14.00">1.79</text>
</g>
<!-- x1 -->
<g id="node10" class="node">
<title>x1</title>
<ellipse fill="none" stroke="black" cx="221" cy="-18" rx="27" ry="18"/>
<text text-anchor="middle" x="221" y="-12.95" font-family="Times,serif" font-size="14.00">x1</text>
</g>
<!-- 141fd89e0&#45;&gt;x1 -->
<g id="edge9" class="edge">
<title>141fd89e0&#45;&gt;x1</title>
<path fill="none" stroke="black" d="M221,-88.41C221,-76.76 221,-61.05 221,-47.52"/>
<polygon fill="black" stroke="black" points="224.5,-47.86 221,-37.86 217.5,-47.86 224.5,-47.86"/>
<text text-anchor="middle" x="233" y="-57.2" font-family="Times,serif" font-size="14.00">0.82</text>
</g>
</g>
</svg>