<?xml version="1.0" encoding="UTF-8" standalone="no"?>
<!DOCTYPE svg PUBLIC "-//W3C//DTD SVG 1.1//EN"
 "http://www.w3.org/Graphics/SVG/1.1/DTD/svg11.dtd">
<!-- Generated by graphviz version 7.1.0 (20230122.1345)
 -->
<!-- Title: G Pages: 1 -->
<svg width="812pt" height="210pt"
 viewBox="0.00 0.00 812.46 210.00" xmlns="http://www.w3.org/2000/svg" xmlns:xlink="http://www.w3.org/1999/xlink">
<g id="graph0" class="graph" transform="scale(1 1) rotate(0) translate(4 206)">
<title>G</title>
<polygon fill="white" stroke="none" points="-4,4 -4,-206 808.46,-206 808.46,4 -4,4"/>
<!-- 5625d27dfb10 -->
<g id="node1" class="node">
<title>5625d27dfb10</title>
<ellipse fill="none" stroke="black" cx="28.6" cy="-163" rx="28.7" ry="18"/>
<text text-anchor="middle" x="28.6" y="-159.3" font-family="Times,serif" font-size="14.00">Add</text>
</g>
<!-- x6 -->
<g id="node2" class="node">
<title>x6</title>
<ellipse fill="none" stroke="black" cx="467.13" cy="-184" rx="27" ry="18"/>
<text text-anchor="middle" x="467.13" y="-180.3" font-family="Times,serif" font-size="14.00">x6</text>
</g>
<!-- 5625d27dfb10&#45;&gt;x6 -->
<g id="edge1" class="edge">
<title>5625d27dfb10&#45;&gt;x6</title>
<path fill="none" stroke="black" d="M57.57,-164.35C133.32,-167.99 342.52,-178.05 428.49,-182.19"/>
<polygon fill="black" stroke="black" points="428.11,-185.68 438.27,-182.66 428.45,-178.68 428.11,-185.68"/>
<text text-anchor="middle" x="243.19" y="-177.8" font-family="Times,serif" font-size="14.00">10.57</text>
</g>
<!-- 5625d1de0610 -->
<g id="node3" class="node">
<title>5625d1de0610</title>
<ellipse fill="none" stroke="black" cx="149.44" cy="-133" rx="55.49" ry="18"/>
<text text-anchor="middle" x="149.44" y="-129.3" font-family="Times,serif" font-size="14.00">x0&gt;0.75?</text>
</g>
<!-- 5625d27dfb10&#45;&gt;5625d1de0610 -->
<g id="edge2" class="edge">
<title>5625d27dfb10&#45;&gt;5625d1de0610</title>
<path fill="none" stroke="black" d="M55.68,-156.42C66.89,-153.59 80.44,-150.17 93.68,-146.82"/>
<polygon fill="black" stroke="black" points="94.36,-150.26 103.2,-144.42 92.65,-143.47 94.36,-150.26"/>
</g>
<!-- 5625d3c02820 -->
<g id="node4" class="node">
<title>5625d3c02820</title>
<ellipse fill="none" stroke="black" cx="310.28" cy="-133" rx="28.7" ry="18"/>
<text text-anchor="middle" x="310.28" y="-129.3" font-family="Times,serif" font-size="14.00">Add</text>
</g>
<!-- 5625d1de0610&#45;&gt;5625d3c02820 -->
<g id="edge3" class="edge">
<title>5625d1de0610&#45;&gt;5625d3c02820</title>
<path fill="none" stroke="black" d="M205.1,-133C226.46,-133 250.47,-133 270.05,-133"/>
<polygon fill="black" stroke="black" points="269.8,-136.5 279.8,-133 269.8,-129.5 269.8,-136.5"/>
<text text-anchor="middle" x="210.1" y="-121.8" font-family="Times,serif" font-size="14.00">Y</text>
</g>
<!-- 5625d1ddc200 -->
<g id="node5" class="node">
<title>5625d1ddc200</title>
<ellipse fill="none" stroke="black" cx="310.28" cy="-72" rx="28.7" ry="18"/>
<text text-anchor="middle" x="310.28" y="-68.3" font-family="Times,serif" font-size="14.00">Add</text>
</g>
<!-- 5625d1de0610&#45;&gt;5625d1ddc200 -->
<g id="edge4" class="edge">
<title>5625d1de0610&#45;&gt;5625d1ddc200</title>
<path fill="none" stroke="black" d="M186.48,-119.16C212.91,-109.01 248.59,-95.31 274.68,-85.29"/>
<polygon fill="black" stroke="black" points="275.72,-88.64 283.8,-81.79 273.21,-82.1 275.72,-88.64"/>
<text text-anchor="middle" x="179.98" y="-107.96" font-family="Times,serif" font-size="14.00">N</text>
</g>
<!-- 5625d3c02820&#45;&gt;x6 -->
<g id="edge5" class="edge">
<title>5625d3c02820&#45;&gt;x6</title>
<path fill="none" stroke="black" d="M337.11,-139.97C353.47,-144.51 375.03,-150.75 393.88,-157 406.63,-161.23 420.48,-166.29 432.6,-170.88"/>
<polygon fill="black" stroke="black" points="431.18,-174.08 441.77,-174.38 433.68,-167.54 431.18,-174.08"/>
<text text-anchor="middle" x="375.38" y="-160.8" font-family="Times,serif" font-size="14.00">8.50</text>
</g>
<!-- 5625d27cb4a0 -->
<g id="node6" class="node">
<title>5625d27cb4a0</title>
<ellipse fill="none" stroke="black" cx="467.13" cy="-126" rx="55.49" ry="18"/>
<text text-anchor="middle" x="467.13" y="-122.3" font-family="Times,serif" font-size="14.00">x0&gt;0.81?</text>
</g>
<!-- 5625d3c02820&#45;&gt;5625d27cb4a0 -->
<g id="edge6" class="edge">
<title>5625d3c02820&#45;&gt;5625d27cb4a0</title>
<path fill="none" stroke="black" d="M339.32,-131.73C356.39,-130.96 378.95,-129.94 400.3,-128.98"/>
<polygon fill="black" stroke="black" points="400.31,-132.48 410.15,-128.53 400,-125.49 400.31,-132.48"/>
</g>
<!-- 5625d1d1bc10 -->
<g id="node11" class="node">
<title>5625d1d1bc10</title>
<ellipse fill="none" stroke="black" cx="467.13" cy="-72" rx="28.7" ry="18"/>
<text text-anchor="middle" x="467.13" y="-68.3" font-family="Times,serif" font-size="14.00">Add</text>
</g>
<!-- 5625d1ddc200&#45;&gt;5625d1d1bc10 -->
<g id="edge11" class="edge">
<title>5625d1ddc200&#45;&gt;5625d1d1bc10</title>
<path fill="none" stroke="black" d="M339.32,-72C363.69,-72 399.26,-72 426.53,-72"/>
<polygon fill="black" stroke="black" points="426.52,-75.5 436.52,-72 426.52,-68.5 426.52,-75.5"/>
</g>
<!-- x1 -->
<g id="node12" class="node">
<title>x1</title>
<ellipse fill="none" stroke="black" cx="467.13" cy="-18" rx="27" ry="18"/>
<text text-anchor="middle" x="467.13" y="-14.3" font-family="Times,serif" font-size="14.00">x1</text>
</g>
<!-- 5625d1ddc200&#45;&gt;x1 -->
<g id="edge12" class="edge">
<title>5625d1ddc200&#45;&gt;x1</title>
<path fill="none" stroke="black" d="M334.33,-61.95C341.5,-58.94 349.48,-55.72 356.88,-53 381.44,-43.97 409.56,-34.99 431.13,-28.39"/>
<polygon fill="black" stroke="black" points="432.06,-31.76 440.61,-25.51 430.02,-25.06 432.06,-31.76"/>
<text text-anchor="middle" x="375.38" y="-56.8" font-family="Times,serif" font-size="14.00">&#45;0.09</text>
</g>
<!-- 5625d1c92dc0 -->
<g id="node7" class="node">
<title>5625d1c92dc0</title>
<ellipse fill="none" stroke="black" cx="627.42" cy="-178" rx="37.09" ry="18"/>
<text text-anchor="middle" x="627.42" y="-174.3" font-family="Times,serif" font-size="14.00">26.02</text>
</g>
<!-- 5625d27cb4a0&#45;&gt;5625d1c92dc0 -->
<g id="edge7" class="edge">
<title>5625d27cb4a0&#45;&gt;5625d1c92dc0</title>
<path fill="none" stroke="black" d="M507.25,-138.85C530.89,-146.62 560.98,-156.5 585.01,-164.4"/>
<polygon fill="black" stroke="black" points="583.89,-167.71 594.48,-167.51 586.07,-161.06 583.89,-167.71"/>
<text text-anchor="middle" x="502.25" y="-142.65" font-family="Times,serif" font-size="14.00">Y</text>
</g>
<!-- 5625d2515750 -->
<g id="node8" class="node">
<title>5625d2515750</title>
<ellipse fill="none" stroke="black" cx="627.42" cy="-124" rx="28.7" ry="18"/>
<text text-anchor="middle" x="627.42" y="-120.3" font-family="Times,serif" font-size="14.00">Add</text>
</g>
<!-- 5625d27cb4a0&#45;&gt;5625d2515750 -->
<g id="edge8" class="edge">
<title>5625d27cb4a0&#45;&gt;5625d2515750</title>
<path fill="none" stroke="black" d="M523.04,-125.31C544.04,-125.04 567.56,-124.74 586.86,-124.5"/>
<polygon fill="black" stroke="black" points="586.79,-128 596.75,-124.37 586.71,-121 586.79,-128"/>
<text text-anchor="middle" x="529.54" y="-114.11" font-family="Times,serif" font-size="14.00">N</text>
</g>
<!-- x4 -->
<g id="node9" class="node">
<title>x4</title>
<ellipse fill="none" stroke="black" cx="777.46" cy="-81" rx="27" ry="18"/>
<text text-anchor="middle" x="777.46" y="-77.3" font-family="Times,serif" font-size="14.00">x4</text>
</g>
<!-- 5625d2515750&#45;&gt;x4 -->
<g id="edge9" class="edge">
<title>5625d2515750&#45;&gt;x4</title>
<path fill="none" stroke="black" d="M653.87,-116.61C678.03,-109.59 714.55,-98.98 741.45,-91.17"/>
<polygon fill="black" stroke="black" points="742.25,-94.58 750.87,-88.43 740.29,-87.86 742.25,-94.58"/>
<text text-anchor="middle" x="707.46" y="-110.8" font-family="Times,serif" font-size="14.00">&#45;9.31</text>
</g>
<!-- x0 -->
<g id="node10" class="node">
<title>x0</title>
<ellipse fill="none" stroke="black" cx="777.46" cy="-144" rx="27" ry="18"/>
<text text-anchor="middle" x="777.46" y="-140.3" font-family="Times,serif" font-size="14.00">x0</text>
</g>
<!-- 5625d2515750&#45;&gt;x0 -->
<g id="edge10" class="edge">
<title>5625d2515750&#45;&gt;x0</title>
<path fill="none" stroke="black" d="M655.92,-127.71C679.41,-130.89 713.42,-135.48 739.33,-138.98"/>
<polygon fill="black" stroke="black" points="738.72,-142.43 749.1,-140.3 739.66,-135.5 738.72,-142.43"/>
<text text-anchor="middle" x="707.46" y="-140.8" font-family="Times,serif" font-size="14.00">127.74</text>
</g>
<!-- 5625d1d1bc10&#45;&gt;x4 -->
<g id="edge13" class="edge">
<title>5625d1d1bc10&#45;&gt;x4</title>
<path fill="none" stroke="black" d="M496.03,-72.81C551.6,-74.44 676.11,-78.07 738.83,-79.9"/>
<polygon fill="black" stroke="black" points="738.55,-83.39 748.64,-80.19 738.75,-76.4 738.55,-83.39"/>
<text text-anchor="middle" x="627.42" y="-80.8" font-family="Times,serif" font-size="14.00">13.60</text>
</g>
<!-- x2 -->
<g id="node13" class="node">
<title>x2</title>
<ellipse fill="none" stroke="black" cx="627.42" cy="-19" rx="27" ry="18"/>
<text text-anchor="middle" x="627.42" y="-15.3" font-family="Times,serif" font-size="14.00">x2</text>
</g>
<!-- 5625d1d1bc10&#45;&gt;x2 -->
<g id="edge14" class="edge">
<title>5625d1d1bc10&#45;&gt;x2</title>
<path fill="none" stroke="black" d="M491.69,-62.27C505.72,-56.63 523.93,-49.56 540.37,-44 556.85,-38.42 575.36,-32.95 590.97,-28.55"/>
<polygon fill="black" stroke="black" points="591.61,-32.01 600.3,-25.96 589.73,-25.26 591.61,-32.01"/>
<text text-anchor="middle" x="556.37" y="-47.8" font-family="Times,serif" font-size="14.00">0.11</text>
</g>
</g>
</svg>