<?xml version="1.0" encoding="UTF-8" standalone="no"?>
<!DOCTYPE svg PUBLIC "-//W3C//DTD SVG 1.1//EN"
 "http://www.w3.org/Graphics/SVG/1.1/DTD/svg11.dtd">
<!-- Generated by graphviz version 9.0.0 (20231125.0833)
 -->
<!-- Title: G Pages: 1 -->
<svg width="466pt" height="758pt"
 viewBox="0.00 0.00 466.40 758.00" xmlns="http://www.w3.org/2000/svg" xmlns:xlink="http://www.w3.org/1999/xlink">
<g id="graph0" class="graph" transform="scale(1 1) rotate(0) translate(4 754)">
<title>G</title>
<polygon fill="white" stroke="none" points="-4,4 -4,-754 462.4,-754 462.4,4 -4,4"/>
<!-- 7f06d078a6b0 -->
<g id="node1" class="node">
<title>7f06d078a6b0</title>
<ellipse fill="none" stroke="black" cx="205.08" cy="-732" rx="30.69" ry="18"/>
<text text-anchor="middle" x="205.08" y="-727.33" font-family="Times,serif" font-size="14.00">Add</text>
</g>
<!-- 7f06d07eccf0 -->
<g id="node2" class="node">
<title>7f06d07eccf0</title>
<ellipse fill="none" stroke="black" cx="152.08" cy="-642.75" rx="59.1" ry="18"/>
<text text-anchor="middle" x="152.08" y="-638.08" font-family="Times,serif" font-size="14.00">x0&gt;0.75?</text>
</g>
<!-- 7f06d078a6b0&#45;&gt;7f06d07eccf0 -->
<g id="edge1" class="edge">
<title>7f06d078a6b0&#45;&gt;7f06d07eccf0</title>
<path fill="none" stroke="black" d="M195.11,-714.59C187.51,-702.08 176.88,-684.59 168.09,-670.12"/>
<polygon fill="black" stroke="black" points="171.33,-668.71 163.15,-661.98 165.35,-672.34 171.33,-668.71"/>
</g>
<!-- 7f06d0521c70 -->
<g id="node3" class="node">
<title>7f06d0521c70</title>
<ellipse fill="none" stroke="black" cx="260.08" cy="-642.75" rx="30.69" ry="18"/>
<text text-anchor="middle" x="260.08" y="-638.08" font-family="Times,serif" font-size="14.00">Add</text>
</g>
<!-- 7f06d078a6b0&#45;&gt;7f06d0521c70 -->
<g id="edge2" class="edge">
<title>7f06d078a6b0&#45;&gt;7f06d0521c70</title>
<path fill="none" stroke="black" d="M215.42,-714.59C223.41,-701.91 234.62,-684.14 243.8,-669.56"/>
<polygon fill="black" stroke="black" points="246.6,-671.69 248.97,-661.37 240.68,-667.96 246.6,-671.69"/>
<text text-anchor="middle" x="256.08" y="-682.7" font-family="Times,serif" font-size="14.00">&#45;1.23</text>
</g>
<!-- 7f06d0910d60 -->
<g id="node4" class="node">
<title>7f06d0910d60</title>
<ellipse fill="none" stroke="black" cx="72.08" cy="-553.5" rx="59.1" ry="18"/>
<text text-anchor="middle" x="72.08" y="-548.83" font-family="Times,serif" font-size="14.00">x0&gt;0.81?</text>
</g>
<!-- 7f06d07eccf0&#45;&gt;7f06d0910d60 -->
<g id="edge3" class="edge">
<title>7f06d07eccf0&#45;&gt;7f06d0910d60</title>
<path fill="none" stroke="black" d="M136.65,-624.93C124.81,-612.01 108.27,-593.98 94.9,-579.4"/>
<polygon fill="black" stroke="black" points="97.81,-577.39 88.48,-572.39 92.65,-582.12 97.81,-577.39"/>
<text text-anchor="middle" x="132.15" y="-611.63" font-family="Times,serif" font-size="14.00">Y</text>
</g>
<!-- x1 -->
<g id="node5" class="node">
<title>x1</title>
<ellipse fill="none" stroke="black" cx="176.08" cy="-553.5" rx="27" ry="18"/>
<text text-anchor="middle" x="176.08" y="-548.83" font-family="Times,serif" font-size="14.00">x1</text>
</g>
<!-- 7f06d07eccf0&#45;&gt;x1 -->
<g id="edge4" class="edge">
<title>7f06d07eccf0&#45;&gt;x1</title>
<path fill="none" stroke="black" d="M156.82,-624.51C160.1,-612.56 164.56,-596.38 168.35,-582.58"/>
<polygon fill="black" stroke="black" points="171.66,-583.73 170.94,-573.16 164.92,-581.87 171.66,-583.73"/>
<text text-anchor="middle" x="155.59" y="-575.65" font-family="Times,serif" font-size="14.00">0.02</text>
<text text-anchor="middle" x="150.82" y="-611.21" font-family="Times,serif" font-size="14.00">N</text>
</g>
<!-- 7f06d00de880 -->
<g id="node8" class="node">
<title>7f06d00de880</title>
<ellipse fill="none" stroke="black" cx="254.08" cy="-553.5" rx="27.53" ry="18"/>
<text text-anchor="middle" x="254.08" y="-548.83" font-family="Times,serif" font-size="14.00">Sin</text>
</g>
<!-- 7f06d0521c70&#45;&gt;7f06d00de880 -->
<g id="edge7" class="edge">
<title>7f06d0521c70&#45;&gt;7f06d00de880</title>
<path fill="none" stroke="black" d="M258.89,-624.51C258.08,-612.68 256.98,-596.7 256.04,-583"/>
<polygon fill="black" stroke="black" points="259.54,-582.95 255.36,-573.21 252.56,-583.43 259.54,-582.95"/>
<text text-anchor="middle" x="276.08" y="-593.45" font-family="Times,serif" font-size="14.00">&#45;2.48</text>
</g>
<!-- 7f06d00d9990 -->
<g id="node9" class="node">
<title>7f06d00d9990</title>
<ellipse fill="none" stroke="black" cx="359.08" cy="-553.5" rx="59.1" ry="18"/>
<text text-anchor="middle" x="359.08" y="-548.83" font-family="Times,serif" font-size="14.00">x0&gt;0.75?</text>
</g>
<!-- 7f06d0521c70&#45;&gt;7f06d00d9990 -->
<g id="edge8" class="edge">
<title>7f06d0521c70&#45;&gt;7f06d00d9990</title>
<path fill="none" stroke="black" d="M276.42,-627.34C291.53,-614.03 314.25,-594.01 332.05,-578.32"/>
<polygon fill="black" stroke="black" points="334.01,-581.25 339.2,-572.01 329.39,-576 334.01,-581.25"/>
</g>
<!-- 7f06d03f1be0 -->
<g id="node6" class="node">
<title>7f06d03f1be0</title>
<ellipse fill="none" stroke="black" cx="111.08" cy="-464.25" rx="33.32" ry="18"/>
<text text-anchor="middle" x="111.08" y="-459.57" font-family="Times,serif" font-size="14.00">9.67</text>
</g>
<!-- 7f06d0910d60&#45;&gt;7f06d03f1be0 -->
<g id="edge5" class="edge">
<title>7f06d0910d60&#45;&gt;7f06d03f1be0</title>
<path fill="none" stroke="black" d="M79.78,-535.26C85.21,-523.11 92.6,-506.59 98.83,-492.65"/>
<polygon fill="black" stroke="black" points="102.02,-494.09 102.9,-483.54 95.63,-491.24 102.02,-494.09"/>
<text text-anchor="middle" x="75.28" y="-521.96" font-family="Times,serif" font-size="14.00">Y</text>
</g>
<!-- x0 -->
<g id="node7" class="node">
<title>x0</title>
<ellipse fill="none" stroke="black" cx="33.08" cy="-464.25" rx="27" ry="18"/>
<text text-anchor="middle" x="33.08" y="-459.57" font-family="Times,serif" font-size="14.00">x0</text>
</g>
<!-- 7f06d0910d60&#45;&gt;x0 -->
<g id="edge6" class="edge">
<title>7f06d0910d60&#45;&gt;x0</title>
<path fill="none" stroke="black" d="M64.37,-535.26C58.85,-522.91 51.31,-506.05 45.02,-491.97"/>
<polygon fill="black" stroke="black" points="48.39,-490.94 41.12,-483.24 42,-493.8 48.39,-490.94"/>
<text text-anchor="middle" x="20.25" y="-485.81" font-family="Times,serif" font-size="14.00">23.83</text>
<text text-anchor="middle" x="58.37" y="-521.96" font-family="Times,serif" font-size="14.00">N</text>
</g>
<!-- 7f06d0801b10 -->
<g id="node10" class="node">
<title>7f06d0801b10</title>
<ellipse fill="none" stroke="black" cx="254.08" cy="-464.25" rx="27.53" ry="18"/>
<text text-anchor="middle" x="254.08" y="-459.57" font-family="Times,serif" font-size="14.00">Sin</text>
</g>
<!-- 7f06d00de880&#45;&gt;7f06d0801b10 -->
<g id="edge9" class="edge">
<title>7f06d00de880&#45;&gt;7f06d0801b10</title>
<path fill="none" stroke="black" d="M254.08,-535.26C254.08,-523.43 254.08,-507.45 254.08,-493.75"/>
<polygon fill="black" stroke="black" points="257.58,-493.97 254.08,-483.97 250.58,-493.97 257.58,-493.97"/>
<text text-anchor="middle" x="274.33" y="-504.2" font-family="Times,serif" font-size="14.00">13.97</text>
</g>
<!-- 7f06d04d6930 -->
<g id="node19" class="node">
<title>7f06d04d6930</title>
<ellipse fill="none" stroke="black" cx="404.08" cy="-464.25" rx="30.69" ry="18"/>
<text text-anchor="middle" x="404.08" y="-459.57" font-family="Times,serif" font-size="14.00">Add</text>
</g>
<!-- 7f06d00d9990&#45;&gt;7f06d04d6930 -->
<g id="edge18" class="edge">
<title>7f06d00d9990&#45;&gt;7f06d04d6930</title>
<path fill="none" stroke="black" d="M367.97,-535.26C374.33,-522.91 383.03,-506.05 390.3,-491.97"/>
<polygon fill="black" stroke="black" points="393.34,-493.7 394.81,-483.21 387.12,-490.49 393.34,-493.7"/>
<text text-anchor="middle" x="377.51" y="-485.81" font-family="Times,serif" font-size="14.00">&#45;5.93</text>
<text text-anchor="middle" x="363.47" y="-521.96" font-family="Times,serif" font-size="14.00">Y</text>
</g>
<!-- x6 -->
<g id="node20" class="node">
<title>x6</title>
<ellipse fill="none" stroke="black" cx="346.08" cy="-375" rx="27" ry="18"/>
<text text-anchor="middle" x="346.08" y="-370.32" font-family="Times,serif" font-size="14.00">x6</text>
</g>
<!-- 7f06d00d9990&#45;&gt;x6 -->
<g id="edge19" class="edge">
<title>7f06d00d9990&#45;&gt;x6</title>
<path fill="none" stroke="black" d="M357.81,-535.26C355.57,-504.94 350.92,-441.81 348.2,-404.78"/>
<polygon fill="black" stroke="black" points="351.69,-404.54 347.46,-394.82 344.71,-405.05 351.69,-404.54"/>
<text text-anchor="middle" x="329.35" y="-397.26" font-family="Times,serif" font-size="14.00">&#45;8.59</text>
<text text-anchor="middle" x="351.81" y="-521.96" font-family="Times,serif" font-size="14.00">N</text>
</g>
<!-- 7f06d07c40a0 -->
<g id="node11" class="node">
<title>7f06d07c40a0</title>
<ellipse fill="none" stroke="black" cx="254.08" cy="-375" rx="30.69" ry="18"/>
<text text-anchor="middle" x="254.08" y="-370.32" font-family="Times,serif" font-size="14.00">Add</text>
</g>
<!-- 7f06d0801b10&#45;&gt;7f06d07c40a0 -->
<g id="edge10" class="edge">
<title>7f06d0801b10&#45;&gt;7f06d07c40a0</title>
<path fill="none" stroke="black" d="M254.08,-446.01C254.08,-434.18 254.08,-418.2 254.08,-404.5"/>
<polygon fill="black" stroke="black" points="257.58,-404.72 254.08,-394.72 250.58,-404.72 257.58,-404.72"/>
<text text-anchor="middle" x="269.83" y="-414.95" font-family="Times,serif" font-size="14.00">1.01</text>
</g>
<!-- 7f06d07ffdb0 -->
<g id="node12" class="node">
<title>7f06d07ffdb0</title>
<ellipse fill="none" stroke="black" cx="216.08" cy="-285.75" rx="30.69" ry="18"/>
<text text-anchor="middle" x="216.08" y="-281.07" font-family="Times,serif" font-size="14.00">Exp</text>
</g>
<!-- 7f06d07c40a0&#45;&gt;7f06d07ffdb0 -->
<g id="edge11" class="edge">
<title>7f06d07c40a0&#45;&gt;7f06d07ffdb0</title>
<path fill="none" stroke="black" d="M244.17,-357.56C240.9,-351.8 237.38,-345.21 234.58,-339 231.07,-331.25 227.79,-322.63 224.98,-314.65"/>
<polygon fill="black" stroke="black" points="228.37,-313.76 221.85,-305.41 221.74,-316.01 228.37,-313.76"/>
<text text-anchor="middle" x="250.83" y="-325.7" font-family="Times,serif" font-size="14.00">0.74</text>
</g>
<!-- 7f06d07a4cb0 -->
<g id="node13" class="node">
<title>7f06d07a4cb0</title>
<ellipse fill="none" stroke="black" cx="294.08" cy="-285.75" rx="29.64" ry="18"/>
<text text-anchor="middle" x="294.08" y="-281.07" font-family="Times,serif" font-size="14.00">Cos</text>
</g>
<!-- 7f06d07c40a0&#45;&gt;7f06d07a4cb0 -->
<g id="edge12" class="edge">
<title>7f06d07c40a0&#45;&gt;7f06d07a4cb0</title>
<path fill="none" stroke="black" d="M261.79,-357.18C267.43,-344.87 275.21,-327.9 281.71,-313.71"/>
<polygon fill="black" stroke="black" points="284.77,-315.45 285.76,-304.9 278.41,-312.53 284.77,-315.45"/>
<text text-anchor="middle" x="293.83" y="-325.7" font-family="Times,serif" font-size="14.00">3.39</text>
</g>
<!-- x3 -->
<g id="node14" class="node">
<title>x3</title>
<ellipse fill="none" stroke="black" cx="216.08" cy="-196.5" rx="27" ry="18"/>
<text text-anchor="middle" x="216.08" y="-191.82" font-family="Times,serif" font-size="14.00">x3</text>
</g>
<!-- 7f06d07ffdb0&#45;&gt;x3 -->
<g id="edge13" class="edge">
<title>7f06d07ffdb0&#45;&gt;x3</title>
<path fill="none" stroke="black" d="M216.08,-267.51C216.08,-255.68 216.08,-239.7 216.08,-226"/>
<polygon fill="black" stroke="black" points="219.58,-226.22 216.08,-216.22 212.58,-226.22 219.58,-226.22"/>
<text text-anchor="middle" x="231.83" y="-236.45" font-family="Times,serif" font-size="14.00">0.02</text>
</g>
<!-- 7f06d0493a10 -->
<g id="node15" class="node">
<title>7f06d0493a10</title>
<ellipse fill="none" stroke="black" cx="294.08" cy="-196.5" rx="27.53" ry="18"/>
<text text-anchor="middle" x="294.08" y="-191.82" font-family="Times,serif" font-size="14.00">Sin</text>
</g>
<!-- 7f06d07a4cb0&#45;&gt;7f06d0493a10 -->
<g id="edge14" class="edge">
<title>7f06d07a4cb0&#45;&gt;7f06d0493a10</title>
<path fill="none" stroke="black" d="M294.08,-267.51C294.08,-255.68 294.08,-239.7 294.08,-226"/>
<polygon fill="black" stroke="black" points="297.58,-226.22 294.08,-216.22 290.58,-226.22 297.58,-226.22"/>
<text text-anchor="middle" x="309.83" y="-236.45" font-family="Times,serif" font-size="14.00">3.61</text>
</g>
<!-- 7f06d0546520 -->
<g id="node16" class="node">
<title>7f06d0546520</title>
<ellipse fill="none" stroke="black" cx="294.08" cy="-107.25" rx="30.69" ry="18"/>
<text text-anchor="middle" x="294.08" y="-102.58" font-family="Times,serif" font-size="14.00">Add</text>
</g>
<!-- 7f06d0493a10&#45;&gt;7f06d0546520 -->
<g id="edge15" class="edge">
<title>7f06d0493a10&#45;&gt;7f06d0546520</title>
<path fill="none" stroke="black" d="M294.08,-178.26C294.08,-166.43 294.08,-150.45 294.08,-136.75"/>
<polygon fill="black" stroke="black" points="297.58,-136.97 294.08,-126.97 290.58,-136.97 297.58,-136.97"/>
<text text-anchor="middle" x="309.83" y="-147.2" font-family="Times,serif" font-size="14.00">1.01</text>
</g>
<!-- x4 -->
<g id="node17" class="node">
<title>x4</title>
<ellipse fill="none" stroke="black" cx="258.08" cy="-18" rx="27" ry="18"/>
<text text-anchor="middle" x="258.08" y="-13.32" font-family="Times,serif" font-size="14.00">x4</text>
</g>
<!-- 7f06d0546520&#45;&gt;x4 -->
<g id="edge16" class="edge">
<title>7f06d0546520&#45;&gt;x4</title>
<path fill="none" stroke="black" d="M285.28,-89.71C282.36,-83.94 279.18,-77.38 276.58,-71.25 273.2,-63.3 269.92,-54.51 267.08,-46.44"/>
<polygon fill="black" stroke="black" points="270.43,-45.43 263.88,-37.1 263.81,-47.7 270.43,-45.43"/>
<text text-anchor="middle" x="292.83" y="-57.95" font-family="Times,serif" font-size="14.00">0.16</text>
</g>
<!-- x2 -->
<g id="node18" class="node">
<title>x2</title>
<ellipse fill="none" stroke="black" cx="330.08" cy="-18" rx="27" ry="18"/>
<text text-anchor="middle" x="330.08" y="-13.32" font-family="Times,serif" font-size="14.00">x2</text>
</g>
<!-- 7f06d0546520&#45;&gt;x2 -->
<g id="edge17" class="edge">
<title>7f06d0546520&#45;&gt;x2</title>
<path fill="none" stroke="black" d="M301.02,-89.43C306.05,-77.24 312.96,-60.49 318.78,-46.38"/>
<polygon fill="black" stroke="black" points="322,-47.75 322.58,-37.17 315.53,-45.08 322,-47.75"/>
<text text-anchor="middle" x="331.83" y="-57.95" font-family="Times,serif" font-size="14.00">1.00</text>
</g>
<!-- 7f06d04d6930&#45;&gt;x6 -->
<g id="edge21" class="edge">
<title>7f06d04d6930&#45;&gt;x6</title>
<path fill="none" stroke="black" d="M391.01,-447.57C386.27,-441.65 381.01,-434.77 376.58,-428.25 370.95,-419.98 365.29,-410.62 360.39,-402.14"/>
<polygon fill="black" stroke="black" points="363.58,-400.66 355.61,-393.68 357.48,-404.1 363.58,-400.66"/>
<text text-anchor="middle" x="391.83" y="-414.95" font-family="Times,serif" font-size="14.00">2.58</text>
</g>
<!-- 7f06d0302fd0 -->
<g id="node21" class="node">
<title>7f06d0302fd0</title>
<ellipse fill="none" stroke="black" cx="425.08" cy="-375" rx="33.32" ry="18"/>
<text text-anchor="middle" x="425.08" y="-370.32" font-family="Times,serif" font-size="14.00">2.30</text>
</g>
<!-- 7f06d04d6930&#45;&gt;7f06d0302fd0 -->
<g id="edge20" class="edge">
<title>7f06d04d6930&#45;&gt;7f06d0302fd0</title>
<path fill="none" stroke="black" d="M408.22,-446.01C411.1,-434.06 415,-417.88 418.32,-404.08"/>
<polygon fill="black" stroke="black" points="421.64,-405.21 420.58,-394.67 414.84,-403.58 421.64,-405.21"/>
</g>
</g>
</svg>