<?xml version="1.0" encoding="UTF-8" standalone="no"?>
<!DOCTYPE svg PUBLIC "-//W3C//DTD SVG 1.1//EN"
 "http://www.w3.org/Graphics/SVG/1.1/DTD/svg11.dtd">
<!-- Generated by graphviz version 9.0.0 (20231125.0833)
 -->
<!-- Title: G Pages: 1 -->
<svg width="1229pt" height="261pt"
 viewBox="0.00 0.00 1228.88 261.00" xmlns="http://www.w3.org/2000/svg" xmlns:xlink="http://www.w3.org/1999/xlink">
<g id="graph0" class="graph" transform="scale(1 1) rotate(0) translate(4 257)">
<title>G</title>
<polygon fill="white" stroke="none" points="-4,4 -4,-257 1224.88,-257 1224.88,4 -4,4"/>
<!-- 7f06d078a6b0 -->
<g id="node1" class="node">
<title>7f06d078a6b0</title>
<ellipse fill="none" stroke="black" cx="30.69" cy="-154" rx="30.69" ry="18"/>
<text text-anchor="middle" x="30.69" y="-149.32" font-family="Times,serif" font-size="14.00">Add</text>
</g>
<!-- 7f06d07eccf0 -->
<g id="node2" class="node">
<title>7f06d07eccf0</title>
<ellipse fill="none" stroke="black" cx="192.48" cy="-181" rx="59.1" ry="18"/>
<text text-anchor="middle" x="192.48" y="-176.32" font-family="Times,serif" font-size="14.00">x0&gt;0.75?</text>
</g>
<!-- 7f06d078a6b0&#45;&gt;7f06d07eccf0 -->
<g id="edge1" class="edge">
<title>7f06d078a6b0&#45;&gt;7f06d07eccf0</title>
<path fill="none" stroke="black" d="M60.63,-158.89C79.64,-162.1 105.26,-166.43 128.79,-170.41"/>
<polygon fill="black" stroke="black" points="128.2,-173.86 138.64,-172.07 129.37,-166.95 128.2,-173.86"/>
</g>
<!-- 7f06d0521c70 -->
<g id="node3" class="node">
<title>7f06d0521c70</title>
<ellipse fill="none" stroke="black" cx="192.48" cy="-127" rx="30.69" ry="18"/>
<text text-anchor="middle" x="192.48" y="-122.33" font-family="Times,serif" font-size="14.00">Add</text>
</g>
<!-- 7f06d078a6b0&#45;&gt;7f06d0521c70 -->
<g id="edge2" class="edge">
<title>7f06d078a6b0&#45;&gt;7f06d0521c70</title>
<path fill="none" stroke="black" d="M58.26,-145.86C65.09,-143.98 72.47,-142.13 79.38,-140.75 102.74,-136.1 129.18,-132.76 150.51,-130.55"/>
<polygon fill="black" stroke="black" points="150.67,-134.05 160.28,-129.58 149.98,-127.08 150.67,-134.05"/>
<text text-anchor="middle" x="97.38" y="-143.95" font-family="Times,serif" font-size="14.00">&#45;1.23</text>
</g>
<!-- 7f06d0910d60 -->
<g id="node4" class="node">
<title>7f06d0910d60</title>
<ellipse fill="none" stroke="black" cx="382.68" cy="-235" rx="59.1" ry="18"/>
<text text-anchor="middle" x="382.68" y="-230.32" font-family="Times,serif" font-size="14.00">x0&gt;0.81?</text>
</g>
<!-- 7f06d07eccf0&#45;&gt;7f06d0910d60 -->
<g id="edge3" class="edge">
<title>7f06d07eccf0&#45;&gt;7f06d0910d60</title>
<path fill="none" stroke="black" d="M236.66,-193.39C263.79,-201.17 299.01,-211.28 327.95,-219.58"/>
<polygon fill="black" stroke="black" points="326.67,-222.86 337.25,-222.25 328.6,-216.13 326.67,-222.86"/>
<text text-anchor="middle" x="232.16" y="-197.34" font-family="Times,serif" font-size="14.00">Y</text>
</g>
<!-- x1 -->
<g id="node5" class="node">
<title>x1</title>
<ellipse fill="none" stroke="black" cx="382.68" cy="-181" rx="27" ry="18"/>
<text text-anchor="middle" x="382.68" y="-176.32" font-family="Times,serif" font-size="14.00">x1</text>
</g>
<!-- 7f06d07eccf0&#45;&gt;x1 -->
<g id="edge4" class="edge">
<title>7f06d07eccf0&#45;&gt;x1</title>
<path fill="none" stroke="black" d="M251.99,-181C281.94,-181 317.52,-181 343.83,-181"/>
<polygon fill="black" stroke="black" points="343.7,-184.5 353.7,-181 343.7,-177.5 343.7,-184.5"/>
<text text-anchor="middle" x="339.46" y="-167.7" font-family="Times,serif" font-size="14.00">0.02</text>
<text text-anchor="middle" x="257.99" y="-167.7" font-family="Times,serif" font-size="14.00">N</text>
</g>
<!-- 7f06d00de880 -->
<g id="node8" class="node">
<title>7f06d00de880</title>
<ellipse fill="none" stroke="black" cx="382.68" cy="-127" rx="27.53" ry="18"/>
<text text-anchor="middle" x="382.68" y="-122.33" font-family="Times,serif" font-size="14.00">Sin</text>
</g>
<!-- 7f06d0521c70&#45;&gt;7f06d00de880 -->
<g id="edge7" class="edge">
<title>7f06d0521c70&#45;&gt;7f06d00de880</title>
<path fill="none" stroke="black" d="M223.3,-127C255.8,-127 307.89,-127 343.39,-127"/>
<polygon fill="black" stroke="black" points="343.23,-130.5 353.23,-127 343.23,-123.5 343.23,-130.5"/>
<text text-anchor="middle" x="287.58" y="-130.95" font-family="Times,serif" font-size="14.00">&#45;2.48</text>
</g>
<!-- 7f06d00d9990 -->
<g id="node9" class="node">
<title>7f06d00d9990</title>
<ellipse fill="none" stroke="black" cx="382.68" cy="-68" rx="59.1" ry="18"/>
<text text-anchor="middle" x="382.68" y="-63.33" font-family="Times,serif" font-size="14.00">x0&gt;0.75?</text>
</g>
<!-- 7f06d0521c70&#45;&gt;7f06d00d9990 -->
<g id="edge8" class="edge">
<title>7f06d0521c70&#45;&gt;7f06d00d9990</title>
<path fill="none" stroke="black" d="M220.04,-118.67C248.42,-109.78 294.11,-95.45 329.68,-84.3"/>
<polygon fill="black" stroke="black" points="330.43,-87.74 338.92,-81.4 328.33,-81.06 330.43,-87.74"/>
</g>
<!-- 7f06d03f1be0 -->
<g id="node6" class="node">
<title>7f06d03f1be0</title>
<ellipse fill="none" stroke="black" cx="551.6" cy="-181" rx="33.32" ry="18"/>
<text text-anchor="middle" x="551.6" y="-176.32" font-family="Times,serif" font-size="14.00">9.67</text>
</g>
<!-- 7f06d0910d60&#45;&gt;7f06d03f1be0 -->
<g id="edge5" class="edge">
<title>7f06d0910d60&#45;&gt;7f06d03f1be0</title>
<path fill="none" stroke="black" d="M424.09,-221.93C450.68,-213.32 485.3,-202.12 511.61,-193.61"/>
<polygon fill="black" stroke="black" points="512.44,-197.02 520.88,-190.61 510.29,-190.36 512.44,-197.02"/>
<text text-anchor="middle" x="419.59" y="-208.63" font-family="Times,serif" font-size="14.00">Y</text>
</g>
<!-- x0 -->
<g id="node7" class="node">
<title>x0</title>
<ellipse fill="none" stroke="black" cx="551.6" cy="-235" rx="27" ry="18"/>
<text text-anchor="middle" x="551.6" y="-230.32" font-family="Times,serif" font-size="14.00">x0</text>
</g>
<!-- 7f06d0910d60&#45;&gt;x0 -->
<g id="edge6" class="edge">
<title>7f06d0910d60&#45;&gt;x0</title>
<path fill="none" stroke="black" d="M442.06,-235C465.59,-235 492.05,-235 512.95,-235"/>
<polygon fill="black" stroke="black" points="512.73,-238.5 522.73,-235 512.73,-231.5 512.73,-238.5"/>
<text text-anchor="middle" x="504" y="-221.7" font-family="Times,serif" font-size="14.00">23.83</text>
<text text-anchor="middle" x="448.06" y="-221.7" font-family="Times,serif" font-size="14.00">N</text>
</g>
<!-- 7f06d0801b10 -->
<g id="node10" class="node">
<title>7f06d0801b10</title>
<ellipse fill="none" stroke="black" cx="551.6" cy="-127" rx="27.53" ry="18"/>
<text text-anchor="middle" x="551.6" y="-122.33" font-family="Times,serif" font-size="14.00">Sin</text>
</g>
<!-- 7f06d00de880&#45;&gt;7f06d0801b10 -->
<g id="edge9" class="edge">
<title>7f06d00de880&#45;&gt;7f06d0801b10</title>
<path fill="none" stroke="black" d="M410.5,-127C438.04,-127 481.15,-127 512.28,-127"/>
<polygon fill="black" stroke="black" points="512.06,-130.5 522.06,-127 512.06,-123.5 512.06,-130.5"/>
<text text-anchor="middle" x="480.03" y="-130.95" font-family="Times,serif" font-size="14.00">13.97</text>
</g>
<!-- 7f06d04d6930 -->
<g id="node19" class="node">
<title>7f06d04d6930</title>
<ellipse fill="none" stroke="black" cx="551.6" cy="-68" rx="30.69" ry="18"/>
<text text-anchor="middle" x="551.6" y="-63.33" font-family="Times,serif" font-size="14.00">Add</text>
</g>
<!-- 7f06d00d9990&#45;&gt;7f06d04d6930 -->
<g id="edge18" class="edge">
<title>7f06d00d9990&#45;&gt;7f06d04d6930</title>
<path fill="none" stroke="black" d="M442.06,-68C464.22,-68 488.98,-68 509.26,-68"/>
<polygon fill="black" stroke="black" points="509.1,-71.5 519.1,-68 509.1,-64.5 509.1,-71.5"/>
<text text-anchor="middle" x="502.62" y="-54.7" font-family="Times,serif" font-size="14.00">&#45;5.93</text>
<text text-anchor="middle" x="446.56" y="-54.7" font-family="Times,serif" font-size="14.00">Y</text>
</g>
<!-- x6 -->
<g id="node20" class="node">
<title>x6</title>
<ellipse fill="none" stroke="black" cx="685.74" cy="-18" rx="27" ry="18"/>
<text text-anchor="middle" x="685.74" y="-13.32" font-family="Times,serif" font-size="14.00">x6</text>
</g>
<!-- 7f06d00d9990&#45;&gt;x6 -->
<g id="edge19" class="edge">
<title>7f06d00d9990&#45;&gt;x6</title>
<path fill="none" stroke="black" d="M431.83,-57.6C457.43,-52.26 489.49,-45.87 518.28,-41 562.54,-33.51 613.72,-26.72 647.52,-22.49"/>
<polygon fill="black" stroke="black" points="647.72,-25.99 657.21,-21.29 646.86,-19.04 647.72,-25.99"/>
<text text-anchor="middle" x="640.71" y="-7.8" font-family="Times,serif" font-size="14.00">&#45;8.59</text>
<text text-anchor="middle" x="425.83" y="-44.3" font-family="Times,serif" font-size="14.00">N</text>
</g>
<!-- 7f06d07c40a0 -->
<g id="node11" class="node">
<title>7f06d07c40a0</title>
<ellipse fill="none" stroke="black" cx="685.74" cy="-132" rx="30.69" ry="18"/>
<text text-anchor="middle" x="685.74" y="-127.33" font-family="Times,serif" font-size="14.00">Add</text>
</g>
<!-- 7f06d0801b10&#45;&gt;7f06d07c40a0 -->
<g id="edge10" class="edge">
<title>7f06d0801b10&#45;&gt;7f06d07c40a0</title>
<path fill="none" stroke="black" d="M579.34,-128.01C597.71,-128.71 622.45,-129.64 643.35,-130.43"/>
<polygon fill="black" stroke="black" points="643.17,-133.93 653.3,-130.81 643.44,-126.93 643.17,-133.93"/>
<text text-anchor="middle" x="618.67" y="-133.95" font-family="Times,serif" font-size="14.00">1.01</text>
</g>
<!-- 7f06d07ffdb0 -->
<g id="node12" class="node">
<title>7f06d07ffdb0</title>
<ellipse fill="none" stroke="black" cx="817.25" cy="-157" rx="30.69" ry="18"/>
<text text-anchor="middle" x="817.25" y="-152.32" font-family="Times,serif" font-size="14.00">Exp</text>
</g>
<!-- 7f06d07c40a0&#45;&gt;7f06d07ffdb0 -->
<g id="edge11" class="edge">
<title>7f06d07c40a0&#45;&gt;7f06d07ffdb0</title>
<path fill="none" stroke="black" d="M715.48,-137.55C733.42,-141.01 756.77,-145.52 776.48,-149.32"/>
<polygon fill="black" stroke="black" points="775.62,-152.72 786.1,-151.18 776.95,-145.85 775.62,-152.72"/>
<text text-anchor="middle" x="752.81" y="-150.95" font-family="Times,serif" font-size="14.00">0.74</text>
</g>
<!-- 7f06d07a4cb0 -->
<g id="node13" class="node">
<title>7f06d07a4cb0</title>
<ellipse fill="none" stroke="black" cx="817.25" cy="-103" rx="29.64" ry="18"/>
<text text-anchor="middle" x="817.25" y="-98.33" font-family="Times,serif" font-size="14.00">Cos</text>
</g>
<!-- 7f06d07c40a0&#45;&gt;7f06d07a4cb0 -->
<g id="edge12" class="edge">
<title>7f06d07c40a0&#45;&gt;7f06d07a4cb0</title>
<path fill="none" stroke="black" d="M714.84,-125.71C733.33,-121.57 757.78,-116.09 778.03,-111.56"/>
<polygon fill="black" stroke="black" points="778.62,-115.01 787.61,-109.41 777.09,-108.18 778.62,-115.01"/>
<text text-anchor="middle" x="752.81" y="-123.95" font-family="Times,serif" font-size="14.00">3.39</text>
</g>
<!-- x3 -->
<g id="node14" class="node">
<title>x3</title>
<ellipse fill="none" stroke="black" cx="942.97" cy="-157" rx="27" ry="18"/>
<text text-anchor="middle" x="942.97" y="-152.32" font-family="Times,serif" font-size="14.00">x3</text>
</g>
<!-- 7f06d07ffdb0&#45;&gt;x3 -->
<g id="edge13" class="edge">
<title>7f06d07ffdb0&#45;&gt;x3</title>
<path fill="none" stroke="black" d="M848.2,-157C865.09,-157 886.36,-157 904.37,-157"/>
<polygon fill="black" stroke="black" points="904.14,-160.5 914.14,-157 904.14,-153.5 904.14,-160.5"/>
<text text-anchor="middle" x="881.69" y="-160.95" font-family="Times,serif" font-size="14.00">0.02</text>
</g>
<!-- 7f06d0493a10 -->
<g id="node15" class="node">
<title>7f06d0493a10</title>
<ellipse fill="none" stroke="black" cx="942.97" cy="-103" rx="27.53" ry="18"/>
<text text-anchor="middle" x="942.97" y="-98.33" font-family="Times,serif" font-size="14.00">Sin</text>
</g>
<!-- 7f06d07a4cb0&#45;&gt;7f06d0493a10 -->
<g id="edge14" class="edge">
<title>7f06d07a4cb0&#45;&gt;7f06d0493a10</title>
<path fill="none" stroke="black" d="M847.26,-103C864.13,-103 885.6,-103 903.83,-103"/>
<polygon fill="black" stroke="black" points="903.75,-106.5 913.75,-103 903.75,-99.5 903.75,-106.5"/>
<text text-anchor="middle" x="881.69" y="-106.95" font-family="Times,serif" font-size="14.00">3.61</text>
</g>
<!-- 7f06d0546520 -->
<g id="node16" class="node">
<title>7f06d0546520</title>
<ellipse fill="none" stroke="black" cx="1068.69" cy="-103" rx="30.69" ry="18"/>
<text text-anchor="middle" x="1068.69" y="-98.33" font-family="Times,serif" font-size="14.00">Add</text>
</g>
<!-- 7f06d0493a10&#45;&gt;7f06d0546520 -->
<g id="edge15" class="edge">
<title>7f06d0493a10&#45;&gt;7f06d0546520</title>
<path fill="none" stroke="black" d="M970.82,-103C987.1,-103 1008.21,-103 1026.57,-103"/>
<polygon fill="black" stroke="black" points="1026.35,-106.5 1036.35,-103 1026.35,-99.5 1026.35,-106.5"/>
<text text-anchor="middle" x="1004.26" y="-106.95" font-family="Times,serif" font-size="14.00">1.01</text>
</g>
<!-- x4 -->
<g id="node17" class="node">
<title>x4</title>
<ellipse fill="none" stroke="black" cx="1193.88" cy="-130" rx="27" ry="18"/>
<text text-anchor="middle" x="1193.88" y="-125.33" font-family="Times,serif" font-size="14.00">x4</text>
</g>
<!-- 7f06d0546520&#45;&gt;x4 -->
<g id="edge16" class="edge">
<title>7f06d0546520&#45;&gt;x4</title>
<path fill="none" stroke="black" d="M1097.96,-109.19C1115.37,-113.01 1137.87,-117.94 1156.59,-122.05"/>
<polygon fill="black" stroke="black" points="1155.69,-125.43 1166.2,-124.15 1157.18,-118.59 1155.69,-125.43"/>
<text text-anchor="middle" x="1133.13" y="-122.95" font-family="Times,serif" font-size="14.00">0.16</text>
</g>
<!-- x2 -->
<g id="node18" class="node">
<title>x2</title>
<ellipse fill="none" stroke="black" cx="1193.88" cy="-76" rx="27" ry="18"/>
<text text-anchor="middle" x="1193.88" y="-71.33" font-family="Times,serif" font-size="14.00">x2</text>
</g>
<!-- 7f06d0546520&#45;&gt;x2 -->
<g id="edge17" class="edge">
<title>7f06d0546520&#45;&gt;x2</title>
<path fill="none" stroke="black" d="M1097.96,-96.81C1115.37,-92.99 1137.87,-88.06 1156.59,-83.95"/>
<polygon fill="black" stroke="black" points="1157.18,-87.41 1166.2,-81.85 1155.69,-80.57 1157.18,-87.41"/>
<text text-anchor="middle" x="1133.13" y="-95.95" font-family="Times,serif" font-size="14.00">1.00</text>
</g>
<!-- 7f06d04d6930&#45;&gt;x6 -->
<g id="edge21" class="edge">
<title>7f06d04d6930&#45;&gt;x6</title>
<path fill="none" stroke="black" d="M578.08,-58.36C598.83,-50.51 628.31,-39.35 651.02,-30.76"/>
<polygon fill="black" stroke="black" points="652.02,-34.12 660.14,-27.31 649.54,-27.57 652.02,-34.12"/>
<text text-anchor="middle" x="618.67" y="-52.95" font-family="Times,serif" font-size="14.00">2.58</text>
</g>
<!-- 7f06d0302fd0 -->
<g id="node21" class="node">
<title>7f06d0302fd0</title>
<ellipse fill="none" stroke="black" cx="685.74" cy="-78" rx="33.32" ry="18"/>
<text text-anchor="middle" x="685.74" y="-73.33" font-family="Times,serif" font-size="14.00">2.30</text>
</g>
<!-- 7f06d04d6930&#45;&gt;7f06d0302fd0 -->
<g id="edge20" class="edge">
<title>7f06d04d6930&#45;&gt;7f06d0302fd0</title>
<path fill="none" stroke="black" d="M582.25,-70.24C599.6,-71.56 621.82,-73.24 641.13,-74.7"/>
<polygon fill="black" stroke="black" points="640.66,-78.17 650.9,-75.44 641.19,-71.19 640.66,-78.17"/>
</g>
</g>
</svg>