<?xml version="1.0" encoding="UTF-8" standalone="no"?>
<!DOCTYPE svg PUBLIC "-//W3C//DTD SVG 1.1//EN"
 "http://www.w3.org/Graphics/SVG/1.1/DTD/svg11.dtd">
<!-- Generated by graphviz version 7.1.0 (20230122.1345)
 -->
<!-- Title: G Pages: 1 -->
<svg width="338pt" height="465pt"
 viewBox="0.00 0.00 338.00 465.00" xmlns="http://www.w3.org/2000/svg" xmlns:xlink="http://www.w3.org/1999/xlink">
<g id="graph0" class="graph" transform="scale(1 1) rotate(0) translate(4 461)">
<title>G</title>
<polygon fill="white" stroke="none" points="-4,4 -4,-461 334,-461 334,4 -4,4"/>
<!-- 5625d27dfb10 -->
<g id="node1" class="node">
<title>5625d27dfb10</title>
<ellipse fill="none" stroke="black" cx="258" cy="-439" rx="28.7" ry="18"/>
<text text-anchor="middle" x="258" y="-435.3" font-family="Times,serif" font-size="14.00">Add</text>
</g>
<!-- x6 -->
<g id="node2" class="node">
<title>x6</title>
<ellipse fill="none" stroke="black" cx="303" cy="-192" rx="27" ry="18"/>
<text text-anchor="middle" x="303" y="-188.3" font-family="Times,serif" font-size="14.00">x6</text>
</g>
<!-- 5625d27dfb10&#45;&gt;x6 -->
<g id="edge1" class="edge">
<title>5625d27dfb10&#45;&gt;x6</title>
<path fill="none" stroke="black" d="M263.23,-421.1C266.38,-410.52 270.28,-396.55 273,-384 285.41,-326.72 294.85,-258.73 299.59,-221.28"/>
<polygon fill="black" stroke="black" points="303.02,-222.1 300.78,-211.75 296.07,-221.24 303.02,-222.1"/>
<text text-anchor="middle" x="305.5" y="-318.8" font-family="Times,serif" font-size="14.00">10.57</text>
</g>
<!-- 5625d1de0610 -->
<g id="node3" class="node">
<title>5625d1de0610</title>
<ellipse fill="none" stroke="black" cx="209" cy="-366" rx="55.49" ry="18"/>
<text text-anchor="middle" x="209" y="-362.3" font-family="Times,serif" font-size="14.00">x0&gt;0.75?</text>
</g>
<!-- 5625d27dfb10&#45;&gt;5625d1de0610 -->
<g id="edge2" class="edge">
<title>5625d27dfb10&#45;&gt;5625d1de0610</title>
<path fill="none" stroke="black" d="M247.13,-422.24C241.25,-413.72 233.83,-402.98 227.11,-393.24"/>
<polygon fill="black" stroke="black" points="230.12,-391.44 221.56,-385.2 224.36,-395.42 230.12,-391.44"/>
</g>
<!-- 5625d3c02820 -->
<g id="node4" class="node">
<title>5625d3c02820</title>
<ellipse fill="none" stroke="black" cx="209" cy="-279" rx="28.7" ry="18"/>
<text text-anchor="middle" x="209" y="-275.3" font-family="Times,serif" font-size="14.00">Add</text>
</g>
<!-- 5625d1de0610&#45;&gt;5625d3c02820 -->
<g id="edge3" class="edge">
<title>5625d1de0610&#45;&gt;5625d3c02820</title>
<path fill="none" stroke="black" d="M209,-347.8C209,-336.58 209,-321.67 209,-308.69"/>
<polygon fill="black" stroke="black" points="212.5,-308.98 209,-298.98 205.5,-308.98 212.5,-308.98"/>
<text text-anchor="middle" x="204" y="-336.6" font-family="Times,serif" font-size="14.00">Y</text>
</g>
<!-- 5625d1ddc200 -->
<g id="node5" class="node">
<title>5625d1ddc200</title>
<ellipse fill="none" stroke="black" cx="101" cy="-279" rx="28.7" ry="18"/>
<text text-anchor="middle" x="101" y="-275.3" font-family="Times,serif" font-size="14.00">Add</text>
</g>
<!-- 5625d1de0610&#45;&gt;5625d1ddc200 -->
<g id="edge4" class="edge">
<title>5625d1de0610&#45;&gt;5625d1ddc200</title>
<path fill="none" stroke="black" d="M188.43,-348.81C171.05,-335.13 146.05,-315.45 127.23,-300.64"/>
<polygon fill="black" stroke="black" points="129.5,-297.98 119.48,-294.54 125.17,-303.48 129.5,-297.98"/>
<text text-anchor="middle" x="181.93" y="-337.61" font-family="Times,serif" font-size="14.00">N</text>
</g>
<!-- 5625d3c02820&#45;&gt;x6 -->
<g id="edge5" class="edge">
<title>5625d3c02820&#45;&gt;x6</title>
<path fill="none" stroke="black" d="M221.59,-262.32C230.2,-252.03 242.16,-238.58 254,-228 260.43,-222.25 267.81,-216.58 274.85,-211.52"/>
<polygon fill="black" stroke="black" points="276.68,-214.51 282.89,-205.93 272.68,-208.77 276.68,-214.51"/>
<text text-anchor="middle" x="270" y="-231.8" font-family="Times,serif" font-size="14.00">8.50</text>
</g>
<!-- 5625d27cb4a0 -->
<g id="node6" class="node">
<title>5625d27cb4a0</title>
<ellipse fill="none" stroke="black" cx="203" cy="-192" rx="55.49" ry="18"/>
<text text-anchor="middle" x="203" y="-188.3" font-family="Times,serif" font-size="14.00">x0&gt;0.81?</text>
</g>
<!-- 5625d3c02820&#45;&gt;5625d27cb4a0 -->
<g id="edge6" class="edge">
<title>5625d3c02820&#45;&gt;5625d27cb4a0</title>
<path fill="none" stroke="black" d="M207.79,-260.8C206.99,-249.58 205.94,-234.67 205.02,-221.69"/>
<polygon fill="black" stroke="black" points="208.54,-221.71 204.34,-211.98 201.55,-222.2 208.54,-221.71"/>
</g>
<!-- 5625d1d1bc10 -->
<g id="node11" class="node">
<title>5625d1d1bc10</title>
<ellipse fill="none" stroke="black" cx="101" cy="-192" rx="28.7" ry="18"/>
<text text-anchor="middle" x="101" y="-188.3" font-family="Times,serif" font-size="14.00">Add</text>
</g>
<!-- 5625d1ddc200&#45;&gt;5625d1d1bc10 -->
<g id="edge11" class="edge">
<title>5625d1ddc200&#45;&gt;5625d1d1bc10</title>
<path fill="none" stroke="black" d="M101,-260.8C101,-249.58 101,-234.67 101,-221.69"/>
<polygon fill="black" stroke="black" points="104.5,-221.98 101,-211.98 97.5,-221.98 104.5,-221.98"/>
</g>
<!-- x1 -->
<g id="node12" class="node">
<title>x1</title>
<ellipse fill="none" stroke="black" cx="27" cy="-192" rx="27" ry="18"/>
<text text-anchor="middle" x="27" y="-188.3" font-family="Times,serif" font-size="14.00">x1</text>
</g>
<!-- 5625d1ddc200&#45;&gt;x1 -->
<g id="edge12" class="edge">
<title>5625d1ddc200&#45;&gt;x1</title>
<path fill="none" stroke="black" d="M83.27,-264.69C75.66,-258.54 66.94,-250.85 60,-243 53.51,-235.66 47.33,-226.95 42.11,-218.87"/>
<polygon fill="black" stroke="black" points="45.1,-217.06 36.85,-210.41 39.16,-220.75 45.1,-217.06"/>
<text text-anchor="middle" x="78.5" y="-231.8" font-family="Times,serif" font-size="14.00">&#45;0.09</text>
</g>
<!-- 5625d1c92dc0 -->
<g id="node7" class="node">
<title>5625d1c92dc0</title>
<ellipse fill="none" stroke="black" cx="278" cy="-105" rx="37.09" ry="18"/>
<text text-anchor="middle" x="278" y="-101.3" font-family="Times,serif" font-size="14.00">26.02</text>
</g>
<!-- 5625d27cb4a0&#45;&gt;5625d1c92dc0 -->
<g id="edge7" class="edge">
<title>5625d27cb4a0&#45;&gt;5625d1c92dc0</title>
<path fill="none" stroke="black" d="M217.82,-174.21C228.92,-161.63 244.27,-144.23 256.68,-130.16"/>
<polygon fill="black" stroke="black" points="258.98,-132.84 262.97,-123.03 253.73,-128.21 258.98,-132.84"/>
<text text-anchor="middle" x="212.82" y="-163.01" font-family="Times,serif" font-size="14.00">Y</text>
</g>
<!-- 5625d2515750 -->
<g id="node8" class="node">
<title>5625d2515750</title>
<ellipse fill="none" stroke="black" cx="194" cy="-105" rx="28.7" ry="18"/>
<text text-anchor="middle" x="194" y="-101.3" font-family="Times,serif" font-size="14.00">Add</text>
</g>
<!-- 5625d27cb4a0&#45;&gt;5625d2515750 -->
<g id="edge8" class="edge">
<title>5625d27cb4a0&#45;&gt;5625d2515750</title>
<path fill="none" stroke="black" d="M201.18,-173.8C199.98,-162.51 198.39,-147.47 197.01,-134.43"/>
<polygon fill="black" stroke="black" points="200.51,-134.26 195.98,-124.68 193.55,-134.99 200.51,-134.26"/>
<text text-anchor="middle" x="194.68" y="-162.6" font-family="Times,serif" font-size="14.00">N</text>
</g>
<!-- x4 -->
<g id="node9" class="node">
<title>x4</title>
<ellipse fill="none" stroke="black" cx="115" cy="-18" rx="27" ry="18"/>
<text text-anchor="middle" x="115" y="-14.3" font-family="Times,serif" font-size="14.00">x4</text>
</g>
<!-- 5625d2515750&#45;&gt;x4 -->
<g id="edge9" class="edge">
<title>5625d2515750&#45;&gt;x4</title>
<path fill="none" stroke="black" d="M177.01,-90.37C169.64,-84.15 161.1,-76.51 154,-69 146.53,-61.09 139.01,-51.84 132.6,-43.46"/>
<polygon fill="black" stroke="black" points="135.59,-41.61 126.8,-35.7 129.98,-45.8 135.59,-41.61"/>
<text text-anchor="middle" x="172.5" y="-57.8" font-family="Times,serif" font-size="14.00">&#45;9.31</text>
</g>
<!-- x0 -->
<g id="node10" class="node">
<title>x0</title>
<ellipse fill="none" stroke="black" cx="197" cy="-18" rx="27" ry="18"/>
<text text-anchor="middle" x="197" y="-14.3" font-family="Times,serif" font-size="14.00">x0</text>
</g>
<!-- 5625d2515750&#45;&gt;x0 -->
<g id="edge10" class="edge">
<title>5625d2515750&#45;&gt;x0</title>
<path fill="none" stroke="black" d="M194.61,-86.8C195,-75.58 195.53,-60.67 195.99,-47.69"/>
<polygon fill="black" stroke="black" points="199.48,-48.1 196.33,-37.98 192.48,-47.85 199.48,-48.1"/>
<text text-anchor="middle" x="220" y="-57.8" font-family="Times,serif" font-size="14.00">127.74</text>
</g>
<!-- 5625d1d1bc10&#45;&gt;x4 -->
<g id="edge13" class="edge">
<title>5625d1d1bc10&#45;&gt;x4</title>
<path fill="none" stroke="black" d="M102.42,-173.56C104.84,-143.87 109.77,-83.22 112.69,-47.36"/>
<polygon fill="black" stroke="black" points="116.15,-47.99 113.47,-37.74 109.18,-47.42 116.15,-47.99"/>
<text text-anchor="middle" x="129.5" y="-101.3" font-family="Times,serif" font-size="14.00">13.60</text>
</g>
<!-- x2 -->
<g id="node13" class="node">
<title>x2</title>
<ellipse fill="none" stroke="black" cx="41" cy="-105" rx="27" ry="18"/>
<text text-anchor="middle" x="41" y="-101.3" font-family="Times,serif" font-size="14.00">x2</text>
</g>
<!-- 5625d1d1bc10&#45;&gt;x2 -->
<g id="edge14" class="edge">
<title>5625d1d1bc10&#45;&gt;x2</title>
<path fill="none" stroke="black" d="M81.33,-178.64C73.16,-172.66 64.16,-164.85 58,-156 53.48,-149.5 50.08,-141.7 47.55,-134.21"/>
<polygon fill="black" stroke="black" points="50.95,-133.37 44.78,-124.76 44.23,-135.34 50.95,-133.37"/>
<text text-anchor="middle" x="74" y="-144.8" font-family="Times,serif" font-size="14.00">0.11</text>
</g>
</g>
</svg>