<?xml version="1.0" encoding="UTF-8" standalone="no"?>
<!DOCTYPE svg PUBLIC "-//W3C//DTD SVG 1.1//EN"
 "http://www.w3.org/Graphics/SVG/1.1/DTD/svg11.dtd">
<!-- Generated by graphviz version 12.0.0 (0)
 -->
<!-- Title: G Pages: 1 -->
<svg width="431pt" height="633pt"
 viewBox="0.00 0.00 431.37 632.50" xmlns="http://www.w3.org/2000/svg" xmlns:xlink="http://www.w3.org/1999/xlink">
<g id="graph0" class="graph" transform="scale(1 1) rotate(0) translate(4 628.5)">
<title>G</title>
<polygon fill="white" stroke="none" points="-4,4 -4,-628.5 427.37,-628.5 427.37,4 -4,4"/>
<!-- 15081d5e0 -->
<g id="node1" class="node">
<title>15081d5e0</title>
<ellipse fill="none" stroke="black" cx="190.62" cy="-606.5" rx="27" ry="18"/>
<text text-anchor="middle" x="190.62" y="-601.45" font-family="Times,serif" font-size="14.00">Add</text>
</g>
<!-- 1510298a0 -->
<g id="node2" class="node">
<title>1510298a0</title>
<ellipse fill="none" stroke="black" cx="178.62" cy="-533.5" rx="31.9" ry="18"/>
<text text-anchor="middle" x="178.62" y="-528.45" font-family="Times,serif" font-size="14.00">12.42</text>
</g>
<!-- 15081d5e0&#45;&gt;1510298a0 -->
<g id="edge1" class="edge">
<title>15081d5e0&#45;&gt;1510298a0</title>
<path fill="none" stroke="black" d="M187.72,-588.31C186.42,-580.64 184.86,-571.39 183.39,-562.74"/>
<polygon fill="black" stroke="black" points="186.87,-562.3 181.75,-553.02 179.97,-563.46 186.87,-562.3"/>
</g>
<!-- 1508d3250 -->
<g id="node3" class="node">
<title>1508d3250</title>
<ellipse fill="none" stroke="black" cx="274.62" cy="-533.5" rx="46.23" ry="18"/>
<text text-anchor="middle" x="274.62" y="-528.45" font-family="Times,serif" font-size="14.00">x0&gt;0.75?</text>
</g>
<!-- 15081d5e0&#45;&gt;1508d3250 -->
<g id="edge2" class="edge">
<title>15081d5e0&#45;&gt;1508d3250</title>
<path fill="none" stroke="black" d="M206.82,-591.81C218.21,-582.18 233.73,-569.07 247.04,-557.81"/>
<polygon fill="black" stroke="black" points="249.3,-560.48 254.68,-551.36 244.78,-555.14 249.3,-560.48"/>
</g>
<!-- 146de38e0 -->
<g id="node4" class="node">
<title>146de38e0</title>
<ellipse fill="none" stroke="black" cx="231.62" cy="-460.5" rx="27" ry="18"/>
<text text-anchor="middle" x="231.62" y="-455.45" font-family="Times,serif" font-size="14.00">Mul</text>
</g>
<!-- 1508d3250&#45;&gt;146de38e0 -->
<g id="edge3" class="edge">
<title>1508d3250&#45;&gt;146de38e0</title>
<path fill="none" stroke="black" d="M264.43,-515.67C259.32,-507.24 253.03,-496.84 247.32,-487.42"/>
<polygon fill="black" stroke="black" points="250.4,-485.75 242.23,-479.01 244.41,-489.38 250.4,-485.75"/>
<text text-anchor="middle" x="259.56" y="-502.37" font-family="Times,serif" font-size="14.00">Y</text>
</g>
<!-- 1507536d0 -->
<g id="node5" class="node">
<title>1507536d0</title>
<ellipse fill="none" stroke="black" cx="329.62" cy="-372" rx="27" ry="18"/>
<text text-anchor="middle" x="329.62" y="-366.95" font-family="Times,serif" font-size="14.00">Add</text>
</g>
<!-- 1508d3250&#45;&gt;1507536d0 -->
<g id="edge4" class="edge">
<title>1508d3250&#45;&gt;1507536d0</title>
<path fill="none" stroke="black" d="M280.51,-515.43C289.98,-487.97 308.68,-433.72 320.08,-400.67"/>
<polygon fill="black" stroke="black" points="323.33,-401.97 323.28,-391.38 316.72,-399.69 323.33,-401.97"/>
<text text-anchor="middle" x="275.63" y="-502.13" font-family="Times,serif" font-size="14.00">N</text>
</g>
<!-- 146ded660 -->
<g id="node6" class="node">
<title>146ded660</title>
<ellipse fill="none" stroke="black" cx="120.62" cy="-372" rx="27" ry="18"/>
<text text-anchor="middle" x="120.62" y="-366.95" font-family="Times,serif" font-size="14.00">Add</text>
</g>
<!-- 146de38e0&#45;&gt;146ded660 -->
<g id="edge5" class="edge">
<title>146de38e0&#45;&gt;146ded660</title>
<path fill="none" stroke="black" d="M214.76,-446.36C196.67,-432.26 167.7,-409.69 146.67,-393.3"/>
<polygon fill="black" stroke="black" points="148.87,-390.58 138.83,-387.19 144.57,-396.1 148.87,-390.58"/>
</g>
<!-- 150766fa0 -->
<g id="node7" class="node">
<title>150766fa0</title>
<ellipse fill="none" stroke="black" cx="231.62" cy="-372" rx="27" ry="18"/>
<text text-anchor="middle" x="231.62" y="-366.95" font-family="Times,serif" font-size="14.00">Add</text>
</g>
<!-- 146de38e0&#45;&gt;150766fa0 -->
<g id="edge6" class="edge">
<title>146de38e0&#45;&gt;150766fa0</title>
<path fill="none" stroke="black" d="M231.62,-442.41C231.62,-430.76 231.62,-415.05 231.62,-401.52"/>
<polygon fill="black" stroke="black" points="235.12,-401.86 231.62,-391.86 228.12,-401.86 235.12,-401.86"/>
<text text-anchor="middle" x="243.62" y="-411.2" font-family="Times,serif" font-size="14.00">0.82</text>
</g>
<!-- x6 -->
<g id="node14" class="node">
<title>x6</title>
<ellipse fill="none" stroke="black" cx="173.62" cy="-18" rx="27" ry="18"/>
<text text-anchor="middle" x="173.62" y="-12.95" font-family="Times,serif" font-size="14.00">x6</text>
</g>
<!-- 1507536d0&#45;&gt;x6 -->
<g id="edge21" class="edge">
<title>1507536d0&#45;&gt;x6</title>
<path fill="none" stroke="black" d="M347.17,-358.15C365.81,-342.88 392.62,-315.53 392.62,-284.5 392.62,-284.5 392.62,-284.5 392.62,-105.5 392.62,-66.82 272.97,-38.06 210.55,-25.69"/>
<polygon fill="black" stroke="black" points="211.57,-22.32 201.09,-23.86 210.24,-29.2 211.57,-22.32"/>
<text text-anchor="middle" x="408" y="-189.95" font-family="Times,serif" font-size="14.00">10.58</text>
</g>
<!-- 150771ef0 -->
<g id="node19" class="node">
<title>150771ef0</title>
<ellipse fill="none" stroke="black" cx="329.62" cy="-283.5" rx="27" ry="18"/>
<text text-anchor="middle" x="329.62" y="-278.45" font-family="Times,serif" font-size="14.00">Exp</text>
</g>
<!-- 1507536d0&#45;&gt;150771ef0 -->
<g id="edge20" class="edge">
<title>1507536d0&#45;&gt;150771ef0</title>
<path fill="none" stroke="black" d="M329.62,-353.91C329.62,-342.26 329.62,-326.55 329.62,-313.02"/>
<polygon fill="black" stroke="black" points="333.12,-313.36 329.62,-303.36 326.12,-313.36 333.12,-313.36"/>
<text text-anchor="middle" x="341.62" y="-322.7" font-family="Times,serif" font-size="14.00">0.76</text>
</g>
<!-- 146d919c0 -->
<g id="node8" class="node">
<title>146d919c0</title>
<ellipse fill="none" stroke="black" cx="120.62" cy="-283.5" rx="27" ry="18"/>
<text text-anchor="middle" x="120.62" y="-278.45" font-family="Times,serif" font-size="14.00">Cos</text>
</g>
<!-- 146ded660&#45;&gt;146d919c0 -->
<g id="edge7" class="edge">
<title>146ded660&#45;&gt;146d919c0</title>
<path fill="none" stroke="black" d="M120.62,-353.91C120.62,-342.26 120.62,-326.55 120.62,-313.02"/>
<polygon fill="black" stroke="black" points="124.12,-313.36 120.62,-303.36 117.12,-313.36 124.12,-313.36"/>
<text text-anchor="middle" x="132.62" y="-322.7" font-family="Times,serif" font-size="14.00">9.11</text>
</g>
<!-- 1507a7200 -->
<g id="node9" class="node">
<title>1507a7200</title>
<ellipse fill="none" stroke="black" cx="43.62" cy="-283.5" rx="27" ry="18"/>
<text text-anchor="middle" x="43.62" y="-278.45" font-family="Times,serif" font-size="14.00">Add</text>
</g>
<!-- 146ded660&#45;&gt;1507a7200 -->
<g id="edge8" class="edge">
<title>146ded660&#45;&gt;1507a7200</title>
<path fill="none" stroke="black" d="M107.21,-355.93C95.39,-342.66 78,-323.12 64.39,-307.83"/>
<polygon fill="black" stroke="black" points="67.15,-305.67 57.89,-300.53 61.92,-310.32 67.15,-305.67"/>
</g>
<!-- 150766fa0&#45;&gt;x6 -->
<g id="edge17" class="edge">
<title>150766fa0&#45;&gt;x6</title>
<path fill="none" stroke="black" d="M217.48,-356.43C203.32,-340.24 183.62,-312.67 183.62,-284.5 183.62,-284.5 183.62,-284.5 183.62,-105.5 183.62,-86.04 181.09,-64.27 178.58,-47.44"/>
<polygon fill="black" stroke="black" points="182.05,-46.99 177.02,-37.66 175.14,-48.09 182.05,-46.99"/>
<text text-anchor="middle" x="197.87" y="-189.95" font-family="Times,serif" font-size="14.00">&#45;0.49</text>
</g>
<!-- 15073dc40 -->
<g id="node16" class="node">
<title>15073dc40</title>
<ellipse fill="none" stroke="black" cx="251.62" cy="-283.5" rx="27" ry="18"/>
<text text-anchor="middle" x="251.62" y="-278.45" font-family="Times,serif" font-size="14.00">Exp</text>
</g>
<!-- 150766fa0&#45;&gt;15073dc40 -->
<g id="edge16" class="edge">
<title>150766fa0&#45;&gt;15073dc40</title>
<path fill="none" stroke="black" d="M235.57,-353.91C238.28,-342.18 241.95,-326.34 245.09,-312.75"/>
<polygon fill="black" stroke="black" points="248.49,-313.56 247.34,-303.03 241.67,-311.98 248.49,-313.56"/>
<text text-anchor="middle" x="254.62" y="-322.7" font-family="Times,serif" font-size="14.00">1.46</text>
</g>
<!-- 146d40a70 -->
<g id="node10" class="node">
<title>146d40a70</title>
<ellipse fill="none" stroke="black" cx="120.62" cy="-195" rx="27" ry="18"/>
<text text-anchor="middle" x="120.62" y="-189.95" font-family="Times,serif" font-size="14.00">Add</text>
</g>
<!-- 146d919c0&#45;&gt;146d40a70 -->
<g id="edge9" class="edge">
<title>146d919c0&#45;&gt;146d40a70</title>
<path fill="none" stroke="black" d="M120.62,-265.41C120.62,-253.76 120.62,-238.05 120.62,-224.52"/>
<polygon fill="black" stroke="black" points="124.12,-224.86 120.62,-214.86 117.12,-224.86 124.12,-224.86"/>
</g>
<!-- 1507a7200&#45;&gt;x6 -->
<g id="edge14" class="edge">
<title>1507a7200&#45;&gt;x6</title>
<path fill="none" stroke="black" d="M31.2,-267.05C21.28,-253.65 8.15,-233.27 2.62,-213 -6.46,-179.73 15.18,-90.47 16.62,-88.5 24.39,-77.89 96.11,-48.86 139.88,-31.86"/>
<polygon fill="black" stroke="black" points="140.87,-35.23 148.94,-28.36 138.35,-28.7 140.87,-35.23"/>
<text text-anchor="middle" x="21" y="-145.7" font-family="Times,serif" font-size="14.00">24.26</text>
</g>
<!-- 1507093c0 -->
<g id="node15" class="node">
<title>1507093c0</title>
<ellipse fill="none" stroke="black" cx="43.62" cy="-195" rx="31.9" ry="18"/>
<text text-anchor="middle" x="43.62" y="-189.95" font-family="Times,serif" font-size="14.00">13.51</text>
</g>
<!-- 1507a7200&#45;&gt;1507093c0 -->
<g id="edge15" class="edge">
<title>1507a7200&#45;&gt;1507093c0</title>
<path fill="none" stroke="black" d="M43.62,-265.41C43.62,-253.76 43.62,-238.05 43.62,-224.52"/>
<polygon fill="black" stroke="black" points="47.12,-224.86 43.62,-214.86 40.12,-224.86 47.12,-224.86"/>
</g>
<!-- x1 -->
<g id="node11" class="node">
<title>x1</title>
<ellipse fill="none" stroke="black" cx="52.62" cy="-106.5" rx="27" ry="18"/>
<text text-anchor="middle" x="52.62" y="-101.45" font-family="Times,serif" font-size="14.00">x1</text>
</g>
<!-- 146d40a70&#45;&gt;x1 -->
<g id="edge10" class="edge">
<title>146d40a70&#45;&gt;x1</title>
<path fill="none" stroke="black" d="M108.46,-178.54C98.21,-165.5 83.37,-146.62 71.56,-131.6"/>
<polygon fill="black" stroke="black" points="74.54,-129.72 65.61,-124.02 69.04,-134.05 74.54,-129.72"/>
<text text-anchor="middle" x="104.62" y="-145.7" font-family="Times,serif" font-size="14.00">0.87</text>
</g>
<!-- 1507cd020 -->
<g id="node12" class="node">
<title>1507cd020</title>
<ellipse fill="none" stroke="black" cx="124.62" cy="-106.5" rx="27" ry="18"/>
<text text-anchor="middle" x="124.62" y="-101.45" font-family="Times,serif" font-size="14.00">Add</text>
</g>
<!-- 146d40a70&#45;&gt;1507cd020 -->
<g id="edge11" class="edge">
<title>146d40a70&#45;&gt;1507cd020</title>
<path fill="none" stroke="black" d="M121.41,-176.91C121.95,-165.26 122.68,-149.55 123.3,-136.02"/>
<polygon fill="black" stroke="black" points="126.78,-136.51 123.75,-126.36 119.79,-136.19 126.78,-136.51"/>
</g>
<!-- x3 -->
<g id="node13" class="node">
<title>x3</title>
<ellipse fill="none" stroke="black" cx="92.62" cy="-18" rx="27" ry="18"/>
<text text-anchor="middle" x="92.62" y="-12.95" font-family="Times,serif" font-size="14.00">x3</text>
</g>
<!-- 1507cd020&#45;&gt;x3 -->
<g id="edge12" class="edge">
<title>1507cd020&#45;&gt;x3</title>
<path fill="none" stroke="black" d="M108.68,-91.73C103,-85.82 97.23,-78.46 94.12,-70.5 91.34,-63.39 90.25,-55.3 90.02,-47.68"/>
<polygon fill="black" stroke="black" points="93.52,-47.86 90.24,-37.79 86.52,-47.71 93.52,-47.86"/>
<text text-anchor="middle" x="107.87" y="-57.2" font-family="Times,serif" font-size="14.00">&#45;0.60</text>
</g>
<!-- 1507cd020&#45;&gt;x6 -->
<g id="edge13" class="edge">
<title>1507cd020&#45;&gt;x6</title>
<path fill="none" stroke="black" d="M130.09,-88.69C133.79,-78.34 139.17,-64.99 145.62,-54 147.8,-50.29 150.34,-46.56 152.99,-42.97"/>
<polygon fill="black" stroke="black" points="155.69,-45.2 159.13,-35.17 150.19,-40.87 155.69,-45.2"/>
<text text-anchor="middle" x="157.62" y="-57.2" font-family="Times,serif" font-size="14.00">0.17</text>
</g>
<!-- 1507d5ba0 -->
<g id="node17" class="node">
<title>1507d5ba0</title>
<ellipse fill="none" stroke="black" cx="257.62" cy="-195" rx="27" ry="18"/>
<text text-anchor="middle" x="257.62" y="-189.95" font-family="Times,serif" font-size="14.00">Sin</text>
</g>
<!-- 15073dc40&#45;&gt;1507d5ba0 -->
<g id="edge18" class="edge">
<title>15073dc40&#45;&gt;1507d5ba0</title>
<path fill="none" stroke="black" d="M252.81,-265.41C253.61,-253.76 254.7,-238.05 255.64,-224.52"/>
<polygon fill="black" stroke="black" points="259.11,-225.08 256.31,-214.86 252.13,-224.59 259.11,-225.08"/>
<text text-anchor="middle" x="266.62" y="-234.2" font-family="Times,serif" font-size="14.00">0.11</text>
</g>
<!-- x0 -->
<g id="node18" class="node">
<title>x0</title>
<ellipse fill="none" stroke="black" cx="291.62" cy="-106.5" rx="27" ry="18"/>
<text text-anchor="middle" x="291.62" y="-101.45" font-family="Times,serif" font-size="14.00">x0</text>
</g>
<!-- 1507d5ba0&#45;&gt;x0 -->
<g id="edge19" class="edge">
<title>1507d5ba0&#45;&gt;x0</title>
<path fill="none" stroke="black" d="M257.99,-176.73C258.72,-166.45 260.59,-153.34 265.12,-142.5 266.75,-138.62 268.9,-134.78 271.29,-131.15"/>
<polygon fill="black" stroke="black" points="273.92,-133.48 277.03,-123.35 268.28,-129.33 273.92,-133.48"/>
<text text-anchor="middle" x="283.37" y="-145.7" font-family="Times,serif" font-size="14.00">219.51</text>
</g>
<!-- 150175c60 -->
<g id="node20" class="node">
<title>150175c60</title>
<ellipse fill="none" stroke="black" cx="329.62" cy="-195" rx="27" ry="18"/>
<text text-anchor="middle" x="329.62" y="-189.95" font-family="Times,serif" font-size="14.00">Sin</text>
</g>
<!-- 150771ef0&#45;&gt;150175c60 -->
<g id="edge22" class="edge">
<title>150771ef0&#45;&gt;150175c60</title>
<path fill="none" stroke="black" d="M329.62,-265.41C329.62,-253.76 329.62,-238.05 329.62,-224.52"/>
<polygon fill="black" stroke="black" points="333.12,-224.86 329.62,-214.86 326.12,-224.86 333.12,-224.86"/>
<text text-anchor="middle" x="341.62" y="-234.2" font-family="Times,serif" font-size="14.00">1.94</text>
</g>
<!-- 150175c60&#45;&gt;x0 -->
<g id="edge23" class="edge">
<title>150175c60&#45;&gt;x0</title>
<path fill="none" stroke="black" d="M322.29,-177.32C316.98,-165.24 309.69,-148.63 303.55,-134.64"/>
<polygon fill="black" stroke="black" points="306.76,-133.26 299.53,-125.51 300.35,-136.08 306.76,-133.26"/>
<text text-anchor="middle" x="332.37" y="-145.7" font-family="Times,serif" font-size="14.00">218.45</text>
</g>
</g>
</svg>