<?xml version="1.0" encoding="UTF-8" standalone="no"?>
<!DOCTYPE svg PUBLIC "-//W3C//DTD SVG 1.1//EN"
 "http://www.w3.org/Graphics/SVG/1.1/DTD/svg11.dtd">
<!-- Generated by graphviz version 12.0.0 (0)
 -->
<!-- Title: G Pages: 1 -->
<svg width="611pt" height="152pt"
 viewBox="0.00 0.00 611.01 152.00" xmlns="http://www.w3.org/2000/svg" xmlns:xlink="http://www.w3.org/1999/xlink">
<g id="graph0" class="graph" transform="scale(1 1) rotate(0) translate(4 148)">
<title>G</title>
<polygon fill="white" stroke="none" points="-4,4 -4,-148 607.01,-148 607.01,4 -4,4"/>
<!-- 141fd3450 -->
<g id="node1" class="node">
<title>141fd3450</title>
<ellipse fill="none" stroke="black" cx="27" cy="-98" rx="27" ry="18"/>
<text text-anchor="middle" x="27" y="-92.95" font-family="Times,serif" font-size="14.00">Add</text>
</g>
<!-- 141fd2090 -->
<g id="node2" class="node">
<title>141fd2090</title>
<ellipse fill="none" stroke="black" cx="172.61" cy="-126" rx="27" ry="18"/>
<text text-anchor="middle" x="172.61" y="-120.95" font-family="Times,serif" font-size="14.00">Exp</text>
</g>
<!-- 141fd3450&#45;&gt;141fd2090 -->
<g id="edge1" class="edge">
<title>141fd3450&#45;&gt;141fd2090</title>
<path fill="none" stroke="black" d="M53.34,-102.94C76.11,-107.38 109.79,-113.95 135.4,-118.94"/>
<polygon fill="black" stroke="black" points="134.55,-122.34 145.04,-120.82 135.89,-115.47 134.55,-122.34"/>
<text text-anchor="middle" x="87.38" y="-115.2" font-family="Times,serif" font-size="14.00">11.38</text>
</g>
<!-- 141fcbe00 -->
<g id="node3" class="node">
<title>141fcbe00</title>
<ellipse fill="none" stroke="black" cx="172.61" cy="-72" rx="51.86" ry="18"/>
<text text-anchor="middle" x="172.61" y="-66.95" font-family="Times,serif" font-size="14.00">x0&gt;=0.76?</text>
</g>
<!-- 141fd3450&#45;&gt;141fcbe00 -->
<g id="edge2" class="edge">
<title>141fd3450&#45;&gt;141fcbe00</title>
<path fill="none" stroke="black" d="M53.34,-93.41C70.34,-90.33 93.42,-86.16 114.68,-82.31"/>
<polygon fill="black" stroke="black" points="115.22,-85.77 124.44,-80.54 113.97,-78.88 115.22,-85.77"/>
</g>
<!-- x6 -->
<g id="node4" class="node">
<title>x6</title>
<ellipse fill="none" stroke="black" cx="313.34" cy="-126" rx="27" ry="18"/>
<text text-anchor="middle" x="313.34" y="-120.95" font-family="Times,serif" font-size="14.00">x6</text>
</g>
<!-- 141fd2090&#45;&gt;x6 -->
<g id="edge3" class="edge">
<title>141fd2090&#45;&gt;x6</title>
<path fill="none" stroke="black" d="M200.03,-126C221.15,-126 251.02,-126 274.65,-126"/>
<polygon fill="black" stroke="black" points="274.5,-129.5 284.5,-126 274.5,-122.5 274.5,-129.5"/>
</g>
<!-- 141fe2370 -->
<g id="node5" class="node">
<title>141fe2370</title>
<ellipse fill="none" stroke="black" cx="313.34" cy="-72" rx="51.86" ry="18"/>
<text text-anchor="middle" x="313.34" y="-66.95" font-family="Times,serif" font-size="14.00">x0&gt;=0.82?</text>
</g>
<!-- 141fcbe00&#45;&gt;141fe2370 -->
<g id="edge4" class="edge">
<title>141fcbe00&#45;&gt;141fe2370</title>
<path fill="none" stroke="black" d="M224.88,-72C233.05,-72 241.58,-72 249.97,-72"/>
<polygon fill="black" stroke="black" points="249.77,-75.5 259.77,-72 249.77,-68.5 249.77,-75.5"/>
<text text-anchor="middle" x="229.75" y="-58.7" font-family="Times,serif" font-size="14.00">Y</text>
</g>
<!-- 141ff19f0 -->
<g id="node6" class="node">
<title>141ff19f0</title>
<ellipse fill="none" stroke="black" cx="313.34" cy="-18" rx="27" ry="18"/>
<text text-anchor="middle" x="313.34" y="-12.95" font-family="Times,serif" font-size="14.00">Exp</text>
</g>
<!-- 141fcbe00&#45;&gt;141ff19f0 -->
<g id="edge5" class="edge">
<title>141fcbe00&#45;&gt;141ff19f0</title>
<path fill="none" stroke="black" d="M208.26,-58.51C229.86,-50.11 257.5,-39.35 278.87,-31.03"/>
<polygon fill="black" stroke="black" points="279.95,-34.36 288,-27.47 277.41,-27.84 279.95,-34.36"/>
<text text-anchor="middle" x="203.39" y="-45.21" font-family="Times,serif" font-size="14.00">N</text>
</g>
<!-- 141fe2420 -->
<g id="node7" class="node">
<title>141fe2420</title>
<ellipse fill="none" stroke="black" cx="457.11" cy="-126" rx="31.9" ry="18"/>
<text text-anchor="middle" x="457.11" y="-120.95" font-family="Times,serif" font-size="14.00">15.89</text>
</g>
<!-- 141fe2370&#45;&gt;141fe2420 -->
<g id="edge6" class="edge">
<title>141fe2370&#45;&gt;141fe2420</title>
<path fill="none" stroke="black" d="M349.38,-85.35C370.61,-93.43 397.65,-103.74 419.21,-111.95"/>
<polygon fill="black" stroke="black" points="417.91,-115.2 428.5,-115.49 420.4,-108.66 417.91,-115.2"/>
<text text-anchor="middle" x="344.51" y="-88.55" font-family="Times,serif" font-size="14.00">Y</text>
</g>
<!-- x3 -->
<g id="node8" class="node">
<title>x3</title>
<ellipse fill="none" stroke="black" cx="457.11" cy="-72" rx="27" ry="18"/>
<text text-anchor="middle" x="457.11" y="-66.95" font-family="Times,serif" font-size="14.00">x3</text>
</g>
<!-- 141fe2370&#45;&gt;x3 -->
<g id="edge7" class="edge">
<title>141fe2370&#45;&gt;x3</title>
<path fill="none" stroke="black" d="M365.52,-72C383.01,-72 402.23,-72 418.45,-72"/>
<polygon fill="black" stroke="black" points="418.16,-75.5 428.16,-72 418.16,-68.5 418.16,-75.5"/>
<text text-anchor="middle" x="417.67" y="-58.7" font-family="Times,serif" font-size="14.00">0.18</text>
<text text-anchor="middle" x="370.4" y="-58.7" font-family="Times,serif" font-size="14.00">N</text>
</g>
<!-- 141fd89e0 -->
<g id="node9" class="node">
<title>141fd89e0</title>
<ellipse fill="none" stroke="black" cx="457.11" cy="-18" rx="27" ry="18"/>
<text text-anchor="middle" x="457.11" y="-12.95" font-family="Times,serif" font-size="14.00">Sin</text>
</g>
<!-- 141ff19f0&#45;&gt;141fd89e0 -->
<g id="edge8" class="edge">
<title>141ff19f0&#45;&gt;141fd89e0</title>
<path fill="none" stroke="black" d="M340.67,-18C362.56,-18 393.96,-18 418.5,-18"/>
<polygon fill="black" stroke="black" points="418.4,-21.5 428.4,-18 418.4,-14.5 418.4,-21.5"/>
<text text-anchor="middle" x="395.2" y="-21.2" font-family="Times,serif" font-size="14.00">1.79</text>
</g>
<!-- x1 -->
<g id="node10" class="node">
<title>x1</title>
<ellipse fill="none" stroke="black" cx="576.01" cy="-18" rx="27" ry="18"/>
<text text-anchor="middle" x="576.01" y="-12.95" font-family="Times,serif" font-size="14.00">x1</text>
</g>
<!-- 141fd89e0&#45;&gt;x1 -->
<g id="edge9" class="edge">
<title>141fd89e0&#45;&gt;x1</title>
<path fill="none" stroke="black" d="M484.34,-18C499.98,-18 520.1,-18 537.41,-18"/>
<polygon fill="black" stroke="black" points="537.35,-21.5 547.35,-18 537.35,-14.5 537.35,-21.5"/>
<text text-anchor="middle" x="519.01" y="-21.2" font-family="Times,serif" font-size="14.00">0.82</text>
</g>
</g>
</svg>