<?xml version="1.0" encoding="UTF-8" standalone="no"?>
<!DOCTYPE svg PUBLIC "-//W3C//DTD SVG 1.1//EN"
 "http://www.w3.org/Graphics/SVG/1.1/DTD/svg11.dtd">
<!-- Generated by graphviz version 9.0.0 (20231125.0833)
 -->
<!-- Title: G Pages: 1 -->
<svg width="221pt" height="279pt"
 viewBox="0.00 0.00 220.63 279.25" xmlns="http://www.w3.org/2000/svg" xmlns:xlink="http://www.w3.org/1999/xlink">
<g id="graph0" class="graph" transform="scale(1 1) rotate(0) translate(4 275.25)">
<title>G</title>
<polygon fill="white" stroke="none" points="-4,4 -4,-275.25 216.63,-275.25 216.63,4 -4,4"/>
<!-- y -->
<g id="node1" class="node">
<title>y</title>
<polygon fill="none" stroke="black" points="160.63,-271.25 106.63,-271.25 106.63,-235.25 160.63,-235.25 160.63,-271.25"/>
<text text-anchor="middle" x="133.63" y="-248.57" font-family="Times,serif" font-size="14.00">y</text>
</g>
<!-- 7f2110142b30 -->
<g id="node2" class="node">
<title>7f2110142b30</title>
<ellipse fill="none" stroke="black" cx="133.63" cy="-164" rx="59.1" ry="18"/>
<text text-anchor="middle" x="133.63" y="-159.32" font-family="Times,serif" font-size="14.00">x0&gt;0.75?</text>
</g>
<!-- y&#45;&gt;7f2110142b30 -->
<g id="edge1" class="edge">
<title>y&#45;&gt;7f2110142b30</title>
<path fill="none" stroke="black" d="M133.63,-235.01C133.63,-223.18 133.63,-207.2 133.63,-193.5"/>
<polygon fill="black" stroke="black" points="137.13,-193.72 133.63,-183.72 130.13,-193.72 137.13,-193.72"/>
<text text-anchor="middle" x="149.38" y="-203.95" font-family="Times,serif" font-size="14.00">0.75</text>
</g>
<!-- 7f211016c9e0 -->
<g id="node3" class="node">
<title>7f211016c9e0</title>
<ellipse fill="none" stroke="black" cx="81.63" cy="-91" rx="59.1" ry="18"/>
<text text-anchor="middle" x="81.63" y="-86.33" font-family="Times,serif" font-size="14.00">x0&gt;0.81?</text>
</g>
<!-- 7f2110142b30&#45;&gt;7f211016c9e0 -->
<g id="edge2" class="edge">
<title>7f2110142b30&#45;&gt;7f211016c9e0</title>
<path fill="none" stroke="black" d="M121.31,-146.17C115.09,-137.69 107.42,-127.21 100.48,-117.73"/>
<polygon fill="black" stroke="black" points="103.5,-115.93 94.76,-109.93 97.85,-120.06 103.5,-115.93"/>
<text text-anchor="middle" x="116.81" y="-132.87" font-family="Times,serif" font-size="14.00">Y</text>
</g>
<!-- x1 -->
<g id="node4" class="node">
<title>x1</title>
<ellipse fill="none" stroke="black" cx="185.63" cy="-91" rx="27" ry="18"/>
<text text-anchor="middle" x="185.63" y="-86.33" font-family="Times,serif" font-size="14.00">x1</text>
</g>
<!-- 7f2110142b30&#45;&gt;x1 -->
<g id="edge3" class="edge">
<title>7f2110142b30&#45;&gt;x1</title>
<path fill="none" stroke="black" d="M145.96,-146.17C152.35,-137.44 160.3,-126.6 167.39,-116.91"/>
<polygon fill="black" stroke="black" points="170.13,-119.09 173.22,-108.95 164.48,-114.95 170.13,-119.09"/>
<text text-anchor="middle" x="158.36" y="-111.68" font-family="Times,serif" font-size="14.00">0.02</text>
<text text-anchor="middle" x="139.96" y="-132.87" font-family="Times,serif" font-size="14.00">N</text>
</g>
<!-- 7f2110142520 -->
<g id="node5" class="node">
<title>7f2110142520</title>
<ellipse fill="none" stroke="black" cx="39.63" cy="-18" rx="39.63" ry="18"/>
<text text-anchor="middle" x="39.63" y="-13.32" font-family="Times,serif" font-size="14.00">30.49</text>
</g>
<!-- 7f211016c9e0&#45;&gt;7f2110142520 -->
<g id="edge4" class="edge">
<title>7f211016c9e0&#45;&gt;7f2110142520</title>
<path fill="none" stroke="black" d="M71.47,-72.81C66.6,-64.58 60.66,-54.54 55.24,-45.38"/>
<polygon fill="black" stroke="black" points="58.29,-43.67 50.19,-36.84 52.27,-47.23 58.29,-43.67"/>
<text text-anchor="middle" x="66.97" y="-59.51" font-family="Times,serif" font-size="14.00">Y</text>
</g>
<!-- x0 -->
<g id="node6" class="node">
<title>x0</title>
<ellipse fill="none" stroke="black" cx="124.63" cy="-18" rx="27" ry="18"/>
<text text-anchor="middle" x="124.63" y="-13.32" font-family="Times,serif" font-size="14.00">x0</text>
</g>
<!-- 7f211016c9e0&#45;&gt;x0 -->
<g id="edge5" class="edge">
<title>7f211016c9e0&#45;&gt;x0</title>
<path fill="none" stroke="black" d="M92.04,-72.81C97.15,-64.37 103.42,-54.03 109.08,-44.68"/>
<polygon fill="black" stroke="black" points="111.94,-46.72 114.13,-36.35 105.95,-43.09 111.94,-46.72"/>
<text text-anchor="middle" x="94.66" y="-39.01" font-family="Times,serif" font-size="14.00">49.48</text>
<text text-anchor="middle" x="86.04" y="-59.51" font-family="Times,serif" font-size="14.00">N</text>
</g>
</g>
</svg>