<?xml version="1.0" encoding="UTF-8" standalone="no"?>
<!DOCTYPE svg PUBLIC "-//W3C//DTD SVG 1.1//EN"
 "http://www.w3.org/Graphics/SVG/1.1/DTD/svg11.dtd">
<!-- Generated by graphviz version 12.0.0 (0)
 -->
<!-- Title: G Pages: 1 -->
<svg width="314pt" height="476pt"
 viewBox="0.00 0.00 314.26 476.00" xmlns="http://www.w3.org/2000/svg" xmlns:xlink="http://www.w3.org/1999/xlink">
<g id="graph0" class="graph" transform="scale(1 1) rotate(0) translate(4 472)">
<title>G</title>
<polygon fill="white" stroke="none" points="-4,4 -4,-472 310.26,-472 310.26,4 -4,4"/>
<!-- 140d6f660 -->
<g id="node1" class="node">
<title>140d6f660</title>
<ellipse fill="lightcoral" stroke="black" cx="138.9" cy="-450" rx="41.12" ry="18"/>
<text text-anchor="middle" x="138.9" y="-444.95" font-family="Times,serif" font-size="14.00">Logistic</text>
</g>
<!-- 140d9d760 -->
<g id="node2" class="node">
<title>140d9d760</title>
<ellipse fill="lightcoral" stroke="black" cx="138.9" cy="-378" rx="27" ry="18"/>
<text text-anchor="middle" x="138.9" y="-372.95" font-family="Times,serif" font-size="14.00">Add</text>
</g>
<!-- 140d6f660&#45;&gt;140d9d760 -->
<g id="edge1" class="edge">
<title>140d6f660&#45;&gt;140d9d760</title>
<path fill="none" stroke="black" d="M138.9,-431.7C138.9,-424.41 138.9,-415.73 138.9,-407.54"/>
<polygon fill="black" stroke="black" points="142.4,-407.62 138.9,-397.62 135.4,-407.62 142.4,-407.62"/>
</g>
<!-- 140d8e9c0 -->
<g id="node3" class="node">
<title>140d8e9c0</title>
<ellipse fill="none" stroke="black" cx="101.9" cy="-306" rx="27" ry="18"/>
<text text-anchor="middle" x="101.9" y="-300.95" font-family="Times,serif" font-size="14.00">Sin</text>
</g>
<!-- 140d9d760&#45;&gt;140d8e9c0 -->
<g id="edge2" class="edge">
<title>140d9d760&#45;&gt;140d8e9c0</title>
<path fill="none" stroke="black" d="M130.32,-360.76C125.98,-352.55 120.6,-342.37 115.69,-333.09"/>
<polygon fill="black" stroke="black" points="118.91,-331.69 111.15,-324.49 112.72,-334.96 118.91,-331.69"/>
</g>
<!-- 140d9d760Offset -->
<g id="node4" class="node">
<title>140d9d760Offset</title>
<ellipse fill="lightcoral" stroke="black" cx="176.9" cy="-306" rx="30.37" ry="18"/>
<text text-anchor="middle" x="176.9" y="-300.95" font-family="Times,serif" font-size="14.00">&#45;0.23</text>
</g>
<!-- 140d9d760&#45;&gt;140d9d760Offset -->
<g id="edge3" class="edge">
<title>140d9d760&#45;&gt;140d9d760Offset</title>
<path fill="none" stroke="black" d="M147.72,-360.76C152.11,-352.67 157.54,-342.66 162.52,-333.49"/>
<polygon fill="black" stroke="black" points="165.46,-335.42 167.15,-324.96 159.3,-332.08 165.46,-335.42"/>
</g>
<!-- 140d856e0 -->
<g id="node5" class="node">
<title>140d856e0</title>
<ellipse fill="none" stroke="black" cx="101.9" cy="-234" rx="82.57" ry="18"/>
<text text-anchor="middle" x="101.9" y="-228.95" font-family="Times,serif" font-size="14.00">AIDS&gt;=16068.00?</text>
</g>
<!-- 140d8e9c0&#45;&gt;140d856e0 -->
<g id="edge4" class="edge">
<title>140d8e9c0&#45;&gt;140d856e0</title>
<path fill="none" stroke="black" d="M101.9,-287.7C101.9,-280.41 101.9,-271.73 101.9,-263.54"/>
<polygon fill="black" stroke="black" points="105.4,-263.62 101.9,-253.62 98.4,-263.62 105.4,-263.62"/>
</g>
<!-- 140de5660 -->
<g id="node6" class="node">
<title>140de5660</title>
<ellipse fill="none" stroke="black" cx="31.9" cy="-162" rx="31.9" ry="18"/>
<text text-anchor="middle" x="31.9" y="-156.95" font-family="Times,serif" font-size="14.00">70.58</text>
</g>
<!-- 140d856e0&#45;&gt;140de5660 -->
<g id="edge5" class="edge">
<title>140d856e0&#45;&gt;140de5660</title>
<path fill="none" stroke="black" d="M84.96,-216.05C75.85,-206.95 64.51,-195.6 54.64,-185.74"/>
<polygon fill="black" stroke="black" points="57.41,-183.55 47.86,-178.96 52.46,-188.5 57.41,-183.55"/>
<text text-anchor="middle" x="80.08" y="-202.75" font-family="Times,serif" font-size="14.00">Y</text>
</g>
<!-- 140d74b80 -->
<g id="node7" class="node">
<title>140d74b80</title>
<ellipse fill="none" stroke="black" cx="171.9" cy="-162" rx="89.74" ry="18"/>
<text text-anchor="middle" x="171.9" y="-156.95" font-family="Times,serif" font-size="14.00">Total&gt;=1601948.00?</text>
</g>
<!-- 140d856e0&#45;&gt;140d74b80 -->
<g id="edge6" class="edge">
<title>140d856e0&#45;&gt;140d74b80</title>
<path fill="none" stroke="black" d="M118.85,-216.05C127.36,-207.54 137.83,-197.07 147.22,-187.68"/>
<polygon fill="black" stroke="black" points="149.45,-190.41 154.04,-180.86 144.5,-185.46 149.45,-190.41"/>
<text text-anchor="middle" x="113.97" y="-202.75" font-family="Times,serif" font-size="14.00">N</text>
</g>
<!-- 140d894a0 -->
<g id="node8" class="node">
<title>140d894a0</title>
<ellipse fill="none" stroke="black" cx="110.9" cy="-90" rx="30.37" ry="18"/>
<text text-anchor="middle" x="110.9" y="-84.95" font-family="Times,serif" font-size="14.00">&#45;1.43</text>
</g>
<!-- 140d74b80&#45;&gt;140d894a0 -->
<g id="edge7" class="edge">
<title>140d74b80&#45;&gt;140d894a0</title>
<path fill="none" stroke="black" d="M157.14,-144.05C149.55,-135.35 140.17,-124.59 131.85,-115.03"/>
<polygon fill="black" stroke="black" points="134.49,-112.74 125.28,-107.5 129.21,-117.34 134.49,-112.74"/>
<text text-anchor="middle" x="152.26" y="-130.75" font-family="Times,serif" font-size="14.00">Y</text>
</g>
<!-- 140db6d30 -->
<g id="node9" class="node">
<title>140db6d30</title>
<ellipse fill="none" stroke="black" cx="232.9" cy="-90" rx="73.36" ry="18"/>
<text text-anchor="middle" x="232.9" y="-84.95" font-family="Times,serif" font-size="14.00">AIDS&gt;=258.00?</text>
</g>
<!-- 140d74b80&#45;&gt;140db6d30 -->
<g id="edge8" class="edge">
<title>140d74b80&#45;&gt;140db6d30</title>
<path fill="none" stroke="black" d="M186.67,-144.05C193.94,-135.71 202.85,-125.49 210.9,-116.25"/>
<polygon fill="black" stroke="black" points="213.35,-118.77 217.28,-108.93 208.07,-114.17 213.35,-118.77"/>
<text text-anchor="middle" x="181.79" y="-130.75" font-family="Times,serif" font-size="14.00">N</text>
</g>
<!-- 140ddf8d0 -->
<g id="node10" class="node">
<title>140ddf8d0</title>
<ellipse fill="none" stroke="black" cx="192.9" cy="-18" rx="31.9" ry="18"/>
<text text-anchor="middle" x="192.9" y="-12.95" font-family="Times,serif" font-size="14.00">70.58</text>
</g>
<!-- 140db6d30&#45;&gt;140ddf8d0 -->
<g id="edge9" class="edge">
<title>140db6d30&#45;&gt;140ddf8d0</title>
<path fill="none" stroke="black" d="M223.02,-71.7C218.49,-63.78 213.03,-54.23 208.01,-45.44"/>
<polygon fill="black" stroke="black" points="211.15,-43.88 203.15,-36.94 205.07,-47.36 211.15,-43.88"/>
<text text-anchor="middle" x="218.14" y="-58.4" font-family="Times,serif" font-size="14.00">Y</text>
</g>
<!-- Total -->
<g id="node11" class="node">
<title>Total</title>
<ellipse fill="none" stroke="black" cx="272.9" cy="-18" rx="30.37" ry="18"/>
<text text-anchor="middle" x="272.9" y="-12.95" font-family="Times,serif" font-size="14.00">Total</text>
</g>
<!-- 140db6d30&#45;&gt;Total -->
<g id="edge10" class="edge">
<title>140db6d30&#45;&gt;Total</title>
<path fill="none" stroke="black" d="M242.79,-71.7C247.38,-63.67 252.93,-53.95 258.01,-45.05"/>
<polygon fill="black" stroke="black" points="261,-46.88 262.93,-36.46 254.93,-43.4 261,-46.88"/>
<text text-anchor="middle" x="251.68" y="-38.34" font-family="Times,serif" font-size="14.00">1.00</text>
<text text-anchor="middle" x="237.92" y="-58.4" font-family="Times,serif" font-size="14.00">N</text>
</g>
</g>
</svg>