<?xml version="1.0" encoding="UTF-8" standalone="no"?>
<!DOCTYPE svg PUBLIC "-//W3C//DTD SVG 1.1//EN"
 "http://www.w3.org/Graphics/SVG/1.1/DTD/svg11.dtd">
<!-- Generated by graphviz version 9.0.0 (20231125.0833)
 -->
<!-- Title: G Pages: 1 -->
<svg width="519pt" height="125pt"
 viewBox="0.00 0.00 519.17 125.00" xmlns="http://www.w3.org/2000/svg" xmlns:xlink="http://www.w3.org/1999/xlink">
<g id="graph0" class="graph" transform="scale(1 1) rotate(0) translate(4 121)">
<title>G</title>
<polygon fill="white" stroke="none" points="-4,4 -4,-121 515.17,-121 515.17,4 -4,4"/>
<!-- y -->
<g id="node1" class="node">
<title>y</title>
<polygon fill="none" stroke="black" points="54,-48 0,-48 0,-12 54,-12 54,-48"/>
<text text-anchor="middle" x="27" y="-25.32" font-family="Times,serif" font-size="14.00">y</text>
</g>
<!-- 7f2110142b30 -->
<g id="node2" class="node">
<title>7f2110142b30</title>
<ellipse fill="none" stroke="black" cx="180.6" cy="-30" rx="59.1" ry="18"/>
<text text-anchor="middle" x="180.6" y="-25.32" font-family="Times,serif" font-size="14.00">x0&gt;0.75?</text>
</g>
<!-- y&#45;&gt;7f2110142b30 -->
<g id="edge1" class="edge">
<title>y&#45;&gt;7f2110142b30</title>
<path fill="none" stroke="black" d="M54.41,-30C69.8,-30 89.99,-30 109.66,-30"/>
<polygon fill="black" stroke="black" points="109.63,-33.5 119.63,-30 109.63,-26.5 109.63,-33.5"/>
<text text-anchor="middle" x="87.75" y="-33.95" font-family="Times,serif" font-size="14.00">0.75</text>
</g>
<!-- 7f211016c9e0 -->
<g id="node3" class="node">
<title>7f211016c9e0</title>
<ellipse fill="none" stroke="black" cx="335.8" cy="-72" rx="59.1" ry="18"/>
<text text-anchor="middle" x="335.8" y="-67.33" font-family="Times,serif" font-size="14.00">x0&gt;0.81?</text>
</g>
<!-- 7f2110142b30&#45;&gt;7f211016c9e0 -->
<g id="edge2" class="edge">
<title>7f2110142b30&#45;&gt;7f211016c9e0</title>
<path fill="none" stroke="black" d="M225.5,-42.04C242.49,-46.69 262.12,-52.07 280.01,-56.98"/>
<polygon fill="black" stroke="black" points="278.86,-60.29 289.43,-59.56 280.71,-53.54 278.86,-60.29"/>
<text text-anchor="middle" x="221" y="-45.99" font-family="Times,serif" font-size="14.00">Y</text>
</g>
<!-- x1 -->
<g id="node4" class="node">
<title>x1</title>
<ellipse fill="none" stroke="black" cx="335.8" cy="-18" rx="27" ry="18"/>
<text text-anchor="middle" x="335.8" y="-13.32" font-family="Times,serif" font-size="14.00">x1</text>
</g>
<!-- 7f2110142b30&#45;&gt;x1 -->
<g id="edge3" class="edge">
<title>7f2110142b30&#45;&gt;x1</title>
<path fill="none" stroke="black" d="M238.21,-25.57C257.97,-24.02 279.64,-22.32 297.44,-20.93"/>
<polygon fill="black" stroke="black" points="297.59,-24.43 307.29,-20.15 297.05,-17.45 297.59,-24.43"/>
<text text-anchor="middle" x="293.05" y="-6.74" font-family="Times,serif" font-size="14.00">0.02</text>
<text text-anchor="middle" x="244.21" y="-12.27" font-family="Times,serif" font-size="14.00">N</text>
</g>
<!-- 7f2110142520 -->
<g id="node5" class="node">
<title>7f2110142520</title>
<ellipse fill="none" stroke="black" cx="471.53" cy="-99" rx="39.63" ry="18"/>
<text text-anchor="middle" x="471.53" y="-94.33" font-family="Times,serif" font-size="14.00">30.49</text>
</g>
<!-- 7f211016c9e0&#45;&gt;7f2110142520 -->
<g id="edge4" class="edge">
<title>7f211016c9e0&#45;&gt;7f2110142520</title>
<path fill="none" stroke="black" d="M385.84,-81.9C398.28,-84.41 411.61,-87.1 423.93,-89.59"/>
<polygon fill="black" stroke="black" points="422.92,-92.96 433.42,-91.51 424.31,-86.1 422.92,-92.96"/>
<text text-anchor="middle" x="381.34" y="-85.85" font-family="Times,serif" font-size="14.00">Y</text>
</g>
<!-- x0 -->
<g id="node6" class="node">
<title>x0</title>
<ellipse fill="none" stroke="black" cx="471.53" cy="-45" rx="27" ry="18"/>
<text text-anchor="middle" x="471.53" y="-40.33" font-family="Times,serif" font-size="14.00">x0</text>
</g>
<!-- 7f211016c9e0&#45;&gt;x0 -->
<g id="edge5" class="edge">
<title>7f211016c9e0&#45;&gt;x0</title>
<path fill="none" stroke="black" d="M385.84,-62.1C401.72,-58.89 419.05,-55.39 433.87,-52.4"/>
<polygon fill="black" stroke="black" points="434.55,-55.84 443.66,-50.43 433.17,-48.97 434.55,-55.84"/>
<text text-anchor="middle" x="424.89" y="-36.83" font-family="Times,serif" font-size="14.00">49.48</text>
<text text-anchor="middle" x="391.84" y="-48.8" font-family="Times,serif" font-size="14.00">N</text>
</g>
</g>
</svg>