<?xml version="1.0" encoding="UTF-8" standalone="no"?>
<!DOCTYPE svg PUBLIC "-//W3C//DTD SVG 1.1//EN"
 "http://www.w3.org/Graphics/SVG/1.1/DTD/svg11.dtd">
<!-- Generated by graphviz version 12.0.0 (0)
 -->
<!-- Title: G Pages: 1 -->
<svg width="196pt" height="371pt"
 viewBox="0.00 0.00 195.75 370.75" xmlns="http://www.w3.org/2000/svg" xmlns:xlink="http://www.w3.org/1999/xlink">
<g id="graph0" class="graph" transform="scale(1 1) rotate(0) translate(4 366.75)">
<title>G</title>
<polygon fill="white" stroke="none" points="-4,4 -4,-366.75 191.75,-366.75 191.75,4 -4,4"/>
<text text-anchor="middle" x="93.88" y="-5.75" font-family="Times,serif" font-size="10.00">^ split feature fixed, * split threshold fixed</text>
<!-- 107ceee40 -->
<g id="node1" class="node">
<title>107ceee40</title>
<ellipse fill="lightcoral" stroke="black" cx="125.19" cy="-344.75" rx="41.12" ry="18"/>
<text text-anchor="middle" x="125.19" y="-339.7" font-family="Times,serif" font-size="14.00">Logistic</text>
</g>
<!-- 107ceeef0 -->
<g id="node2" class="node">
<title>107ceeef0</title>
<ellipse fill="lightcoral" stroke="black" cx="125.19" cy="-271.75" rx="27" ry="18"/>
<text text-anchor="middle" x="125.19" y="-266.7" font-family="Times,serif" font-size="14.00">Add</text>
</g>
<!-- 107ceee40&#45;&gt;107ceeef0 -->
<g id="edge1" class="edge">
<title>107ceee40&#45;&gt;107ceeef0</title>
<path fill="none" stroke="black" d="M125.19,-326.56C125.19,-318.98 125.19,-309.85 125.19,-301.29"/>
<polygon fill="black" stroke="black" points="128.69,-301.29 125.19,-291.29 121.69,-301.29 128.69,-301.29"/>
</g>
<!-- 107ceefa0 -->
<g id="node3" class="node">
<title>107ceefa0</title>
<ellipse fill="none" stroke="black" cx="70.19" cy="-183.25" rx="27" ry="18"/>
<text text-anchor="middle" x="70.19" y="-178.2" font-family="Times,serif" font-size="14.00">Add</text>
</g>
<!-- 107ceeef0&#45;&gt;107ceefa0 -->
<g id="edge2" class="edge">
<title>107ceeef0&#45;&gt;107ceefa0</title>
<path fill="none" stroke="black" d="M115.1,-254.88C107.09,-242.28 95.73,-224.41 86.44,-209.8"/>
<polygon fill="black" stroke="black" points="89.53,-208.15 81.21,-201.59 83.63,-211.9 89.53,-208.15"/>
<text text-anchor="middle" x="115.19" y="-222.45" font-family="Times,serif" font-size="14.00">0.00</text>
</g>
<!-- 107ceeef0Offset -->
<g id="node4" class="node">
<title>107ceeef0Offset</title>
<ellipse fill="lightcoral" stroke="black" cx="145.19" cy="-183.25" rx="30.37" ry="18"/>
<text text-anchor="middle" x="145.19" y="-178.2" font-family="Times,serif" font-size="14.00">&#45;0.38</text>
</g>
<!-- 107ceeef0&#45;&gt;107ceeef0Offset -->
<g id="edge3" class="edge">
<title>107ceeef0&#45;&gt;107ceeef0Offset</title>
<path fill="none" stroke="black" d="M129.14,-253.66C131.85,-241.93 135.52,-226.09 138.66,-212.5"/>
<polygon fill="black" stroke="black" points="142.06,-213.31 140.91,-202.78 135.24,-211.73 142.06,-213.31"/>
</g>
<!-- 107cf9100 -->
<g id="node5" class="node">
<title>107cf9100</title>
<ellipse fill="none" stroke="black" cx="39.19" cy="-110.25" rx="27" ry="18"/>
<text text-anchor="middle" x="39.19" y="-105.2" font-family="Times,serif" font-size="14.00">Cos</text>
</g>
<!-- 107ceefa0&#45;&gt;107cf9100 -->
<g id="edge4" class="edge">
<title>107ceefa0&#45;&gt;107cf9100</title>
<path fill="none" stroke="black" d="M62.84,-165.42C59.33,-157.38 55.04,-147.54 51.08,-138.47"/>
<polygon fill="black" stroke="black" points="54.3,-137.11 47.09,-129.34 47.88,-139.91 54.3,-137.11"/>
</g>
<!-- AIDS -->
<g id="node6" class="node">
<title>AIDS</title>
<ellipse fill="none" stroke="black" cx="70.19" cy="-37.25" rx="32.41" ry="18"/>
<text text-anchor="middle" x="70.19" y="-32.2" font-family="Times,serif" font-size="14.00">AIDS</text>
</g>
<!-- 107ceefa0&#45;&gt;AIDS -->
<g id="edge5" class="edge">
<title>107ceefa0&#45;&gt;AIDS</title>
<path fill="none" stroke="black" d="M72.17,-165.25C73.31,-154.63 74.62,-140.66 75.19,-128.25 75.93,-112.27 75.93,-108.23 75.19,-92.25 74.81,-83.91 74.09,-74.87 73.31,-66.61"/>
<polygon fill="black" stroke="black" points="76.81,-66.35 72.32,-56.75 69.84,-67.05 76.81,-66.35"/>
<text text-anchor="middle" x="88.19" y="-105.2" font-family="Times,serif" font-size="14.00">0.01</text>
</g>
<!-- 107cf9100&#45;&gt;AIDS -->
<g id="edge6" class="edge">
<title>107cf9100&#45;&gt;AIDS</title>
<path fill="none" stroke="black" d="M46.54,-92.42C50.05,-84.38 54.35,-74.54 58.31,-65.47"/>
<polygon fill="black" stroke="black" points="61.5,-66.91 62.29,-56.34 55.08,-64.11 61.5,-66.91"/>
</g>
</g>
</svg>