<?xml version="1.0" encoding="UTF-8" standalone="no"?>
<!DOCTYPE svg PUBLIC "-//W3C//DTD SVG 1.1//EN"
 "http://www.w3.org/Graphics/SVG/1.1/DTD/svg11.dtd">
<!-- Generated by graphviz version 12.0.0 (0)
 -->
<!-- Title: G Pages: 1 -->
<svg width="297pt" height="298pt"
 viewBox="0.00 0.00 296.90 297.75" xmlns="http://www.w3.org/2000/svg" xmlns:xlink="http://www.w3.org/1999/xlink">
<g id="graph0" class="graph" transform="scale(1 1) rotate(0) translate(4 293.75)">
<title>G</title>
<polygon fill="white" stroke="none" points="-4,4 -4,-293.75 292.9,-293.75 292.9,4 -4,4"/>
<text text-anchor="middle" x="144.45" y="-5.75" font-family="Times,serif" font-size="10.00">^ split feature fixed, * split threshold fixed</text>
<!-- y -->
<g id="node1" class="node">
<title>y</title>
<polygon fill="none" stroke="black" points="171.9,-289.75 117.9,-289.75 117.9,-253.75 171.9,-253.75 171.9,-289.75"/>
<text text-anchor="middle" x="144.9" y="-266.7" font-family="Times,serif" font-size="14.00">y</text>
</g>
<!-- 11cf5c330 -->
<g id="node2" class="node">
<title>11cf5c330</title>
<ellipse fill="lightcoral" stroke="black" cx="144.9" cy="-183.25" rx="66.19" ry="18"/>
<text text-anchor="middle" x="144.9" y="-178.2" font-family="Times,serif" font-size="14.00">x_0 &gt;= 3.15*?</text>
</g>
<!-- y&#45;&gt;11cf5c330 -->
<g id="edge1" class="edge">
<title>y&#45;&gt;11cf5c330</title>
<path fill="none" stroke="black" d="M144.9,-253.66C144.9,-242.01 144.9,-226.3 144.9,-212.77"/>
<polygon fill="black" stroke="black" points="148.4,-213.11 144.9,-203.11 141.4,-213.11 148.4,-213.11"/>
<text text-anchor="middle" x="156.9" y="-222.45" font-family="Times,serif" font-size="14.00" fill="lightcoral">3.15</text>
</g>
<!-- 159e9f020 -->
<g id="node3" class="node">
<title>159e9f020</title>
<ellipse fill="none" stroke="black" cx="91.9" cy="-110.25" rx="61.59" ry="18"/>
<text text-anchor="middle" x="91.9" y="-105.2" font-family="Times,serif" font-size="14.00">x_2 &gt;= 0.01?</text>
</g>
<!-- 11cf5c330&#45;&gt;159e9f020 -->
<g id="edge2" class="edge">
<title>11cf5c330&#45;&gt;159e9f020</title>
<path fill="none" stroke="black" d="M132.34,-165.42C126.01,-156.94 118.18,-146.46 111.11,-136.98"/>
<polygon fill="black" stroke="black" points="114.06,-135.09 105.28,-129.17 108.46,-139.28 114.06,-135.09"/>
<text text-anchor="middle" x="127.47" y="-152.12" font-family="Times,serif" font-size="14.00">Y</text>
</g>
<!-- 159e9ce30 -->
<g id="node4" class="node">
<title>159e9ce30</title>
<ellipse fill="lightcoral" stroke="black" cx="198.9" cy="-110.25" rx="27" ry="18"/>
<text text-anchor="middle" x="198.9" y="-105.2" font-family="Times,serif" font-size="14.00">Sub</text>
</g>
<!-- 11cf5c330&#45;&gt;159e9ce30 -->
<g id="edge3" class="edge">
<title>11cf5c330&#45;&gt;159e9ce30</title>
<path fill="none" stroke="black" d="M157.7,-165.42C164.51,-156.47 173,-145.31 180.5,-135.45"/>
<polygon fill="black" stroke="black" points="183.12,-137.79 186.39,-127.71 177.55,-133.55 183.12,-137.79"/>
<text text-anchor="middle" x="175.3" y="-129.7" font-family="Times,serif" font-size="14.00" fill="lightcoral">1.03</text>
<text text-anchor="middle" x="152.82" y="-152.12" font-family="Times,serif" font-size="14.00" fill="lightcoral">N</text>
</g>
<!-- 159e43280 -->
<g id="node5" class="node">
<title>159e43280</title>
<ellipse fill="none" stroke="black" cx="31.9" cy="-37.25" rx="31.9" ry="18"/>
<text text-anchor="middle" x="31.9" y="-32.2" font-family="Times,serif" font-size="14.00">19.90</text>
</g>
<!-- 159e9f020&#45;&gt;159e43280 -->
<g id="edge4" class="edge">
<title>159e9f020&#45;&gt;159e43280</title>
<path fill="none" stroke="black" d="M77.68,-92.42C70.15,-83.51 60.76,-72.39 52.44,-62.56"/>
<polygon fill="black" stroke="black" points="55.3,-60.52 46.17,-55.14 49.96,-65.04 55.3,-60.52"/>
<text text-anchor="middle" x="72.81" y="-79.12" font-family="Times,serif" font-size="14.00">Y</text>
</g>
<!-- x_2 -->
<g id="node6" class="node">
<title>x_2</title>
<ellipse fill="none" stroke="black" cx="108.9" cy="-37.25" rx="27" ry="18"/>
<text text-anchor="middle" x="108.9" y="-32.2" font-family="Times,serif" font-size="14.00">x_2</text>
</g>
<!-- 159e9f020&#45;&gt;x_2 -->
<g id="edge5" class="edge">
<title>159e9f020&#45;&gt;x_2</title>
<path fill="none" stroke="black" d="M96.02,-92.06C97.88,-84.3 100.12,-74.93 102.21,-66.2"/>
<polygon fill="black" stroke="black" points="105.55,-67.29 104.47,-56.75 98.74,-65.66 105.55,-67.29"/>
<text text-anchor="middle" x="90.58" y="-58.48" font-family="Times,serif" font-size="14.00">&#45;0.14</text>
<text text-anchor="middle" x="91.14" y="-78.76" font-family="Times,serif" font-size="14.00">N</text>
</g>
<!-- x_0 -->
<g id="node7" class="node">
<title>x_0</title>
<ellipse fill="none" stroke="black" cx="189.9" cy="-37.25" rx="27" ry="18"/>
<text text-anchor="middle" x="189.9" y="-32.2" font-family="Times,serif" font-size="14.00">x_0</text>
</g>
<!-- 159e9ce30&#45;&gt;x_0 -->
<g id="edge6" class="edge">
<title>159e9ce30&#45;&gt;x_0</title>
<path fill="none" stroke="black" d="M196.72,-92.06C195.75,-84.39 194.58,-75.14 193.48,-66.49"/>
<polygon fill="black" stroke="black" points="196.98,-66.26 192.25,-56.78 190.04,-67.14 196.98,-66.26"/>
</g>
<!-- x_1 -->
<g id="node8" class="node">
<title>x_1</title>
<ellipse fill="none" stroke="black" cx="261.9" cy="-37.25" rx="27" ry="18"/>
<text text-anchor="middle" x="261.9" y="-32.2" font-family="Times,serif" font-size="14.00">x_1</text>
</g>
<!-- 159e9ce30&#45;&gt;x_1 -->
<g id="edge7" class="edge">
<title>159e9ce30&#45;&gt;x_1</title>
<path fill="none" stroke="black" d="M212.26,-94.19C220.62,-84.78 231.55,-72.46 241.03,-61.77"/>
<polygon fill="black" stroke="black" points="243.54,-64.22 247.56,-54.42 238.3,-59.57 243.54,-64.22"/>
</g>
</g>
</svg>