<?xml version="1.0" encoding="UTF-8" standalone="no"?>
<!DOCTYPE svg PUBLIC "-//W3C//DTD SVG 1.1//EN"
 "http://www.w3.org/Graphics/SVG/1.1/DTD/svg11.dtd">
<!-- Generated by graphviz version 14.1.2 (0)
 -->
<!-- Title: G Pages: 1 -->
<svg width="357pt" height="313pt"
 viewBox="0.00 0.00 357.00 313.00" xmlns="http://www.w3.org/2000/svg" xmlns:xlink="http://www.w3.org/1999/xlink">
<g id="graph0" class="graph" transform="scale(1 1) rotate(0) translate(4 309.25)">
<title>G</title>
<polygon fill="white" stroke="none" points="-4,4 -4,-309.25 352.66,-309.25 352.66,4 -4,4"/>
<text xml:space="preserve" text-anchor="middle" x="174.33" y="-5.75" font-family="Times,serif" font-size="10.00">^ split feature fixed, * split threshold fixed</text>
<!-- 1638d9460 -->
<g id="node1" class="node">
<title>1638d9460</title>
<ellipse fill="lightcoral" stroke="black" cx="137" cy="-287.25" rx="42.65" ry="18"/>
<text xml:space="preserve" text-anchor="middle" x="137" y="-282.2" font-family="Times,serif" font-size="14.00">Softmax</text>
</g>
<!-- x_0 -->
<g id="node2" class="node">
<title>x_0</title>
<ellipse fill="none" stroke="black" cx="27" cy="-198.75" rx="27" ry="18"/>
<text xml:space="preserve" text-anchor="middle" x="27" y="-193.7" font-family="Times,serif" font-size="14.00">x_0</text>
</g>
<!-- 1638d9460&#45;&gt;x_0 -->
<g id="edge1" class="edge">
<title>1638d9460&#45;&gt;x_0</title>
<path fill="none" stroke="black" d="M117.33,-270.79C99.38,-256.67 72.73,-235.71 53.02,-220.21"/>
<polygon fill="black" stroke="black" points="55.18,-217.46 45.16,-214.03 50.86,-222.96 55.18,-217.46"/>
<text xml:space="preserve" text-anchor="middle" x="110.23" y="-237.95" font-family="Times,serif" font-size="14.00">class 0</text>
</g>
<!-- 1638cf8c0 -->
<g id="node3" class="node">
<title>1638cf8c0</title>
<ellipse fill="none" stroke="black" cx="137" cy="-198.75" rx="64.66" ry="18"/>
<text xml:space="preserve" text-anchor="middle" x="137" y="-193.7" font-family="Times,serif" font-size="14.00">x_4 &gt;= &#45;0.47?</text>
</g>
<!-- 1638d9460&#45;&gt;1638cf8c0 -->
<g id="edge2" class="edge">
<title>1638d9460&#45;&gt;1638cf8c0</title>
<path fill="none" stroke="black" d="M137,-269.16C137,-257.51 137,-241.8 137,-228.27"/>
<polygon fill="black" stroke="black" points="140.5,-228.61 137,-218.61 133.5,-228.61 140.5,-228.61"/>
<text xml:space="preserve" text-anchor="middle" x="155.38" y="-237.95" font-family="Times,serif" font-size="14.00">class 1</text>
</g>
<!-- 1638ccc20 -->
<g id="node4" class="node">
<title>1638ccc20</title>
<ellipse fill="none" stroke="black" cx="284" cy="-198.75" rx="64.66" ry="18"/>
<text xml:space="preserve" text-anchor="middle" x="284" y="-193.7" font-family="Times,serif" font-size="14.00">x_4 &gt;= &#45;0.47?</text>
</g>
<!-- 1638d9460&#45;&gt;1638ccc20 -->
<g id="edge3" class="edge">
<title>1638d9460&#45;&gt;1638ccc20</title>
<path fill="none" stroke="black" d="M161.27,-271.97C184.7,-258.18 220.48,-237.13 247.37,-221.3"/>
<polygon fill="black" stroke="black" points="249.05,-224.38 255.89,-216.29 245.5,-218.34 249.05,-224.38"/>
<text xml:space="preserve" text-anchor="middle" x="242.04" y="-237.95" font-family="Times,serif" font-size="14.00">class 2</text>
</g>
<!-- x_4 -->
<g id="node5" class="node">
<title>x_4</title>
<ellipse fill="none" stroke="black" cx="75" cy="-125.75" rx="27" ry="18"/>
<text xml:space="preserve" text-anchor="middle" x="75" y="-120.7" font-family="Times,serif" font-size="14.00">x_4</text>
</g>
<!-- 1638cf8c0&#45;&gt;x_4 -->
<g id="edge4" class="edge">
<title>1638cf8c0&#45;&gt;x_4</title>
<path fill="none" stroke="black" d="M122.31,-180.92C114.22,-171.66 104.06,-160.03 95.23,-149.92"/>
<polygon fill="black" stroke="black" points="98.11,-147.9 88.9,-142.67 92.84,-152.5 98.11,-147.9"/>
<text xml:space="preserve" text-anchor="middle" x="102.16" y="-144.73" font-family="Times,serif" font-size="14.00">&#45;1.53</text>
<text xml:space="preserve" text-anchor="middle" x="117.43" y="-167.62" font-family="Times,serif" font-size="14.00">Y</text>
</g>
<!-- 16384d160 -->
<g id="node6" class="node">
<title>16384d160</title>
<ellipse fill="none" stroke="black" cx="147" cy="-125.75" rx="27.3" ry="18"/>
<text xml:space="preserve" text-anchor="middle" x="147" y="-120.7" font-family="Times,serif" font-size="14.00">3.39</text>
</g>
<!-- 1638cf8c0&#45;&gt;16384d160 -->
<g id="edge5" class="edge">
<title>1638cf8c0&#45;&gt;16384d160</title>
<path fill="none" stroke="black" d="M139.42,-180.56C140.5,-172.89 141.8,-163.64 143.02,-154.99"/>
<polygon fill="black" stroke="black" points="146.46,-155.67 144.39,-145.28 139.53,-154.69 146.46,-155.67"/>
<text xml:space="preserve" text-anchor="middle" x="134.55" y="-167.26" font-family="Times,serif" font-size="14.00">N</text>
</g>
<!-- 1638ca800 -->
<g id="node7" class="node">
<title>1638ca800</title>
<ellipse fill="none" stroke="black" cx="256" cy="-125.75" rx="27" ry="18"/>
<text xml:space="preserve" text-anchor="middle" x="256" y="-120.7" font-family="Times,serif" font-size="14.00">Add</text>
</g>
<!-- 1638ccc20&#45;&gt;1638ca800 -->
<g id="edge6" class="edge">
<title>1638ccc20&#45;&gt;1638ca800</title>
<path fill="none" stroke="black" d="M277.22,-180.56C274.05,-172.51 270.19,-162.73 266.64,-153.72"/>
<polygon fill="black" stroke="black" points="270,-152.72 263.08,-144.7 263.49,-155.28 270,-152.72"/>
<text xml:space="preserve" text-anchor="middle" x="274.52" y="-146.49" font-family="Times,serif" font-size="14.00">0.14</text>
<text xml:space="preserve" text-anchor="middle" x="272.35" y="-167.26" font-family="Times,serif" font-size="14.00">Y</text>
</g>
<!-- x_2 -->
<g id="node8" class="node">
<title>x_2</title>
<ellipse fill="none" stroke="black" cx="299" cy="-37.25" rx="27" ry="18"/>
<text xml:space="preserve" text-anchor="middle" x="299" y="-32.2" font-family="Times,serif" font-size="14.00">x_2</text>
</g>
<!-- 1638ccc20&#45;&gt;x_2 -->
<g id="edge7" class="edge">
<title>1638ccc20&#45;&gt;x_2</title>
<path fill="none" stroke="black" d="M286.84,-180.27C288.49,-169.72 290.53,-155.98 292,-143.75 294.88,-119.82 295.42,-113.8 297,-89.75 297.49,-82.34 297.87,-74.32 298.16,-66.87"/>
<polygon fill="black" stroke="black" points="301.66,-67.06 298.51,-56.94 294.66,-66.81 301.66,-67.06"/>
<text xml:space="preserve" text-anchor="middle" x="284.31" y="-58.63" font-family="Times,serif" font-size="14.00">&#45;0.43</text>
<text xml:space="preserve" text-anchor="middle" x="281.96" y="-166.97" font-family="Times,serif" font-size="14.00">N</text>
</g>
<!-- 1638ca800&#45;&gt;x_2 -->
<g id="edge9" class="edge">
<title>1638ca800&#45;&gt;x_2</title>
<path fill="none" stroke="black" d="M258.11,-107.32C259.87,-96.99 263,-83.87 268.5,-73.25 270.71,-68.98 273.54,-64.8 276.59,-60.9"/>
<polygon fill="black" stroke="black" points="279.05,-63.41 282.91,-53.55 273.74,-58.85 279.05,-63.41"/>
<text xml:space="preserve" text-anchor="middle" x="282.75" y="-76.45" font-family="Times,serif" font-size="14.00">&#45;5.89</text>
</g>
<!-- x_3 -->
<g id="node9" class="node">
<title>x_3</title>
<ellipse fill="none" stroke="black" cx="215" cy="-37.25" rx="27" ry="18"/>
<text xml:space="preserve" text-anchor="middle" x="215" y="-32.2" font-family="Times,serif" font-size="14.00">x_3</text>
</g>
<!-- 1638ca800&#45;&gt;x_3 -->
<g id="edge8" class="edge">
<title>1638ca800&#45;&gt;x_3</title>
<path fill="none" stroke="black" d="M236.69,-112.81C228.95,-106.91 220.85,-99.05 216.5,-89.75 213.18,-82.65 211.96,-74.37 211.78,-66.56"/>
<polygon fill="black" stroke="black" points="215.27,-66.9 212.14,-56.78 208.28,-66.64 215.27,-66.9"/>
<text xml:space="preserve" text-anchor="middle" x="230.75" y="-76.45" font-family="Times,serif" font-size="14.00">&#45;8.83</text>
</g>
</g>
</svg>