<?xml version="1.0" encoding="UTF-8" standalone="no"?>
<!DOCTYPE svg PUBLIC "-//W3C//DTD SVG 1.1//EN"
 "http://www.w3.org/Graphics/SVG/1.1/DTD/svg11.dtd">
<!-- Generated by graphviz version 9.0.0 (20231125.0833)
 -->
<!-- Title: G Pages: 1 -->
<svg width="884pt" height="692pt"
 viewBox="0.00 0.00 883.80 692.00" xmlns="http://www.w3.org/2000/svg" xmlns:xlink="http://www.w3.org/1999/xlink">
<g id="graph0" class="graph" transform="scale(1 1) rotate(0) translate(4 688)">
<title>G</title>
<polygon fill="white" stroke="none" points="-4,4 -4,-688 879.8,-688 879.8,4 -4,4"/>
<!-- 7f06c3cf4120 -->
<g id="node1" class="node">
<title>7f06c3cf4120</title>
<ellipse fill="none" stroke="black" cx="403.48" cy="-666" rx="50.68" ry="18"/>
<text text-anchor="middle" x="403.48" y="-661.33" font-family="Times,serif" font-size="14.00">Logistic</text>
</g>
<!-- 7f06c228a580 -->
<g id="node2" class="node">
<title>7f06c228a580</title>
<ellipse fill="none" stroke="black" cx="403.48" cy="-594" rx="30.69" ry="18"/>
<text text-anchor="middle" x="403.48" y="-589.33" font-family="Times,serif" font-size="14.00">Add</text>
</g>
<!-- 7f06c3cf4120&#45;&gt;7f06c228a580 -->
<g id="edge1" class="edge">
<title>7f06c3cf4120&#45;&gt;7f06c228a580</title>
<path fill="none" stroke="black" d="M403.48,-647.7C403.48,-640.41 403.48,-631.73 403.48,-623.54"/>
<polygon fill="black" stroke="black" points="406.98,-623.62 403.48,-613.62 399.98,-623.62 406.98,-623.62"/>
</g>
<!-- 7f06caffd8d0 -->
<g id="node3" class="node">
<title>7f06caffd8d0</title>
<ellipse fill="none" stroke="black" cx="341.48" cy="-522" rx="72.25" ry="18"/>
<text text-anchor="middle" x="341.48" y="-517.33" font-family="Times,serif" font-size="14.00">AIDS&gt;0.00?</text>
</g>
<!-- 7f06c228a580&#45;&gt;7f06caffd8d0 -->
<g id="edge2" class="edge">
<title>7f06c228a580&#45;&gt;7f06caffd8d0</title>
<path fill="none" stroke="black" d="M389.72,-577.46C382.18,-568.95 372.65,-558.19 364.05,-548.48"/>
<polygon fill="black" stroke="black" points="366.75,-546.26 357.5,-541.09 361.51,-550.9 366.75,-546.26"/>
</g>
<!-- 7f06c228a580Offset -->
<g id="node4" class="node">
<title>7f06c228a580Offset</title>
<ellipse fill="none" stroke="black" cx="465.48" cy="-522" rx="33.32" ry="18"/>
<text text-anchor="middle" x="465.48" y="-517.33" font-family="Times,serif" font-size="14.00">0.27</text>
</g>
<!-- 7f06c228a580&#45;&gt;7f06c228a580Offset -->
<g id="edge3" class="edge">
<title>7f06c228a580&#45;&gt;7f06c228a580Offset</title>
<path fill="none" stroke="black" d="M417.24,-577.46C425.18,-568.49 435.35,-557.02 444.29,-546.92"/>
<polygon fill="black" stroke="black" points="446.74,-549.43 450.75,-539.62 441.5,-544.79 446.74,-549.43"/>
</g>
<!-- 7f06b86fcf50 -->
<g id="node5" class="node">
<title>7f06b86fcf50</title>
<ellipse fill="none" stroke="black" cx="275.48" cy="-450" rx="39.63" ry="18"/>
<text text-anchor="middle" x="275.48" y="-445.32" font-family="Times,serif" font-size="14.00">15.88</text>
</g>
<!-- 7f06caffd8d0&#45;&gt;7f06b86fcf50 -->
<g id="edge4" class="edge">
<title>7f06caffd8d0&#45;&gt;7f06b86fcf50</title>
<path fill="none" stroke="black" d="M325.5,-504.05C317.32,-495.38 307.22,-484.67 298.24,-475.15"/>
<polygon fill="black" stroke="black" points="300.85,-472.81 291.44,-467.93 295.75,-477.61 300.85,-472.81"/>
<text text-anchor="middle" x="321" y="-490.75" font-family="Times,serif" font-size="14.00">Y</text>
</g>
<!-- 7f06c058e8b0 -->
<g id="node6" class="node">
<title>7f06c058e8b0</title>
<ellipse fill="none" stroke="black" cx="408.48" cy="-450" rx="74.88" ry="18"/>
<text text-anchor="middle" x="408.48" y="-445.32" font-family="Times,serif" font-size="14.00">Total&gt;&#45;0.45?</text>
</g>
<!-- 7f06caffd8d0&#45;&gt;7f06c058e8b0 -->
<g id="edge5" class="edge">
<title>7f06caffd8d0&#45;&gt;7f06c058e8b0</title>
<path fill="none" stroke="black" d="M357.7,-504.05C365.76,-495.63 375.67,-485.28 384.58,-475.97"/>
<polygon fill="black" stroke="black" points="386.97,-478.53 391.36,-468.88 381.92,-473.69 386.97,-478.53"/>
<text text-anchor="middle" x="351.7" y="-490.75" font-family="Times,serif" font-size="14.00">N</text>
</g>
<!-- 7f06b87c0220 -->
<g id="node7" class="node">
<title>7f06b87c0220</title>
<ellipse fill="none" stroke="black" cx="304.48" cy="-378" rx="65.94" ry="18"/>
<text text-anchor="middle" x="304.48" y="-373.32" font-family="Times,serif" font-size="14.00">Age&gt;1.06?</text>
</g>
<!-- 7f06c058e8b0&#45;&gt;7f06b87c0220 -->
<g id="edge6" class="edge">
<title>7f06c058e8b0&#45;&gt;7f06b87c0220</title>
<path fill="none" stroke="black" d="M384.09,-432.59C370.3,-423.31 352.86,-411.57 337.82,-401.44"/>
<polygon fill="black" stroke="black" points="339.85,-398.59 329.6,-395.91 335.95,-404.4 339.85,-398.59"/>
<text text-anchor="middle" x="379.59" y="-419.29" font-family="Times,serif" font-size="14.00">Y</text>
</g>
<!-- 7f06b899ad20 -->
<g id="node8" class="node">
<title>7f06b899ad20</title>
<ellipse fill="none" stroke="black" cx="512.48" cy="-378" rx="74.88" ry="18"/>
<text text-anchor="middle" x="512.48" y="-373.32" font-family="Times,serif" font-size="14.00">Total&gt;&#45;0.67?</text>
</g>
<!-- 7f06c058e8b0&#45;&gt;7f06b899ad20 -->
<g id="edge7" class="edge">
<title>7f06c058e8b0&#45;&gt;7f06b899ad20</title>
<path fill="none" stroke="black" d="M432.86,-432.59C446.55,-423.37 463.84,-411.74 478.81,-401.66"/>
<polygon fill="black" stroke="black" points="480.65,-404.64 486.99,-396.15 476.74,-398.83 480.65,-404.64"/>
<text text-anchor="middle" x="426.86" y="-419.29" font-family="Times,serif" font-size="14.00">N</text>
</g>
<!-- 7f06d1c2f0b0 -->
<g id="node9" class="node">
<title>7f06d1c2f0b0</title>
<ellipse fill="none" stroke="black" cx="130.48" cy="-306" rx="74.88" ry="18"/>
<text text-anchor="middle" x="130.48" y="-301.32" font-family="Times,serif" font-size="14.00">Total&gt;&#45;0.32?</text>
</g>
<!-- 7f06b87c0220&#45;&gt;7f06d1c2f0b0 -->
<g id="edge8" class="edge">
<title>7f06b87c0220&#45;&gt;7f06d1c2f0b0</title>
<path fill="none" stroke="black" d="M268.42,-362.5C242.3,-351.99 206.71,-337.67 178.22,-326.21"/>
<polygon fill="black" stroke="black" points="179.67,-323.02 169.09,-322.53 177.06,-329.51 179.67,-323.02"/>
<text text-anchor="middle" x="263.92" y="-349.2" font-family="Times,serif" font-size="14.00">Y</text>
</g>
<!-- 7f06d19bb440 -->
<g id="node10" class="node">
<title>7f06d19bb440</title>
<ellipse fill="none" stroke="black" cx="304.48" cy="-306" rx="69.1" ry="18"/>
<text text-anchor="middle" x="304.48" y="-301.32" font-family="Times,serif" font-size="14.00">Age&gt;&#45;1.06?</text>
</g>
<!-- 7f06b87c0220&#45;&gt;7f06d19bb440 -->
<g id="edge9" class="edge">
<title>7f06b87c0220&#45;&gt;7f06d19bb440</title>
<path fill="none" stroke="black" d="M304.48,-359.7C304.48,-352.41 304.48,-343.73 304.48,-335.54"/>
<polygon fill="black" stroke="black" points="307.98,-335.62 304.48,-325.62 300.98,-335.62 307.98,-335.62"/>
<text text-anchor="middle" x="298.48" y="-346.4" font-family="Times,serif" font-size="14.00">N</text>
</g>
<!-- 7f06b8521930 -->
<g id="node15" class="node">
<title>7f06b8521930</title>
<ellipse fill="none" stroke="black" cx="512.48" cy="-306" rx="74.88" ry="18"/>
<text text-anchor="middle" x="512.48" y="-301.32" font-family="Times,serif" font-size="14.00">Total&gt;&#45;0.67?</text>
</g>
<!-- 7f06b899ad20&#45;&gt;7f06b8521930 -->
<g id="edge14" class="edge">
<title>7f06b899ad20&#45;&gt;7f06b8521930</title>
<path fill="none" stroke="black" d="M512.48,-359.7C512.48,-352.41 512.48,-343.73 512.48,-335.54"/>
<polygon fill="black" stroke="black" points="515.98,-335.62 512.48,-325.62 508.98,-335.62 515.98,-335.62"/>
<text text-anchor="middle" x="507.98" y="-346.4" font-family="Times,serif" font-size="14.00">Y</text>
</g>
<!-- 7f06c9c5e500 -->
<g id="node16" class="node">
<title>7f06c9c5e500</title>
<ellipse fill="none" stroke="black" cx="716.48" cy="-306" rx="65.94" ry="18"/>
<text text-anchor="middle" x="716.48" y="-301.32" font-family="Times,serif" font-size="14.00">Age&gt;0.00?</text>
</g>
<!-- 7f06b899ad20&#45;&gt;7f06c9c5e500 -->
<g id="edge15" class="edge">
<title>7f06b899ad20&#45;&gt;7f06c9c5e500</title>
<path fill="none" stroke="black" d="M554.25,-362.67C586.54,-351.59 631.38,-336.2 665.74,-324.41"/>
<polygon fill="black" stroke="black" points="666.74,-327.77 675.06,-321.21 664.47,-321.15 666.74,-327.77"/>
<text text-anchor="middle" x="548.25" y="-349.37" font-family="Times,serif" font-size="14.00">N</text>
</g>
<!-- 7f06c8398890 -->
<g id="node11" class="node">
<title>7f06c8398890</title>
<ellipse fill="none" stroke="black" cx="36.48" cy="-234" rx="36.48" ry="18"/>
<text text-anchor="middle" x="36.48" y="-229.32" font-family="Times,serif" font-size="14.00">&#45;0.67</text>
</g>
<!-- 7f06d1c2f0b0&#45;&gt;7f06c8398890 -->
<g id="edge10" class="edge">
<title>7f06d1c2f0b0&#45;&gt;7f06c8398890</title>
<path fill="none" stroke="black" d="M108.2,-288.41C95.32,-278.82 78.98,-266.65 65.14,-256.35"/>
<polygon fill="black" stroke="black" points="67.37,-253.64 57.26,-250.47 63.19,-259.25 67.37,-253.64"/>
<text text-anchor="middle" x="103.7" y="-275.11" font-family="Times,serif" font-size="14.00">Y</text>
</g>
<!-- 7f06b83ee630 -->
<g id="node12" class="node">
<title>7f06b83ee630</title>
<ellipse fill="none" stroke="black" cx="130.48" cy="-234" rx="39.63" ry="18"/>
<text text-anchor="middle" x="130.48" y="-229.32" font-family="Times,serif" font-size="14.00">13.86</text>
</g>
<!-- 7f06d1c2f0b0&#45;&gt;7f06b83ee630 -->
<g id="edge11" class="edge">
<title>7f06d1c2f0b0&#45;&gt;7f06b83ee630</title>
<path fill="none" stroke="black" d="M130.48,-287.7C130.48,-280.41 130.48,-271.73 130.48,-263.54"/>
<polygon fill="black" stroke="black" points="133.98,-263.62 130.48,-253.62 126.98,-263.62 133.98,-263.62"/>
<text text-anchor="middle" x="124.48" y="-274.4" font-family="Times,serif" font-size="14.00">N</text>
</g>
<!-- 7f06b84911e0 -->
<g id="node13" class="node">
<title>7f06b84911e0</title>
<ellipse fill="none" stroke="black" cx="224.48" cy="-234" rx="36.48" ry="18"/>
<text text-anchor="middle" x="224.48" y="-229.32" font-family="Times,serif" font-size="14.00">&#45;9.71</text>
</g>
<!-- 7f06d19bb440&#45;&gt;7f06b84911e0 -->
<g id="edge12" class="edge">
<title>7f06d19bb440&#45;&gt;7f06b84911e0</title>
<path fill="none" stroke="black" d="M285.52,-288.41C274.99,-279.2 261.74,-267.6 250.27,-257.57"/>
<polygon fill="black" stroke="black" points="252.9,-255.22 243.07,-251.27 248.29,-260.49 252.9,-255.22"/>
<text text-anchor="middle" x="281.02" y="-275.11" font-family="Times,serif" font-size="14.00">Y</text>
</g>
<!-- 7f06c0102800 -->
<g id="node14" class="node">
<title>7f06c0102800</title>
<ellipse fill="none" stroke="black" cx="315.48" cy="-234" rx="36.48" ry="18"/>
<text text-anchor="middle" x="315.48" y="-229.32" font-family="Times,serif" font-size="14.00">&#45;0.67</text>
</g>
<!-- 7f06d19bb440&#45;&gt;7f06c0102800 -->
<g id="edge13" class="edge">
<title>7f06d19bb440&#45;&gt;7f06c0102800</title>
<path fill="none" stroke="black" d="M307.2,-287.7C308.35,-280.32 309.74,-271.52 311.04,-263.25"/>
<polygon fill="black" stroke="black" points="314.46,-264.02 312.55,-253.6 307.54,-262.93 314.46,-264.02"/>
<text text-anchor="middle" x="301.2" y="-274.4" font-family="Times,serif" font-size="14.00">N</text>
</g>
<!-- 7f06c14fa4b0 -->
<g id="node17" class="node">
<title>7f06c14fa4b0</title>
<ellipse fill="none" stroke="black" cx="444.48" cy="-234" rx="74.88" ry="18"/>
<text text-anchor="middle" x="444.48" y="-229.32" font-family="Times,serif" font-size="14.00">Total&gt;&#45;0.67?</text>
</g>
<!-- 7f06b8521930&#45;&gt;7f06c14fa4b0 -->
<g id="edge16" class="edge">
<title>7f06b8521930&#45;&gt;7f06c14fa4b0</title>
<path fill="none" stroke="black" d="M496.02,-288.05C487.83,-279.63 477.78,-269.28 468.73,-259.97"/>
<polygon fill="black" stroke="black" points="471.32,-257.61 461.84,-252.87 466.3,-262.49 471.32,-257.61"/>
<text text-anchor="middle" x="491.52" y="-274.75" font-family="Times,serif" font-size="14.00">Y</text>
</g>
<!-- 7f06d2dba6b0 -->
<g id="node18" class="node">
<title>7f06d2dba6b0</title>
<ellipse fill="none" stroke="black" cx="580.48" cy="-234" rx="42.79" ry="18"/>
<text text-anchor="middle" x="580.48" y="-229.32" font-family="Times,serif" font-size="14.00">&#45;11.24</text>
</g>
<!-- 7f06b8521930&#45;&gt;7f06d2dba6b0 -->
<g id="edge17" class="edge">
<title>7f06b8521930&#45;&gt;7f06d2dba6b0</title>
<path fill="none" stroke="black" d="M528.94,-288.05C537.45,-279.29 547.98,-268.45 557.3,-258.86"/>
<polygon fill="black" stroke="black" points="559.59,-261.53 564.05,-251.92 554.57,-256.65 559.59,-261.53"/>
<text text-anchor="middle" x="522.94" y="-274.75" font-family="Times,serif" font-size="14.00">N</text>
</g>
<!-- 7f06d26e4f10 -->
<g id="node25" class="node">
<title>7f06d26e4f10</title>
<ellipse fill="none" stroke="black" cx="716.48" cy="-234" rx="74.88" ry="18"/>
<text text-anchor="middle" x="716.48" y="-229.32" font-family="Times,serif" font-size="14.00">Total&gt;&#45;0.67?</text>
</g>
<!-- 7f06c9c5e500&#45;&gt;7f06d26e4f10 -->
<g id="edge24" class="edge">
<title>7f06c9c5e500&#45;&gt;7f06d26e4f10</title>
<path fill="none" stroke="black" d="M716.48,-287.7C716.48,-280.41 716.48,-271.73 716.48,-263.54"/>
<polygon fill="black" stroke="black" points="719.98,-263.62 716.48,-253.62 712.98,-263.62 719.98,-263.62"/>
<text text-anchor="middle" x="711.98" y="-274.4" font-family="Times,serif" font-size="14.00">Y</text>
</g>
<!-- 7f06d0621900 -->
<g id="node26" class="node">
<title>7f06d0621900</title>
<ellipse fill="none" stroke="black" cx="842.48" cy="-234" rx="33.32" ry="18"/>
<text text-anchor="middle" x="842.48" y="-229.32" font-family="Times,serif" font-size="14.00">8.98</text>
</g>
<!-- 7f06c9c5e500&#45;&gt;7f06d0621900 -->
<g id="edge25" class="edge">
<title>7f06c9c5e500&#45;&gt;7f06d0621900</title>
<path fill="none" stroke="black" d="M744.75,-289.29C764.03,-278.58 789.62,-264.37 809.77,-253.17"/>
<polygon fill="black" stroke="black" points="811.39,-256.27 818.43,-248.36 807.99,-250.16 811.39,-256.27"/>
<text text-anchor="middle" x="738.75" y="-275.99" font-family="Times,serif" font-size="14.00">N</text>
</g>
<!-- 7f06b824ff00 -->
<g id="node19" class="node">
<title>7f06b824ff00</title>
<ellipse fill="none" stroke="black" cx="403.48" cy="-162" rx="74.88" ry="18"/>
<text text-anchor="middle" x="403.48" y="-157.32" font-family="Times,serif" font-size="14.00">Total&gt;&#45;0.66?</text>
</g>
<!-- 7f06c14fa4b0&#45;&gt;7f06b824ff00 -->
<g id="edge18" class="edge">
<title>7f06c14fa4b0&#45;&gt;7f06b824ff00</title>
<path fill="none" stroke="black" d="M434.34,-215.7C429.77,-207.9 424.27,-198.51 419.19,-189.83"/>
<polygon fill="black" stroke="black" points="422.33,-188.27 414.26,-181.41 416.29,-191.81 422.33,-188.27"/>
<text text-anchor="middle" x="429.84" y="-202.4" font-family="Times,serif" font-size="14.00">Y</text>
</g>
<!-- 7f06d11c11a0 -->
<g id="node20" class="node">
<title>7f06d11c11a0</title>
<ellipse fill="none" stroke="black" cx="529.48" cy="-162" rx="33.32" ry="18"/>
<text text-anchor="middle" x="529.48" y="-157.32" font-family="Times,serif" font-size="14.00">9.86</text>
</g>
<!-- 7f06c14fa4b0&#45;&gt;7f06d11c11a0 -->
<g id="edge19" class="edge">
<title>7f06c14fa4b0&#45;&gt;7f06d11c11a0</title>
<path fill="none" stroke="black" d="M464.62,-216.41C476.16,-206.91 490.76,-194.88 503.19,-184.65"/>
<polygon fill="black" stroke="black" points="505.12,-187.59 510.62,-178.53 500.67,-182.19 505.12,-187.59"/>
<text text-anchor="middle" x="458.62" y="-203.11" font-family="Times,serif" font-size="14.00">N</text>
</g>
<!-- 7f06b87a2600 -->
<g id="node21" class="node">
<title>7f06b87a2600</title>
<ellipse fill="none" stroke="black" cx="335.48" cy="-90" rx="74.88" ry="18"/>
<text text-anchor="middle" x="335.48" y="-85.33" font-family="Times,serif" font-size="14.00">Total&gt;&#45;0.66?</text>
</g>
<!-- 7f06b824ff00&#45;&gt;7f06b87a2600 -->
<g id="edge20" class="edge">
<title>7f06b824ff00&#45;&gt;7f06b87a2600</title>
<path fill="none" stroke="black" d="M387.02,-144.05C378.83,-135.63 368.78,-125.28 359.73,-115.97"/>
<polygon fill="black" stroke="black" points="362.32,-113.61 352.84,-108.87 357.3,-118.49 362.32,-113.61"/>
<text text-anchor="middle" x="382.52" y="-130.75" font-family="Times,serif" font-size="14.00">Y</text>
</g>
<!-- 7f06d37aced0 -->
<g id="node22" class="node">
<title>7f06d37aced0</title>
<ellipse fill="none" stroke="black" cx="471.48" cy="-90" rx="42.79" ry="18"/>
<text text-anchor="middle" x="471.48" y="-85.33" font-family="Times,serif" font-size="14.00">&#45;13.68</text>
</g>
<!-- 7f06b824ff00&#45;&gt;7f06d37aced0 -->
<g id="edge21" class="edge">
<title>7f06b824ff00&#45;&gt;7f06d37aced0</title>
<path fill="none" stroke="black" d="M419.94,-144.05C428.45,-135.29 438.98,-124.45 448.3,-114.86"/>
<polygon fill="black" stroke="black" points="450.59,-117.53 455.05,-107.92 445.57,-112.65 450.59,-117.53"/>
<text text-anchor="middle" x="413.94" y="-130.75" font-family="Times,serif" font-size="14.00">N</text>
</g>
<!-- 7f06c3baa4a0 -->
<g id="node23" class="node">
<title>7f06c3baa4a0</title>
<ellipse fill="none" stroke="black" cx="291.48" cy="-18" rx="36.48" ry="18"/>
<text text-anchor="middle" x="291.48" y="-13.32" font-family="Times,serif" font-size="14.00">&#45;0.27</text>
</g>
<!-- 7f06b87a2600&#45;&gt;7f06c3baa4a0 -->
<g id="edge22" class="edge">
<title>7f06b87a2600&#45;&gt;7f06c3baa4a0</title>
<path fill="none" stroke="black" d="M324.6,-71.7C319.57,-63.7 313.49,-54.02 307.92,-45.15"/>
<polygon fill="black" stroke="black" points="311.02,-43.51 302.73,-36.9 305.09,-47.23 311.02,-43.51"/>
<text text-anchor="middle" x="320.1" y="-58.4" font-family="Times,serif" font-size="14.00">Y</text>
</g>
<!-- 7f06d3e29bb0 -->
<g id="node24" class="node">
<title>7f06d3e29bb0</title>
<ellipse fill="none" stroke="black" cx="379.48" cy="-18" rx="33.32" ry="18"/>
<text text-anchor="middle" x="379.48" y="-13.32" font-family="Times,serif" font-size="14.00">8.94</text>
</g>
<!-- 7f06b87a2600&#45;&gt;7f06d3e29bb0 -->
<g id="edge23" class="edge">
<title>7f06b87a2600&#45;&gt;7f06d3e29bb0</title>
<path fill="none" stroke="black" d="M346.35,-71.7C351.46,-63.58 357.64,-53.74 363.28,-44.76"/>
<polygon fill="black" stroke="black" points="366.16,-46.75 368.52,-36.43 360.24,-43.03 366.16,-46.75"/>
<text text-anchor="middle" x="340.35" y="-58.4" font-family="Times,serif" font-size="14.00">N</text>
</g>
<!-- 7f06d2d6bad0 -->
<g id="node27" class="node">
<title>7f06d2d6bad0</title>
<ellipse fill="none" stroke="black" cx="662.48" cy="-162" rx="36.48" ry="18"/>
<text text-anchor="middle" x="662.48" y="-157.32" font-family="Times,serif" font-size="14.00">&#45;9.52</text>
</g>
<!-- 7f06d26e4f10&#45;&gt;7f06d2d6bad0 -->
<g id="edge26" class="edge">
<title>7f06d26e4f10&#45;&gt;7f06d2d6bad0</title>
<path fill="none" stroke="black" d="M703.41,-216.05C696.94,-207.68 689.02,-197.4 681.87,-188.13"/>
<polygon fill="black" stroke="black" points="684.86,-186.29 675.98,-180.51 679.32,-190.56 684.86,-186.29"/>
<text text-anchor="middle" x="698.91" y="-202.75" font-family="Times,serif" font-size="14.00">Y</text>
</g>
<!-- 7f06b8a04530 -->
<g id="node28" class="node">
<title>7f06b8a04530</title>
<ellipse fill="none" stroke="black" cx="756.48" cy="-162" rx="39.63" ry="18"/>
<text text-anchor="middle" x="756.48" y="-157.32" font-family="Times,serif" font-size="14.00">12.78</text>
</g>
<!-- 7f06d26e4f10&#45;&gt;7f06b8a04530 -->
<g id="edge27" class="edge">
<title>7f06d26e4f10&#45;&gt;7f06b8a04530</title>
<path fill="none" stroke="black" d="M726.36,-215.7C730.89,-207.78 736.35,-198.23 741.37,-189.44"/>
<polygon fill="black" stroke="black" points="744.3,-191.36 746.23,-180.94 738.23,-187.88 744.3,-191.36"/>
<text text-anchor="middle" x="720.36" y="-202.4" font-family="Times,serif" font-size="14.00">N</text>
</g>
</g>
</svg>