<?xml version="1.0" encoding="UTF-8" standalone="no"?>
<!DOCTYPE svg PUBLIC "-//W3C//DTD SVG 1.1//EN"
 "http://www.w3.org/Graphics/SVG/1.1/DTD/svg11.dtd">
<!-- Generated by graphviz version 9.0.0 (20231125.0833)
 -->
<!-- Title: G Pages: 1 -->
<svg width="557pt" height="206pt"
 viewBox="0.00 0.00 557.12 206.00" xmlns="http://www.w3.org/2000/svg" xmlns:xlink="http://www.w3.org/1999/xlink">
<g id="graph0" class="graph" transform="scale(1 1) rotate(0) translate(4 202)">
<title>G</title>
<polygon fill="white" stroke="none" points="-4,4 -4,-202 553.12,-202 553.12,4 -4,4"/>
<!-- 7f370003ebc0 -->
<g id="node1" class="node">
<title>7f370003ebc0</title>
<ellipse fill="none" stroke="black" cx="59.1" cy="-98" rx="59.1" ry="18"/>
<text text-anchor="middle" x="59.1" y="-93.33" font-family="Times,serif" font-size="14.00">x0&gt;0.75?</text>
</g>
<!-- 7f37000b5410 -->
<g id="node2" class="node">
<title>7f37000b5410</title>
<ellipse fill="none" stroke="black" cx="214.3" cy="-126" rx="59.1" ry="18"/>
<text text-anchor="middle" x="214.3" y="-121.33" font-family="Times,serif" font-size="14.00">x0&gt;0.81?</text>
</g>
<!-- 7f370003ebc0&#45;&gt;7f37000b5410 -->
<g id="edge1" class="edge">
<title>7f370003ebc0&#45;&gt;7f37000b5410</title>
<path fill="none" stroke="black" d="M110.69,-107.25C123.76,-109.64 137.98,-112.23 151.55,-114.72"/>
<polygon fill="black" stroke="black" points="150.81,-118.14 161.28,-116.49 152.07,-111.25 150.81,-118.14"/>
<text text-anchor="middle" x="115.19" y="-111.2" font-family="Times,serif" font-size="14.00">Y</text>
</g>
<!-- 7f370003f120 -->
<g id="node3" class="node">
<title>7f370003f120</title>
<ellipse fill="none" stroke="black" cx="214.3" cy="-72" rx="30.69" ry="18"/>
<text text-anchor="middle" x="214.3" y="-67.33" font-family="Times,serif" font-size="14.00">Add</text>
</g>
<!-- 7f370003ebc0&#45;&gt;7f370003f120 -->
<g id="edge2" class="edge">
<title>7f370003ebc0&#45;&gt;7f370003f120</title>
<path fill="none" stroke="black" d="M111.54,-89.27C131.69,-85.85 154.47,-81.98 173.35,-78.78"/>
<polygon fill="black" stroke="black" points="173.78,-82.26 183.05,-77.13 172.61,-75.36 173.78,-82.26"/>
<text text-anchor="middle" x="117.54" y="-75.97" font-family="Times,serif" font-size="14.00">N</text>
</g>
<!-- 7f370003ef80 -->
<g id="node4" class="node">
<title>7f370003ef80</title>
<ellipse fill="none" stroke="black" cx="449.51" cy="-180" rx="99.61" ry="18"/>
<text text-anchor="middle" x="449.51" y="-175.32" font-family="Times,serif" font-size="14.00">30.49*MeanLabel</text>
</g>
<!-- 7f37000b5410&#45;&gt;7f370003ef80 -->
<g id="edge3" class="edge">
<title>7f37000b5410&#45;&gt;7f370003ef80</title>
<path fill="none" stroke="black" d="M262.21,-136.86C294.78,-144.4 338.8,-154.6 375.87,-163.18"/>
<polygon fill="black" stroke="black" points="374.62,-166.48 385.15,-165.33 376.2,-159.66 374.62,-166.48"/>
<text text-anchor="middle" x="257.71" y="-140.81" font-family="Times,serif" font-size="14.00">Y</text>
</g>
<!-- x0 -->
<g id="node5" class="node">
<title>x0</title>
<ellipse fill="none" stroke="black" cx="449.51" cy="-126" rx="27" ry="18"/>
<text text-anchor="middle" x="449.51" y="-121.33" font-family="Times,serif" font-size="14.00">x0</text>
</g>
<!-- 7f37000b5410&#45;&gt;x0 -->
<g id="edge4" class="edge">
<title>7f37000b5410&#45;&gt;x0</title>
<path fill="none" stroke="black" d="M273.85,-126C316.82,-126 373.93,-126 410.95,-126"/>
<polygon fill="black" stroke="black" points="410.7,-129.5 420.7,-126 410.7,-122.5 410.7,-129.5"/>
<text text-anchor="middle" x="401.97" y="-112.7" font-family="Times,serif" font-size="14.00">49.48</text>
<text text-anchor="middle" x="279.85" y="-112.7" font-family="Times,serif" font-size="14.00">N</text>
</g>
<!-- x1 -->
<g id="node6" class="node">
<title>x1</title>
<ellipse fill="none" stroke="black" cx="449.51" cy="-72" rx="27" ry="18"/>
<text text-anchor="middle" x="449.51" y="-67.33" font-family="Times,serif" font-size="14.00">x1</text>
</g>
<!-- 7f370003f120&#45;&gt;x1 -->
<g id="edge5" class="edge">
<title>7f370003f120&#45;&gt;x1</title>
<path fill="none" stroke="black" d="M245.31,-72C287.63,-72 364.83,-72 410.92,-72"/>
<polygon fill="black" stroke="black" points="410.69,-75.5 420.69,-72 410.69,-68.5 410.69,-75.5"/>
<text text-anchor="middle" x="311.65" y="-75.95" font-family="Times,serif" font-size="14.00">0.02</text>
</g>
<!-- x6 -->
<g id="node7" class="node">
<title>x6</title>
<ellipse fill="none" stroke="black" cx="449.51" cy="-18" rx="27" ry="18"/>
<text text-anchor="middle" x="449.51" y="-13.32" font-family="Times,serif" font-size="14.00">x6</text>
</g>
<!-- 7f370003f120&#45;&gt;x6 -->
<g id="edge6" class="edge">
<title>7f370003f120&#45;&gt;x6</title>
<path fill="none" stroke="black" d="M242.3,-63.99C256.8,-59.8 275.01,-54.74 291.4,-50.75 332.51,-40.74 380.13,-31.08 412.07,-24.88"/>
<polygon fill="black" stroke="black" points="412.44,-28.37 421.6,-23.04 411.12,-21.5 412.44,-28.37"/>
<text text-anchor="middle" x="311.65" y="-53.95" font-family="Times,serif" font-size="14.00">10.47</text>
</g>
</g>
</svg>