<?xml version="1.0" encoding="UTF-8" standalone="no"?>
<!DOCTYPE svg PUBLIC "-//W3C//DTD SVG 1.1//EN"
 "http://www.w3.org/Graphics/SVG/1.1/DTD/svg11.dtd">
<!-- Generated by graphviz version 9.0.0 (20231125.0833)
 -->
<!-- Title: G Pages: 1 -->
<svg width="248pt" height="260pt"
 viewBox="0.00 0.00 247.80 260.00" xmlns="http://www.w3.org/2000/svg" xmlns:xlink="http://www.w3.org/1999/xlink">
<g id="graph0" class="graph" transform="scale(1 1) rotate(0) translate(4 256)">
<title>G</title>
<polygon fill="white" stroke="none" points="-4,4 -4,-256 243.8,-256 243.8,4 -4,4"/>
<!-- 7f21100da1f0 -->
<g id="node1" class="node">
<title>7f21100da1f0</title>
<ellipse fill="none" stroke="black" cx="139.32" cy="-234" rx="50.68" ry="18"/>
<text text-anchor="middle" x="139.32" y="-229.32" font-family="Times,serif" font-size="14.00">Logistic</text>
</g>
<!-- 7f2110175570 -->
<g id="node2" class="node">
<title>7f2110175570</title>
<ellipse fill="none" stroke="black" cx="139.32" cy="-162" rx="30.69" ry="18"/>
<text text-anchor="middle" x="139.32" y="-157.32" font-family="Times,serif" font-size="14.00">Add</text>
</g>
<!-- 7f21100da1f0&#45;&gt;7f2110175570 -->
<g id="edge1" class="edge">
<title>7f21100da1f0&#45;&gt;7f2110175570</title>
<path fill="none" stroke="black" d="M139.32,-215.7C139.32,-208.41 139.32,-199.73 139.32,-191.54"/>
<polygon fill="black" stroke="black" points="142.82,-191.62 139.32,-181.62 135.82,-191.62 142.82,-191.62"/>
</g>
<!-- 7f21100c46f0 -->
<g id="node3" class="node">
<title>7f21100c46f0</title>
<ellipse fill="none" stroke="black" cx="76.32" cy="-90" rx="72.25" ry="18"/>
<text text-anchor="middle" x="76.32" y="-85.33" font-family="Times,serif" font-size="14.00">AIDS&gt;0.41?</text>
</g>
<!-- 7f2110175570&#45;&gt;7f21100c46f0 -->
<g id="edge2" class="edge">
<title>7f2110175570&#45;&gt;7f21100c46f0</title>
<path fill="none" stroke="black" d="M125.34,-145.46C117.68,-136.95 107.99,-126.19 99.26,-116.48"/>
<polygon fill="black" stroke="black" points="101.89,-114.18 92.6,-109.09 96.69,-118.86 101.89,-114.18"/>
</g>
<!-- 7f2110175570Offset -->
<g id="node4" class="node">
<title>7f2110175570Offset</title>
<ellipse fill="none" stroke="black" cx="203.32" cy="-90" rx="36.48" ry="18"/>
<text text-anchor="middle" x="203.32" y="-85.33" font-family="Times,serif" font-size="14.00">&#45;0.62</text>
</g>
<!-- 7f2110175570&#45;&gt;7f2110175570Offset -->
<g id="edge3" class="edge">
<title>7f2110175570&#45;&gt;7f2110175570Offset</title>
<path fill="none" stroke="black" d="M153.21,-145.81C161.4,-136.85 171.95,-125.32 181.25,-115.14"/>
<polygon fill="black" stroke="black" points="183.83,-117.5 188,-107.76 178.67,-112.78 183.83,-117.5"/>
</g>
<!-- 7f21100c47e0 -->
<g id="node5" class="node">
<title>7f21100c47e0</title>
<ellipse fill="none" stroke="black" cx="33.32" cy="-18" rx="33.32" ry="18"/>
<text text-anchor="middle" x="33.32" y="-13.32" font-family="Times,serif" font-size="14.00">9.13</text>
</g>
<!-- 7f21100c46f0&#45;&gt;7f21100c47e0 -->
<g id="edge4" class="edge">
<title>7f21100c46f0&#45;&gt;7f21100c47e0</title>
<path fill="none" stroke="black" d="M65.91,-72.05C60.93,-63.94 54.85,-54.04 49.3,-45.01"/>
<polygon fill="black" stroke="black" points="52.35,-43.29 44.13,-36.6 46.38,-46.95 52.35,-43.29"/>
<text text-anchor="middle" x="61.41" y="-58.75" font-family="Times,serif" font-size="14.00">Y</text>
</g>
<!-- Total -->
<g id="node6" class="node">
<title>Total</title>
<ellipse fill="none" stroke="black" cx="120.32" cy="-18" rx="35.95" ry="18"/>
<text text-anchor="middle" x="120.32" y="-13.32" font-family="Times,serif" font-size="14.00">Total</text>
</g>
<!-- 7f21100c46f0&#45;&gt;Total -->
<g id="edge5" class="edge">
<title>7f21100c46f0&#45;&gt;Total</title>
<path fill="none" stroke="black" d="M86.97,-72.05C92.07,-63.94 98.29,-54.04 103.97,-45.01"/>
<polygon fill="black" stroke="black" points="106.91,-46.92 109.26,-36.59 100.98,-43.19 106.91,-46.92"/>
<text text-anchor="middle" x="92.07" y="-39.26" font-family="Times,serif" font-size="14.00">&#45;0.70</text>
<text text-anchor="middle" x="80.97" y="-58.75" font-family="Times,serif" font-size="14.00">N</text>
</g>
</g>
</svg>