<?xml version="1.0" encoding="UTF-8" standalone="no"?>
<!DOCTYPE svg PUBLIC "-//W3C//DTD SVG 1.1//EN"
 "http://www.w3.org/Graphics/SVG/1.1/DTD/svg11.dtd">
<!-- Generated by graphviz version 12.0.0 (0)
 -->
<!-- Title: G Pages: 1 -->
<svg width="202pt" height="313pt"
 viewBox="0.00 0.00 202.19 313.25" xmlns="http://www.w3.org/2000/svg" xmlns:xlink="http://www.w3.org/1999/xlink">
<g id="graph0" class="graph" transform="scale(1 1) rotate(0) translate(4 309.25)">
<title>G</title>
<polygon fill="white" stroke="none" points="-4,4 -4,-309.25 198.19,-309.25 198.19,4 -4,4"/>
<text text-anchor="middle" x="97.1" y="-5.75" font-family="Times,serif" font-size="10.00">^ split feature fixed, * split threshold fixed</text>
<!-- y -->
<g id="node1" class="node">
<title>y</title>
<polygon fill="none" stroke="black" points="93.19,-305.25 39.19,-305.25 39.19,-269.25 93.19,-269.25 93.19,-305.25"/>
<text text-anchor="middle" x="66.19" y="-282.2" font-family="Times,serif" font-size="14.00">y</text>
</g>
<!-- 1593a8de0 -->
<g id="node2" class="node">
<title>1593a8de0</title>
<ellipse fill="lightcoral" stroke="black" cx="66.19" cy="-198.75" rx="66.19" ry="18"/>
<text text-anchor="middle" x="66.19" y="-193.7" font-family="Times,serif" font-size="14.00">x_0 &gt;= 3.15*?</text>
</g>
<!-- y&#45;&gt;1593a8de0 -->
<g id="edge1" class="edge">
<title>y&#45;&gt;1593a8de0</title>
<path fill="none" stroke="black" d="M66.19,-269.16C66.19,-257.51 66.19,-241.8 66.19,-228.27"/>
<polygon fill="black" stroke="black" points="69.69,-228.61 66.19,-218.61 62.69,-228.61 69.69,-228.61"/>
<text text-anchor="middle" x="78.19" y="-237.95" font-family="Times,serif" font-size="14.00" fill="lightcoral">3.15</text>
</g>
<!-- 15bb0f930 -->
<g id="node3" class="node">
<title>15bb0f930</title>
<ellipse fill="none" stroke="black" cx="54.19" cy="-125.75" rx="31.9" ry="18"/>
<text text-anchor="middle" x="54.19" y="-120.7" font-family="Times,serif" font-size="14.00">15.75</text>
</g>
<!-- 1593a8de0&#45;&gt;15bb0f930 -->
<g id="edge2" class="edge">
<title>1593a8de0&#45;&gt;15bb0f930</title>
<path fill="none" stroke="black" d="M63.29,-180.56C61.99,-172.89 60.43,-163.64 58.97,-154.99"/>
<polygon fill="black" stroke="black" points="62.44,-154.55 57.32,-145.27 55.54,-155.71 62.44,-154.55"/>
<text text-anchor="middle" x="58.41" y="-167.26" font-family="Times,serif" font-size="14.00" fill="lightcoral">Y</text>
</g>
<!-- 15bb0c9e0 -->
<g id="node4" class="node">
<title>15bb0c9e0</title>
<ellipse fill="lightcoral" stroke="black" cx="131.19" cy="-125.75" rx="27" ry="18"/>
<text text-anchor="middle" x="131.19" y="-120.7" font-family="Times,serif" font-size="14.00">Sub</text>
</g>
<!-- 1593a8de0&#45;&gt;15bb0c9e0 -->
<g id="edge3" class="edge">
<title>1593a8de0&#45;&gt;15bb0c9e0</title>
<path fill="none" stroke="black" d="M81.6,-180.92C90.08,-171.66 100.73,-160.03 109.98,-149.92"/>
<polygon fill="black" stroke="black" points="112.47,-152.38 116.64,-142.64 107.31,-147.66 112.47,-152.38"/>
<text text-anchor="middle" x="105.66" y="-144.73" font-family="Times,serif" font-size="14.00" fill="lightcoral">1.03</text>
<text text-anchor="middle" x="76.72" y="-167.62" font-family="Times,serif" font-size="14.00" fill="lightcoral">N</text>
</g>
<!-- x_0 -->
<g id="node5" class="node">
<title>x_0</title>
<ellipse fill="none" stroke="black" cx="95.19" cy="-37.25" rx="27" ry="18"/>
<text text-anchor="middle" x="95.19" y="-32.2" font-family="Times,serif" font-size="14.00">x_0</text>
</g>
<!-- 15bb0c9e0&#45;&gt;x_0 -->
<g id="edge4" class="edge">
<title>15bb0c9e0&#45;&gt;x_0</title>
<path fill="none" stroke="black" d="M124.25,-108.07C119.22,-95.99 112.31,-79.38 106.49,-65.39"/>
<polygon fill="black" stroke="black" points="109.77,-64.16 102.7,-56.27 103.31,-66.85 109.77,-64.16"/>
<text text-anchor="middle" x="128.19" y="-76.45" font-family="Times,serif" font-size="14.00">2.20</text>
</g>
<!-- x_1 -->
<g id="node6" class="node">
<title>x_1</title>
<ellipse fill="none" stroke="black" cx="167.19" cy="-37.25" rx="27" ry="18"/>
<text text-anchor="middle" x="167.19" y="-32.2" font-family="Times,serif" font-size="14.00">x_1</text>
</g>
<!-- 15bb0c9e0&#45;&gt;x_1 -->
<g id="edge5" class="edge">
<title>15bb0c9e0&#45;&gt;x_1</title>
<path fill="none" stroke="black" d="M138.14,-108.07C143.17,-95.99 150.08,-79.38 155.9,-65.39"/>
<polygon fill="black" stroke="black" points="159.08,-66.85 159.69,-56.27 152.62,-64.16 159.08,-66.85"/>
<text text-anchor="middle" x="164.19" y="-76.45" font-family="Times,serif" font-size="14.00">1.31</text>
</g>
</g>
</svg>