<?xml version="1.0" encoding="UTF-8" standalone="no"?>
<!DOCTYPE svg PUBLIC "-//W3C//DTD SVG 1.1//EN"
 "http://www.w3.org/Graphics/SVG/1.1/DTD/svg11.dtd">
<!-- Generated by graphviz version 9.0.0 (20231125.0833)
 -->
<!-- Title: G Pages: 1 -->
<svg width="433pt" height="206pt"
 viewBox="0.00 0.00 432.61 206.25" xmlns="http://www.w3.org/2000/svg" xmlns:xlink="http://www.w3.org/1999/xlink">
<g id="graph0" class="graph" transform="scale(1 1) rotate(0) translate(4 202.25)">
<title>G</title>
<polygon fill="white" stroke="none" points="-4,4 -4,-202.25 428.61,-202.25 428.61,4 -4,4"/>
<!-- 7f370003ebc0 -->
<g id="node1" class="node">
<title>7f370003ebc0</title>
<ellipse fill="none" stroke="black" cx="288.61" cy="-180.25" rx="59.1" ry="18"/>
<text text-anchor="middle" x="288.61" y="-175.57" font-family="Times,serif" font-size="14.00">x0&gt;0.75?</text>
</g>
<!-- 7f37000b5410 -->
<g id="node2" class="node">
<title>7f37000b5410</title>
<ellipse fill="none" stroke="black" cx="235.61" cy="-107.25" rx="59.1" ry="18"/>
<text text-anchor="middle" x="235.61" y="-102.58" font-family="Times,serif" font-size="14.00">x0&gt;0.81?</text>
</g>
<!-- 7f370003ebc0&#45;&gt;7f37000b5410 -->
<g id="edge1" class="edge">
<title>7f370003ebc0&#45;&gt;7f37000b5410</title>
<path fill="none" stroke="black" d="M276.05,-162.42C269.71,-153.94 261.89,-143.46 254.82,-133.98"/>
<polygon fill="black" stroke="black" points="257.77,-132.09 248.99,-126.17 252.16,-136.28 257.77,-132.09"/>
<text text-anchor="middle" x="271.55" y="-149.12" font-family="Times,serif" font-size="14.00">Y</text>
</g>
<!-- 7f370003f120 -->
<g id="node3" class="node">
<title>7f370003f120</title>
<ellipse fill="none" stroke="black" cx="343.61" cy="-107.25" rx="30.69" ry="18"/>
<text text-anchor="middle" x="343.61" y="-102.58" font-family="Times,serif" font-size="14.00">Add</text>
</g>
<!-- 7f370003ebc0&#45;&gt;7f370003f120 -->
<g id="edge2" class="edge">
<title>7f370003ebc0&#45;&gt;7f370003f120</title>
<path fill="none" stroke="black" d="M301.64,-162.42C308.48,-153.6 316.99,-142.62 324.55,-132.86"/>
<polygon fill="black" stroke="black" points="327.14,-135.23 330.5,-125.18 321.61,-130.94 327.14,-135.23"/>
<text text-anchor="middle" x="295.64" y="-149.12" font-family="Times,serif" font-size="14.00">N</text>
</g>
<!-- 7f370003ef80 -->
<g id="node4" class="node">
<title>7f370003ef80</title>
<ellipse fill="none" stroke="black" cx="99.61" cy="-18" rx="99.61" ry="18"/>
<text text-anchor="middle" x="99.61" y="-13.32" font-family="Times,serif" font-size="14.00">30.49*MeanLabel</text>
</g>
<!-- 7f37000b5410&#45;&gt;7f370003ef80 -->
<g id="edge3" class="edge">
<title>7f37000b5410&#45;&gt;7f370003ef80</title>
<path fill="none" stroke="black" d="M210.98,-90.45C189.72,-76.81 158.76,-56.94 134.87,-41.62"/>
<polygon fill="black" stroke="black" points="137.02,-38.84 126.72,-36.39 133.24,-44.74 137.02,-38.84"/>
<text text-anchor="middle" x="206.48" y="-77.15" font-family="Times,serif" font-size="14.00">Y</text>
</g>
<!-- x0 -->
<g id="node5" class="node">
<title>x0</title>
<ellipse fill="none" stroke="black" cx="244.61" cy="-18" rx="27" ry="18"/>
<text text-anchor="middle" x="244.61" y="-13.32" font-family="Times,serif" font-size="14.00">x0</text>
</g>
<!-- 7f37000b5410&#45;&gt;x0 -->
<g id="edge4" class="edge">
<title>7f37000b5410&#45;&gt;x0</title>
<path fill="none" stroke="black" d="M237.39,-89.01C238.61,-77.18 240.26,-61.2 241.67,-47.5"/>
<polygon fill="black" stroke="black" points="245.14,-48.01 242.68,-37.71 238.17,-47.3 245.14,-48.01"/>
<text text-anchor="middle" x="222.59" y="-40.15" font-family="Times,serif" font-size="14.00">49.48</text>
<text text-anchor="middle" x="231.39" y="-75.71" font-family="Times,serif" font-size="14.00">N</text>
</g>
<!-- x1 -->
<g id="node6" class="node">
<title>x1</title>
<ellipse fill="none" stroke="black" cx="325.61" cy="-18" rx="27" ry="18"/>
<text text-anchor="middle" x="325.61" y="-13.32" font-family="Times,serif" font-size="14.00">x1</text>
</g>
<!-- 7f370003f120&#45;&gt;x1 -->
<g id="edge5" class="edge">
<title>7f370003f120&#45;&gt;x1</title>
<path fill="none" stroke="black" d="M340.05,-89.01C337.59,-77.06 334.25,-60.88 331.4,-47.08"/>
<polygon fill="black" stroke="black" points="334.91,-46.77 329.46,-37.68 328.06,-48.19 334.91,-46.77"/>
<text text-anchor="middle" x="352.36" y="-57.95" font-family="Times,serif" font-size="14.00">0.02</text>
</g>
<!-- x6 -->
<g id="node7" class="node">
<title>x6</title>
<ellipse fill="none" stroke="black" cx="397.61" cy="-18" rx="27" ry="18"/>
<text text-anchor="middle" x="397.61" y="-13.32" font-family="Times,serif" font-size="14.00">x6</text>
</g>
<!-- 7f370003f120&#45;&gt;x6 -->
<g id="edge6" class="edge">
<title>7f370003f120&#45;&gt;x6</title>
<path fill="none" stroke="black" d="M357.76,-90.85C362.79,-84.96 368.27,-78.03 372.61,-71.25 377.66,-63.36 382.34,-54.29 386.26,-45.95"/>
<polygon fill="black" stroke="black" points="389.4,-47.49 390.31,-36.94 383.02,-44.62 389.4,-47.49"/>
<text text-anchor="middle" x="401.86" y="-57.95" font-family="Times,serif" font-size="14.00">10.47</text>
</g>
</g>
</svg>