<?xml version="1.0" encoding="UTF-8" standalone="no"?>
<!DOCTYPE svg PUBLIC "-//W3C//DTD SVG 1.1//EN"
 "http://www.w3.org/Graphics/SVG/1.1/DTD/svg11.dtd">
<!-- Generated by graphviz version 12.0.0 (0)
 -->
<!-- Title: G Pages: 1 -->
<svg width="316pt" height="652pt"
 viewBox="0.00 0.00 316.00 652.00" xmlns="http://www.w3.org/2000/svg" xmlns:xlink="http://www.w3.org/1999/xlink">
<g id="graph0" class="graph" transform="scale(1 1) rotate(0) translate(4 648)">
<title>G</title>
<polygon fill="white" stroke="none" points="-4,4 -4,-648 312,-648 312,4 -4,4"/>
<!-- y -->
<g id="node1" class="node">
<title>y</title>
<polygon fill="none" stroke="black" points="262,-644 208,-644 208,-608 262,-608 262,-644"/>
<text text-anchor="middle" x="235" y="-620.95" font-family="Times,serif" font-size="14.00">y</text>
</g>
<!-- 1257ca330 -->
<g id="node2" class="node">
<title>1257ca330</title>
<ellipse fill="none" stroke="black" cx="235" cy="-537.5" rx="27" ry="18"/>
<text text-anchor="middle" x="235" y="-532.45" font-family="Times,serif" font-size="14.00">Sub</text>
</g>
<!-- y&#45;&gt;1257ca330 -->
<g id="edge1" class="edge">
<title>y&#45;&gt;1257ca330</title>
<path fill="none" stroke="black" d="M235,-607.91C235,-596.26 235,-580.55 235,-567.02"/>
<polygon fill="black" stroke="black" points="238.5,-567.36 235,-557.36 231.5,-567.36 238.5,-567.36"/>
<text text-anchor="middle" x="247" y="-576.7" font-family="Times,serif" font-size="14.00">0.51</text>
</g>
<!-- 14693d080 -->
<g id="node3" class="node">
<title>14693d080</title>
<ellipse fill="none" stroke="black" cx="190" cy="-449" rx="46.23" ry="18"/>
<text text-anchor="middle" x="190" y="-443.95" font-family="Times,serif" font-size="14.00">x0&gt;0.75?</text>
</g>
<!-- 1257ca330&#45;&gt;14693d080 -->
<g id="edge2" class="edge">
<title>1257ca330&#45;&gt;14693d080</title>
<path fill="none" stroke="black" d="M226.54,-520.23C220.25,-508.14 211.52,-491.37 204.17,-477.25"/>
<polygon fill="black" stroke="black" points="207.31,-475.68 199.59,-468.43 201.1,-478.91 207.31,-475.68"/>
</g>
<!-- x6 -->
<g id="node4" class="node">
<title>x6</title>
<ellipse fill="none" stroke="black" cx="281" cy="-449" rx="27" ry="18"/>
<text text-anchor="middle" x="281" y="-443.95" font-family="Times,serif" font-size="14.00">x6</text>
</g>
<!-- 1257ca330&#45;&gt;x6 -->
<g id="edge3" class="edge">
<title>1257ca330&#45;&gt;x6</title>
<path fill="none" stroke="black" d="M243.65,-520.23C250.23,-507.86 259.41,-490.6 267.02,-476.28"/>
<polygon fill="black" stroke="black" points="269.91,-478.3 271.52,-467.83 263.73,-475.01 269.91,-478.3"/>
<text text-anchor="middle" x="279.62" y="-488.2" font-family="Times,serif" font-size="14.00">&#45;28.99</text>
</g>
<!-- 1257f3910 -->
<g id="node5" class="node">
<title>1257f3910</title>
<ellipse fill="none" stroke="black" cx="145" cy="-376" rx="46.23" ry="18"/>
<text text-anchor="middle" x="145" y="-370.95" font-family="Times,serif" font-size="14.00">x0&gt;0.81?</text>
</g>
<!-- 14693d080&#45;&gt;1257f3910 -->
<g id="edge4" class="edge">
<title>14693d080&#45;&gt;1257f3910</title>
<path fill="none" stroke="black" d="M179.34,-431.17C174.07,-422.86 167.59,-412.64 161.69,-403.33"/>
<polygon fill="black" stroke="black" points="164.71,-401.56 156.4,-394.98 158.8,-405.3 164.71,-401.56"/>
<text text-anchor="middle" x="174.46" y="-417.87" font-family="Times,serif" font-size="14.00">Y</text>
</g>
<!-- 1445a9180 -->
<g id="node6" class="node">
<title>1445a9180</title>
<ellipse fill="none" stroke="black" cx="236" cy="-376" rx="27" ry="18"/>
<text text-anchor="middle" x="236" y="-370.95" font-family="Times,serif" font-size="14.00">Sub</text>
</g>
<!-- 14693d080&#45;&gt;1445a9180 -->
<g id="edge5" class="edge">
<title>14693d080&#45;&gt;1445a9180</title>
<path fill="none" stroke="black" d="M200.9,-431.17C206.5,-422.53 213.44,-411.82 219.66,-402.21"/>
<polygon fill="black" stroke="black" points="222.48,-404.3 224.98,-394 216.61,-400.49 222.48,-404.3"/>
<text text-anchor="middle" x="196.03" y="-417.87" font-family="Times,serif" font-size="14.00">N</text>
</g>
<!-- 1257ffe20 -->
<g id="node7" class="node">
<title>1257ffe20</title>
<ellipse fill="none" stroke="black" cx="99" cy="-303" rx="27" ry="18"/>
<text text-anchor="middle" x="99" y="-297.95" font-family="Times,serif" font-size="14.00">Add</text>
</g>
<!-- 1257f3910&#45;&gt;1257ffe20 -->
<g id="edge6" class="edge">
<title>1257f3910&#45;&gt;1257ffe20</title>
<path fill="none" stroke="black" d="M134.1,-358.17C128.5,-349.53 121.56,-338.82 115.34,-329.21"/>
<polygon fill="black" stroke="black" points="118.39,-327.49 110.02,-321 112.52,-331.3 118.39,-327.49"/>
<text text-anchor="middle" x="129.22" y="-344.87" font-family="Times,serif" font-size="14.00">Y</text>
</g>
<!-- 14455ffa0 -->
<g id="node8" class="node">
<title>14455ffa0</title>
<ellipse fill="none" stroke="black" cx="160" cy="-249" rx="27" ry="18"/>
<text text-anchor="middle" x="160" y="-243.95" font-family="Times,serif" font-size="14.00">Cos</text>
</g>
<!-- 1257f3910&#45;&gt;14455ffa0 -->
<g id="edge7" class="edge">
<title>1257f3910&#45;&gt;14455ffa0</title>
<path fill="none" stroke="black" d="M147.09,-357.62C149.54,-337.19 153.64,-302.99 156.57,-278.62"/>
<polygon fill="black" stroke="black" points="160.04,-279.08 157.75,-268.74 153.09,-278.25 160.04,-279.08"/>
<text text-anchor="middle" x="139.18" y="-270.43" font-family="Times,serif" font-size="14.00">114.37</text>
<text text-anchor="middle" x="142.21" y="-344.32" font-family="Times,serif" font-size="14.00">N</text>
</g>
<!-- x0 -->
<g id="node12" class="node">
<title>x0</title>
<ellipse fill="none" stroke="black" cx="160" cy="-18" rx="27" ry="18"/>
<text text-anchor="middle" x="160" y="-12.95" font-family="Times,serif" font-size="14.00">x0</text>
</g>
<!-- 1445a9180&#45;&gt;x0 -->
<g id="edge14" class="edge">
<title>1445a9180&#45;&gt;x0</title>
<path fill="none" stroke="black" d="M227.44,-358.56C220.9,-344.47 213,-323.44 213,-304 213,-304 213,-304 213,-105.5 213,-80.98 197.33,-57.55 183.02,-41.27"/>
<polygon fill="black" stroke="black" points="185.74,-39.05 176.36,-34.11 180.61,-43.82 185.74,-39.05"/>
<text text-anchor="middle" x="228.38" y="-189.95" font-family="Times,serif" font-size="14.00">43.94</text>
</g>
<!-- 14457e5a0 -->
<g id="node13" class="node">
<title>14457e5a0</title>
<ellipse fill="none" stroke="black" cx="273" cy="-303" rx="31.9" ry="18"/>
<text text-anchor="middle" x="273" y="-297.95" font-family="Times,serif" font-size="14.00">54.38</text>
</g>
<!-- 1445a9180&#45;&gt;14457e5a0 -->
<g id="edge13" class="edge">
<title>1445a9180&#45;&gt;14457e5a0</title>
<path fill="none" stroke="black" d="M244.58,-358.53C248.92,-350.2 254.3,-339.88 259.21,-330.47"/>
<polygon fill="black" stroke="black" points="262.25,-332.21 263.77,-321.72 256.04,-328.97 262.25,-332.21"/>
</g>
<!-- x4 -->
<g id="node9" class="node">
<title>x4</title>
<ellipse fill="none" stroke="black" cx="27" cy="-195" rx="27" ry="18"/>
<text text-anchor="middle" x="27" y="-189.95" font-family="Times,serif" font-size="14.00">x4</text>
</g>
<!-- 1257ffe20&#45;&gt;x4 -->
<g id="edge8" class="edge">
<title>1257ffe20&#45;&gt;x4</title>
<path fill="none" stroke="black" d="M84.51,-287.65C78.73,-281.56 72.22,-274.2 67,-267 56.82,-252.94 47.2,-236.04 39.96,-222.26"/>
<polygon fill="black" stroke="black" points="43.28,-221.07 35.59,-213.77 37.05,-224.27 43.28,-221.07"/>
<text text-anchor="middle" x="79" y="-243.95" font-family="Times,serif" font-size="14.00">7.63</text>
</g>
<!-- 144513440 -->
<g id="node10" class="node">
<title>144513440</title>
<ellipse fill="none" stroke="black" cx="99" cy="-195" rx="27" ry="18"/>
<text text-anchor="middle" x="99" y="-189.95" font-family="Times,serif" font-size="14.00">Cos</text>
</g>
<!-- 1257ffe20&#45;&gt;144513440 -->
<g id="edge9" class="edge">
<title>1257ffe20&#45;&gt;144513440</title>
<path fill="none" stroke="black" d="M96.91,-284.58C96.33,-278.97 95.79,-272.73 95.5,-267 94.7,-251.02 94.7,-246.98 95.5,-231 95.6,-228.94 95.74,-226.81 95.9,-224.68"/>
<polygon fill="black" stroke="black" points="99.37,-225.2 96.78,-214.93 92.39,-224.57 99.37,-225.2"/>
<text text-anchor="middle" x="110.25" y="-243.95" font-family="Times,serif" font-size="14.00">&#45;7.19</text>
</g>
<!-- 14455ffa0&#45;&gt;x0 -->
<g id="edge12" class="edge">
<title>14455ffa0&#45;&gt;x0</title>
<path fill="none" stroke="black" d="M160,-230.79C160,-191.75 160,-96.13 160,-47.87"/>
<polygon fill="black" stroke="black" points="163.5,-47.93 160,-37.93 156.5,-47.93 163.5,-47.93"/>
<text text-anchor="middle" x="178.75" y="-145.7" font-family="Times,serif" font-size="14.00">271.54</text>
</g>
<!-- 1445a6eb0 -->
<g id="node11" class="node">
<title>1445a6eb0</title>
<ellipse fill="none" stroke="black" cx="102" cy="-106.5" rx="27" ry="18"/>
<text text-anchor="middle" x="102" y="-101.45" font-family="Times,serif" font-size="14.00">Cos</text>
</g>
<!-- 144513440&#45;&gt;1445a6eb0 -->
<g id="edge10" class="edge">
<title>144513440&#45;&gt;1445a6eb0</title>
<path fill="none" stroke="black" d="M99.44,-176.83C99.71,-166.82 100.09,-153.94 100.5,-142.5 100.57,-140.45 100.65,-138.33 100.74,-136.19"/>
<polygon fill="black" stroke="black" points="104.22,-136.59 101.14,-126.46 97.23,-136.3 104.22,-136.59"/>
<text text-anchor="middle" x="119.75" y="-145.7" font-family="Times,serif" font-size="14.00">311.56</text>
</g>
<!-- 1445a6eb0&#45;&gt;x0 -->
<g id="edge11" class="edge">
<title>1445a6eb0&#45;&gt;x0</title>
<path fill="none" stroke="black" d="M101.69,-88.09C102.26,-77.51 104.38,-64.14 110.75,-54 115.31,-46.73 121.99,-40.53 128.96,-35.47"/>
<polygon fill="black" stroke="black" points="130.75,-38.48 137.22,-30.09 126.93,-32.61 130.75,-38.48"/>
<text text-anchor="middle" x="128.62" y="-57.2" font-family="Times,serif" font-size="14.00">&#45;36.80</text>
</g>
</g>
</svg>